%TF.GenerationSoftware,KiCad,Pcbnew,9.0.2*%
%TF.CreationDate,2025-11-13T09:21:06+01:00*%
%TF.ProjectId,Platine_Grinder_Triac_smd_v2.1,506c6174-696e-4655-9f47-72696e646572,rev?*%
%TF.SameCoordinates,Original*%
%TF.FileFunction,Copper,L1,Top*%
%TF.FilePolarity,Positive*%
%FSLAX46Y46*%
G04 Gerber Fmt 4.6, Leading zero omitted, Abs format (unit mm)*
G04 Created by KiCad (PCBNEW 9.0.2) date 2025-11-13 09:21:06*
%MOMM*%
%LPD*%
G01*
G04 APERTURE LIST*
G04 Aperture macros list*
%AMRoundRect*
0 Rectangle with rounded corners*
0 $1 Rounding radius*
0 $2 $3 $4 $5 $6 $7 $8 $9 X,Y pos of 4 corners*
0 Add a 4 corners polygon primitive as box body*
4,1,4,$2,$3,$4,$5,$6,$7,$8,$9,$2,$3,0*
0 Add four circle primitives for the rounded corners*
1,1,$1+$1,$2,$3*
1,1,$1+$1,$4,$5*
1,1,$1+$1,$6,$7*
1,1,$1+$1,$8,$9*
0 Add four rect primitives between the rounded corners*
20,1,$1+$1,$2,$3,$4,$5,0*
20,1,$1+$1,$4,$5,$6,$7,0*
20,1,$1+$1,$6,$7,$8,$9,0*
20,1,$1+$1,$8,$9,$2,$3,0*%
%AMHorizOval*
0 Thick line with rounded ends*
0 $1 width*
0 $2 $3 position (X,Y) of the first rounded end (center of the circle)*
0 $4 $5 position (X,Y) of the second rounded end (center of the circle)*
0 Add line between two ends*
20,1,$1,$2,$3,$4,$5,0*
0 Add two circle primitives to create the rounded ends*
1,1,$1,$2,$3*
1,1,$1,$4,$5*%
G04 Aperture macros list end*
%TA.AperFunction,SMDPad,CuDef*%
%ADD10RoundRect,0.250000X-0.325000X-0.650000X0.325000X-0.650000X0.325000X0.650000X-0.325000X0.650000X0*%
%TD*%
%TA.AperFunction,SMDPad,CuDef*%
%ADD11RoundRect,0.250000X-0.312500X-0.625000X0.312500X-0.625000X0.312500X0.625000X-0.312500X0.625000X0*%
%TD*%
%TA.AperFunction,SMDPad,CuDef*%
%ADD12RoundRect,0.135000X-0.185000X0.135000X-0.185000X-0.135000X0.185000X-0.135000X0.185000X0.135000X0*%
%TD*%
%TA.AperFunction,SMDPad,CuDef*%
%ADD13RoundRect,0.250000X-1.400000X-1.000000X1.400000X-1.000000X1.400000X1.000000X-1.400000X1.000000X0*%
%TD*%
%TA.AperFunction,SMDPad,CuDef*%
%ADD14RoundRect,0.249999X-1.450001X0.450001X-1.450001X-0.450001X1.450001X-0.450001X1.450001X0.450001X0*%
%TD*%
%TA.AperFunction,SMDPad,CuDef*%
%ADD15RoundRect,0.250000X-0.700000X0.275000X-0.700000X-0.275000X0.700000X-0.275000X0.700000X0.275000X0*%
%TD*%
%TA.AperFunction,ComponentPad*%
%ADD16HorizOval,3.000000X-2.008711X2.393889X2.008711X-2.393889X0*%
%TD*%
%TA.AperFunction,ComponentPad*%
%ADD17C,4.000000*%
%TD*%
%TA.AperFunction,SMDPad,CuDef*%
%ADD18RoundRect,0.150000X-0.587500X-0.150000X0.587500X-0.150000X0.587500X0.150000X-0.587500X0.150000X0*%
%TD*%
%TA.AperFunction,SMDPad,CuDef*%
%ADD19RoundRect,0.250000X1.400000X1.000000X-1.400000X1.000000X-1.400000X-1.000000X1.400000X-1.000000X0*%
%TD*%
%TA.AperFunction,SMDPad,CuDef*%
%ADD20RoundRect,0.250000X-0.650000X1.000000X-0.650000X-1.000000X0.650000X-1.000000X0.650000X1.000000X0*%
%TD*%
%TA.AperFunction,ComponentPad*%
%ADD21O,2.000000X5.700000*%
%TD*%
%TA.AperFunction,SMDPad,CuDef*%
%ADD22RoundRect,0.250000X-0.275000X-0.700000X0.275000X-0.700000X0.275000X0.700000X-0.275000X0.700000X0*%
%TD*%
%TA.AperFunction,SMDPad,CuDef*%
%ADD23RoundRect,0.250000X-0.300000X2.050000X-0.300000X-2.050000X0.300000X-2.050000X0.300000X2.050000X0*%
%TD*%
%TA.AperFunction,SMDPad,CuDef*%
%ADD24RoundRect,0.250002X-5.149998X4.449998X-5.149998X-4.449998X5.149998X-4.449998X5.149998X4.449998X0*%
%TD*%
%TA.AperFunction,ComponentPad*%
%ADD25O,4.400000X1.500000*%
%TD*%
%TA.AperFunction,SMDPad,CuDef*%
%ADD26RoundRect,0.135000X0.135000X0.185000X-0.135000X0.185000X-0.135000X-0.185000X0.135000X-0.185000X0*%
%TD*%
%TA.AperFunction,ComponentPad*%
%ADD27O,5.700000X2.000000*%
%TD*%
%TA.AperFunction,ViaPad*%
%ADD28C,0.500000*%
%TD*%
%TA.AperFunction,ViaPad*%
%ADD29C,0.600000*%
%TD*%
%TA.AperFunction,Conductor*%
%ADD30C,0.600000*%
%TD*%
%TA.AperFunction,Conductor*%
%ADD31C,2.000000*%
%TD*%
%TA.AperFunction,Conductor*%
%ADD32C,1.500000*%
%TD*%
%TA.AperFunction,Conductor*%
%ADD33C,1.000000*%
%TD*%
%TA.AperFunction,Conductor*%
%ADD34C,0.200000*%
%TD*%
%TA.AperFunction,Conductor*%
%ADD35C,0.100000*%
%TD*%
%TA.AperFunction,Conductor*%
%ADD36C,0.300000*%
%TD*%
G04 APERTURE END LIST*
D10*
%TO.P,C7,1*%
%TO.N,/V+*%
X127025000Y-111000000D03*
%TO.P,C7,2*%
%TO.N,/V_Case*%
X129975000Y-111000000D03*
%TD*%
D11*
%TO.P,R3,1*%
%TO.N,/Net-Q1-C*%
X122762500Y-74800000D03*
%TO.P,R3,2*%
%TO.N,/Net-(Q2-G)*%
X125687500Y-74800000D03*
%TD*%
D10*
%TO.P,C10,1*%
%TO.N,/V_Case*%
X152425000Y-99800000D03*
%TO.P,C10,2*%
%TO.N,/V-*%
X155375000Y-99800000D03*
%TD*%
%TO.P,C8,1*%
%TO.N,/V_Case*%
X152425000Y-103500000D03*
%TO.P,C8,2*%
%TO.N,/V-*%
X155375000Y-103500000D03*
%TD*%
D12*
%TO.P,R2,1*%
%TO.N,/Net-(Q1-B)*%
X125600000Y-79090000D03*
%TO.P,R2,2*%
%TO.N,GND*%
X125600000Y-80110000D03*
%TD*%
D13*
%TO.P,D2,1,K*%
%TO.N,/V+_Rectifier*%
X146000000Y-79400000D03*
%TO.P,D2,2,A*%
%TO.N,/N_Triac*%
X146000000Y-86200000D03*
%TD*%
D14*
%TO.P,C1,1*%
%TO.N,/V+_Rectifier*%
X143200000Y-89850000D03*
%TO.P,C1,2*%
%TO.N,/V-_Rectifier*%
X143200000Y-93950000D03*
%TD*%
D15*
%TO.P,FB1,1*%
%TO.N,/V+_Rectifier*%
X125600000Y-101325000D03*
%TO.P,FB1,2*%
%TO.N,/V+*%
X125600000Y-104475000D03*
%TD*%
D16*
%TO.P,DC-Motor1,1,V+*%
%TO.N,/V+*%
X126168755Y-115066693D03*
%TO.P,DC-Motor1,2,V-*%
%TO.N,/V-*%
X151831245Y-93533307D03*
D17*
%TO.P,DC-Motor1,3,Case1*%
%TO.N,/V_Case*%
X134553494Y-114558099D03*
%TO.P,DC-Motor1,4,Case2*%
X149874382Y-101702347D03*
%TD*%
D10*
%TO.P,C4,1*%
%TO.N,/V_Case*%
X152425000Y-108100000D03*
%TO.P,C4,2*%
%TO.N,/V-*%
X155375000Y-108100000D03*
%TD*%
D18*
%TO.P,Q1,1,B*%
%TO.N,/Net-(Q1-B)*%
X122662500Y-76950000D03*
%TO.P,Q1,2,E*%
%TO.N,GND*%
X122662500Y-78850000D03*
%TO.P,Q1,3,C*%
%TO.N,/Net-Q1-C*%
X124537500Y-77900000D03*
%TD*%
D13*
%TO.P,D4,1,K*%
%TO.N,/L_Limiter*%
X152700000Y-69600000D03*
%TO.P,D4,2,A*%
%TO.N,/V-_Rectifier*%
X152700000Y-76400000D03*
%TD*%
D19*
%TO.P,D1,1,K*%
%TO.N,/V+_Rectifier*%
X146000000Y-76400000D03*
%TO.P,D1,2,A*%
%TO.N,/L_Limiter*%
X146000000Y-69600000D03*
%TD*%
D20*
%TO.P,D6,1,K*%
%TO.N,/V+_Rectifier*%
X129500000Y-92600000D03*
%TO.P,D6,2,A*%
%TO.N,/V-_Rectifier*%
X129500000Y-96600000D03*
%TD*%
D10*
%TO.P,C6,1*%
%TO.N,/V_Case*%
X152425000Y-105800000D03*
%TO.P,C6,2*%
%TO.N,/V-*%
X155375000Y-105800000D03*
%TD*%
%TO.P,C5,1*%
%TO.N,/V+*%
X125625000Y-108700000D03*
%TO.P,C5,2*%
%TO.N,/V_Case*%
X128575000Y-108700000D03*
%TD*%
D21*
%TO.P,Con2,1,Con*%
%TO.N,/L_In*%
X146500000Y-63600000D03*
%TO.P,Con2,2,Con*%
%TO.N,/L_Limiter*%
X151500000Y-63600000D03*
%TD*%
D22*
%TO.P,FB2,1*%
%TO.N,/V-_Rectifier*%
X145925000Y-95800000D03*
%TO.P,FB2,2*%
%TO.N,/V-*%
X149075000Y-95800000D03*
%TD*%
D10*
%TO.P,C3,1*%
%TO.N,/V+*%
X125625000Y-106400000D03*
%TO.P,C3,2*%
%TO.N,/V_Case*%
X128575000Y-106400000D03*
%TD*%
D14*
%TO.P,C2,1*%
%TO.N,/V+_Rectifier*%
X139300000Y-89850000D03*
%TO.P,C2,2*%
%TO.N,/V-_Rectifier*%
X139300000Y-93950000D03*
%TD*%
D21*
%TO.P,Con3,1,Con*%
%TO.N,/L_In*%
X132500000Y-63600000D03*
%TO.P,Con3,2,Con*%
%TO.N,/N_In*%
X137500000Y-63600000D03*
%TD*%
D23*
%TO.P,Q2,1,A1*%
%TO.N,/N_In*%
X137540000Y-73350000D03*
D24*
%TO.P,Q2,2,A2*%
%TO.N,/N_Triac*%
X135000000Y-82500000D03*
D23*
%TO.P,Q2,3,G*%
%TO.N,/Net-(Q2-G)*%
X132460000Y-73350000D03*
%TD*%
D25*
%TO.P,Con4,1,Con*%
%TO.N,/Sig_In*%
X122900000Y-87500000D03*
%TO.P,Con4,2,Con*%
%TO.N,GND*%
X122900000Y-82500000D03*
%TD*%
D10*
%TO.P,C9,1*%
%TO.N,/V+*%
X128475000Y-113300000D03*
%TO.P,C9,2*%
%TO.N,/V_Case*%
X131425000Y-113300000D03*
%TD*%
D26*
%TO.P,R1,1*%
%TO.N,/Sig_In*%
X126010000Y-76600000D03*
%TO.P,R1,2*%
%TO.N,/Net-(Q1-B)*%
X124990000Y-76600000D03*
%TD*%
D20*
%TO.P,D5,1,K*%
%TO.N,/V+_Rectifier*%
X133000000Y-91000000D03*
%TO.P,D5,2,A*%
%TO.N,/V-_Rectifier*%
X133000000Y-95000000D03*
%TD*%
D27*
%TO.P,Con1,1,Con*%
%TO.N,/L_In*%
X123600000Y-70650000D03*
%TO.P,Con1,2,Con*%
%TO.N,/N_In*%
X123600000Y-65650000D03*
%TD*%
D19*
%TO.P,D3,1,K*%
%TO.N,/N_Triac*%
X152700000Y-86200000D03*
%TO.P,D3,2,A*%
%TO.N,/V-_Rectifier*%
X152700000Y-79400000D03*
%TD*%
D28*
%TO.N,/V+_Rectifier*%
X141900000Y-89000000D03*
X146700000Y-81000000D03*
X140500000Y-89000000D03*
X146000000Y-81000000D03*
X141200000Y-89001000D03*
X145300000Y-81000000D03*
D29*
%TO.N,/V-_Rectifier*%
X143200000Y-92900000D03*
D28*
X152700000Y-81000000D03*
D29*
X143900000Y-92900000D03*
D28*
X153400000Y-81000000D03*
D29*
X142500000Y-92900000D03*
D28*
X152000000Y-81000000D03*
D29*
%TO.N,GND*%
X122670496Y-80208633D03*
%TO.N,/N_Triac*%
X138000000Y-80000000D03*
X141000000Y-76000000D03*
X133500000Y-85000000D03*
X129000000Y-84000000D03*
X156700000Y-76000000D03*
X149300000Y-81800000D03*
X141000000Y-72500000D03*
X141000000Y-78000000D03*
X142100000Y-74500000D03*
X135000000Y-81500000D03*
X136000000Y-81500000D03*
X135000000Y-78000000D03*
X129000000Y-82500000D03*
X135000000Y-85000000D03*
X154500000Y-88500000D03*
X132000000Y-81250000D03*
X133500000Y-80000000D03*
X135000000Y-87000000D03*
X141000000Y-82500000D03*
X137000000Y-87000000D03*
X129000000Y-79500000D03*
X138000000Y-82500000D03*
X134000000Y-82500000D03*
X136000000Y-83500000D03*
X140000000Y-77000000D03*
X155200000Y-73100000D03*
X132000000Y-85000000D03*
X132000000Y-82500000D03*
X139000000Y-78000000D03*
X156700000Y-81000000D03*
X129000000Y-78000000D03*
X134000000Y-83500000D03*
X148200000Y-73100000D03*
X131000000Y-87000000D03*
X133000000Y-87000000D03*
X136500000Y-80000000D03*
X129000000Y-81000000D03*
X150500000Y-73100000D03*
X134000000Y-81500000D03*
X136000000Y-82500000D03*
X129000000Y-85500000D03*
X141000000Y-81000000D03*
X138000000Y-85000000D03*
X132000000Y-83750000D03*
X141000000Y-84000000D03*
X156700000Y-65000000D03*
X156700000Y-70300000D03*
X136500000Y-85000000D03*
X132000000Y-80000000D03*
X135000000Y-82500000D03*
X141000000Y-79500000D03*
X142000000Y-77000000D03*
X144100000Y-73100000D03*
X156700000Y-86000000D03*
X138000000Y-81250000D03*
X138000000Y-83750000D03*
X139000000Y-87000000D03*
X140520601Y-85720601D03*
X133000000Y-78000000D03*
X135000000Y-80000000D03*
X131000000Y-78000000D03*
X135000000Y-83500000D03*
X137000000Y-78000000D03*
X129000000Y-87000000D03*
%TO.N,/Net-(Q1-B)*%
X123900000Y-76900000D03*
%TO.N,/Net-Q1-C*%
X121850341Y-75719609D03*
%TO.N,/Net-(Q2-G)*%
X126500000Y-74800000D03*
%TD*%
D30*
%TO.N,/V+_Rectifier*%
X143200000Y-89850000D02*
X141678441Y-89850000D01*
D31*
X133000000Y-91000000D02*
X131100000Y-91000000D01*
X139300000Y-89850000D02*
X134150000Y-89850000D01*
X134150000Y-89850000D02*
X133000000Y-91000000D01*
D30*
X141900000Y-89000000D02*
X140500000Y-89000000D01*
X146700000Y-81000000D02*
X145300000Y-81000000D01*
D31*
X125500000Y-101225000D02*
X125600000Y-101325000D01*
D30*
X141251038Y-89422597D02*
X141200000Y-89371559D01*
D31*
X131100000Y-91000000D02*
X129500000Y-92600000D01*
X146000000Y-79400000D02*
X146000000Y-81000000D01*
X146000000Y-76400000D02*
X146000000Y-79400000D01*
D30*
X141200000Y-89371559D02*
X141200000Y-89001000D01*
D31*
X129500000Y-92600000D02*
X127438787Y-92600000D01*
X139300000Y-89850000D02*
X143200000Y-89850000D01*
X127438787Y-92600000D02*
X125500000Y-94538787D01*
X125500000Y-94538787D02*
X125500000Y-101225000D01*
D30*
X141678441Y-89850000D02*
X141251038Y-89422597D01*
D31*
%TO.N,/V-_Rectifier*%
X131400000Y-96600000D02*
X129500000Y-96600000D01*
X135597430Y-93950000D02*
X134547430Y-95000000D01*
D30*
X152700000Y-79400000D02*
X152700000Y-81000000D01*
D31*
X134547430Y-95000000D02*
X133000000Y-95000000D01*
D30*
X143200000Y-92900000D02*
X143200000Y-93950000D01*
D31*
X139300000Y-93950000D02*
X135597430Y-93950000D01*
X152700000Y-77900000D02*
X152700000Y-81000000D01*
X143200000Y-93950000D02*
X139300000Y-93950000D01*
D30*
X152000000Y-81000000D02*
X153400000Y-81000000D01*
D32*
X145925000Y-94925000D02*
X144950000Y-93950000D01*
X145925000Y-95800000D02*
X145925000Y-94925000D01*
X144950000Y-93950000D02*
X143200000Y-93950000D01*
D30*
X143200000Y-93700000D02*
X143200000Y-93200000D01*
X143200000Y-93700000D02*
X143200000Y-93100000D01*
D31*
X152700000Y-77900000D02*
X152700000Y-79400000D01*
X133000000Y-95000000D02*
X131400000Y-96600000D01*
X152700000Y-76400000D02*
X152700000Y-77900000D01*
D30*
X143200000Y-93950000D02*
X143200000Y-93700000D01*
D33*
%TO.N,/V_Case*%
X151776729Y-99800000D02*
X149874382Y-101702347D01*
X152425000Y-108100000D02*
X152425000Y-105800000D01*
X149874382Y-108625618D02*
X143941901Y-114558099D01*
X149874382Y-101702347D02*
X149874382Y-108625618D01*
X129975000Y-110100000D02*
X129975000Y-111000000D01*
X152425000Y-99800000D02*
X151776729Y-99800000D01*
X152425000Y-103500000D02*
X152425000Y-99800000D01*
X132683099Y-114558099D02*
X134553494Y-114558099D01*
X128575000Y-106400000D02*
X128575000Y-108700000D01*
X128575000Y-108700000D02*
X129975000Y-110100000D01*
X131425000Y-113300000D02*
X132683099Y-114558099D01*
X129975000Y-111000000D02*
X131425000Y-112450000D01*
X152425000Y-105800000D02*
X152425000Y-103500000D01*
X131425000Y-112450000D02*
X131425000Y-113300000D01*
X143941901Y-114558099D02*
X134553494Y-114558099D01*
D34*
%TO.N,GND*%
X123000000Y-80210000D02*
X125500000Y-80210000D01*
X123000000Y-80210000D02*
X122672500Y-80210000D01*
X122671863Y-80210000D02*
X123000000Y-80210000D01*
X125500000Y-80210000D02*
X125600000Y-80110000D01*
X122672500Y-80210000D02*
X122662500Y-80200000D01*
X122670496Y-78857996D02*
X122662500Y-78850000D01*
X122670496Y-80208633D02*
X122670496Y-78857996D01*
X122662500Y-82500000D02*
X124350000Y-82500000D01*
X122662500Y-80200000D02*
X122662500Y-82500000D01*
X122670496Y-80208633D02*
X122671863Y-80210000D01*
D30*
%TO.N,/N_In*%
X136650000Y-68750000D02*
X137600000Y-67800000D01*
D31*
X137500000Y-65600000D02*
X137500000Y-69700000D01*
X137500000Y-69700000D02*
X137540000Y-69740000D01*
D30*
X137600000Y-67800000D02*
X137600000Y-65600000D01*
X128800000Y-68750000D02*
X136650000Y-68750000D01*
X125600000Y-65550000D02*
X128800000Y-68750000D01*
D31*
X137540000Y-69740000D02*
X137540000Y-73350000D01*
%TO.N,/L_Limiter*%
X151500000Y-65600000D02*
X151500000Y-69100000D01*
X152700000Y-69600000D02*
X151000000Y-69600000D01*
X151000000Y-69600000D02*
X146000000Y-69600000D01*
X151500000Y-69100000D02*
X151000000Y-69600000D01*
D34*
%TO.N,/Sig_In*%
X126400000Y-76890000D02*
X126110000Y-76600000D01*
X124400000Y-87500000D02*
X126400000Y-85500000D01*
X126400000Y-85500000D02*
X126400000Y-76890000D01*
X124350000Y-87500000D02*
X124400000Y-87500000D01*
D35*
%TO.N,/N_Triac*%
X138000000Y-85000000D02*
X132000000Y-85000000D01*
D31*
X138700000Y-86200000D02*
X135000000Y-82500000D01*
D35*
X136000000Y-81500000D02*
X136000000Y-83500000D01*
X136000000Y-83500000D02*
X134000000Y-83500000D01*
D34*
X141000000Y-84000000D02*
X141000000Y-78000000D01*
D35*
X132000000Y-85000000D02*
X132000000Y-80000000D01*
X134000000Y-81500000D02*
X136000000Y-81500000D01*
D31*
X146000000Y-86200000D02*
X138700000Y-86200000D01*
D35*
X138000000Y-80000000D02*
X138000000Y-85000000D01*
X134000000Y-83500000D02*
X134000000Y-81500000D01*
X129000000Y-87000000D02*
X140750000Y-87000000D01*
D31*
X152700000Y-86200000D02*
X146000000Y-86200000D01*
D35*
X135000000Y-78000000D02*
X135000000Y-82500000D01*
X129000000Y-78000000D02*
X129000000Y-87000000D01*
X141000000Y-78000000D02*
X129000000Y-78000000D01*
X132000000Y-80000000D02*
X138000000Y-80000000D01*
D33*
%TO.N,/V+*%
X125600000Y-104475000D02*
X125600000Y-106375000D01*
X124700000Y-105375000D02*
X124700000Y-110000000D01*
X127935448Y-113300000D02*
X127517724Y-113717724D01*
X127517724Y-113717724D02*
X126168755Y-115066693D01*
X125600000Y-106375000D02*
X125625000Y-106400000D01*
X125625000Y-106400000D02*
X125625000Y-108700000D01*
X124700000Y-110000000D02*
X126200000Y-111500000D01*
X126200000Y-112400000D02*
X127517724Y-113717724D01*
X125625000Y-108700000D02*
X125625000Y-109600000D01*
X125625000Y-109600000D02*
X127025000Y-111000000D01*
X128475000Y-113300000D02*
X127935448Y-113300000D01*
X127025000Y-111850000D02*
X128475000Y-113300000D01*
X125600000Y-104475000D02*
X124700000Y-105375000D01*
X126200000Y-111500000D02*
X126200000Y-112400000D01*
X127025000Y-111000000D02*
X127025000Y-111850000D01*
%TO.N,/V-*%
X155375000Y-99800000D02*
X155375000Y-103500000D01*
X150766693Y-93533307D02*
X151831245Y-93533307D01*
X155375000Y-99800000D02*
X155375000Y-97077062D01*
D32*
X149075000Y-95800000D02*
X149075000Y-95225000D01*
D33*
X155375000Y-97077062D02*
X151831245Y-93533307D01*
X155375000Y-103500000D02*
X155375000Y-105800000D01*
X155375000Y-108100000D02*
X155375000Y-105800000D01*
D32*
X149075000Y-95225000D02*
X150766693Y-93533307D01*
D34*
%TO.N,/Net-(Q1-B)*%
X125676000Y-77376000D02*
X125676000Y-78814000D01*
X122712500Y-76900000D02*
X122662500Y-76950000D01*
X125090000Y-76600000D02*
X125090000Y-76790000D01*
X123900000Y-76900000D02*
X122712500Y-76900000D01*
X124790000Y-76900000D02*
X125090000Y-76600000D01*
X123900000Y-76900000D02*
X124790000Y-76900000D01*
X125090000Y-76790000D02*
X125676000Y-77376000D01*
%TO.N,/Net-Q1-C*%
X121850341Y-75719609D02*
X121507450Y-76062500D01*
X121991612Y-77900000D02*
X124537500Y-77900000D01*
X121500000Y-76062500D02*
X122762500Y-74800000D01*
X121500000Y-77408388D02*
X121991612Y-77900000D01*
X121507450Y-76062500D02*
X121500000Y-76062500D01*
X121500000Y-76062500D02*
X121500000Y-77408388D01*
D36*
%TO.N,/Net-(Q2-G)*%
X132230000Y-74800000D02*
X132460000Y-74570000D01*
X125687500Y-74800000D02*
X126500000Y-74800000D01*
X132460000Y-74570000D02*
X132460000Y-73350000D01*
X126500000Y-74800000D02*
X132230000Y-74800000D01*
%TD*%
%TA.AperFunction,Conductor*%
%TO.N,/N_Triac*%
G36*
X143894040Y-60519407D02*
G01*
X143930004Y-60568907D01*
X143930004Y-60630093D01*
X143925048Y-60642445D01*
X143910016Y-60673661D01*
X143908596Y-60676610D01*
X143804711Y-60973498D01*
X143734718Y-61280158D01*
X143699500Y-61592727D01*
X143699500Y-65607272D01*
X143734718Y-65919841D01*
X143804711Y-66226501D01*
X143908597Y-66523392D01*
X143908598Y-66523395D01*
X143918964Y-66544920D01*
X143927177Y-66605552D01*
X143898183Y-66659431D01*
X143866485Y-66679515D01*
X143866505Y-66679557D01*
X143866182Y-66679707D01*
X143865255Y-66680295D01*
X143863371Y-66681018D01*
X143603472Y-66802212D01*
X143603463Y-66802216D01*
X143362974Y-66958392D01*
X143362958Y-66958404D01*
X143146544Y-67146530D01*
X143146530Y-67146544D01*
X142958404Y-67362958D01*
X142958392Y-67362974D01*
X142802216Y-67603463D01*
X142802212Y-67603472D01*
X142681021Y-67863363D01*
X142597177Y-68137605D01*
X142597175Y-68137613D01*
X142552316Y-68420842D01*
X142552315Y-68420856D01*
X142549500Y-68485330D01*
X142549500Y-70714669D01*
X142552315Y-70779143D01*
X142552316Y-70779157D01*
X142597175Y-71062386D01*
X142597177Y-71062394D01*
X142681021Y-71336636D01*
X142802212Y-71596527D01*
X142802216Y-71596536D01*
X142958392Y-71837025D01*
X142958395Y-71837030D01*
X142958399Y-71837035D01*
X143146537Y-72053463D01*
X143362965Y-72241601D01*
X143362972Y-72241605D01*
X143362974Y-72241607D01*
X143603463Y-72397783D01*
X143603465Y-72397784D01*
X143603470Y-72397787D01*
X143717297Y-72450865D01*
X143863363Y-72518978D01*
X143863370Y-72518980D01*
X143863372Y-72518981D01*
X144137612Y-72602824D01*
X144420851Y-72647685D01*
X144485324Y-72650500D01*
X144485330Y-72650500D01*
X147514670Y-72650500D01*
X147514676Y-72650500D01*
X147579149Y-72647685D01*
X147862388Y-72602824D01*
X148136628Y-72518981D01*
X148370822Y-72409775D01*
X148412661Y-72400500D01*
X150287339Y-72400500D01*
X150329178Y-72409775D01*
X150563372Y-72518981D01*
X150837612Y-72602824D01*
X151120851Y-72647685D01*
X151185324Y-72650500D01*
X151185330Y-72650500D01*
X154214670Y-72650500D01*
X154214676Y-72650500D01*
X154279149Y-72647685D01*
X154562388Y-72602824D01*
X154836628Y-72518981D01*
X154836631Y-72518979D01*
X154836636Y-72518978D01*
X154925788Y-72477405D01*
X155096530Y-72397787D01*
X155337035Y-72241601D01*
X155553463Y-72053463D01*
X155741601Y-71837035D01*
X155897787Y-71596530D01*
X155977405Y-71425788D01*
X156018978Y-71336636D01*
X156018979Y-71336631D01*
X156018981Y-71336628D01*
X156102824Y-71062388D01*
X156147685Y-70779149D01*
X156150500Y-70714676D01*
X156150500Y-68485324D01*
X156147685Y-68420851D01*
X156102824Y-68137612D01*
X156018981Y-67863372D01*
X156018980Y-67863370D01*
X156018978Y-67863363D01*
X155950865Y-67717297D01*
X155897787Y-67603470D01*
X155897784Y-67603465D01*
X155897783Y-67603463D01*
X155741607Y-67362974D01*
X155741605Y-67362972D01*
X155741601Y-67362965D01*
X155553463Y-67146537D01*
X155553455Y-67146530D01*
X155337041Y-66958404D01*
X155337039Y-66958402D01*
X155337035Y-66958399D01*
X155337030Y-66958395D01*
X155337025Y-66958392D01*
X155096536Y-66802216D01*
X155096531Y-66802214D01*
X155096530Y-66802213D01*
X155047838Y-66779507D01*
X154836636Y-66681021D01*
X154562394Y-66597177D01*
X154562388Y-66597176D01*
X154384012Y-66568923D01*
X154329496Y-66541145D01*
X154301719Y-66486628D01*
X154300500Y-66471142D01*
X154300500Y-61592727D01*
X154265282Y-61280160D01*
X154195289Y-60973500D01*
X154091402Y-60676606D01*
X154074954Y-60642452D01*
X154066742Y-60581824D01*
X154095735Y-60527944D01*
X154150861Y-60501396D01*
X154164151Y-60500500D01*
X157400500Y-60500500D01*
X157458691Y-60519407D01*
X157494655Y-60568907D01*
X157499500Y-60599500D01*
X157499500Y-88845500D01*
X157480593Y-88903691D01*
X157431093Y-88939655D01*
X157400500Y-88944500D01*
X151908139Y-88944500D01*
X151849948Y-88925593D01*
X151839903Y-88917227D01*
X151768570Y-88849366D01*
X151499929Y-88645878D01*
X151210194Y-88473748D01*
X151210191Y-88473746D01*
X151210185Y-88473743D01*
X150903006Y-88335139D01*
X150656207Y-88255630D01*
X150582235Y-88231799D01*
X150582232Y-88231798D01*
X150582231Y-88231798D01*
X150582223Y-88231796D01*
X150251906Y-88165021D01*
X149916181Y-88135649D01*
X149579290Y-88144051D01*
X149579281Y-88144051D01*
X149579278Y-88144052D01*
X149470966Y-88158998D01*
X149245434Y-88190120D01*
X148918836Y-88273283D01*
X148603626Y-88392480D01*
X148303732Y-88546227D01*
X148303729Y-88546229D01*
X148022930Y-88732590D01*
X148022926Y-88732593D01*
X147797989Y-88921338D01*
X147741259Y-88944259D01*
X147734353Y-88944500D01*
X146415430Y-88944500D01*
X146357239Y-88925593D01*
X146321986Y-88878198D01*
X146272112Y-88735667D01*
X146258941Y-88698026D01*
X146136347Y-88466066D01*
X146082040Y-88392483D01*
X145980554Y-88254974D01*
X145980552Y-88254972D01*
X145980550Y-88254969D01*
X145795031Y-88069450D01*
X145795027Y-88069447D01*
X145795025Y-88069445D01*
X145604262Y-87928655D01*
X145568669Y-87878887D01*
X145569127Y-87817704D01*
X145605460Y-87768474D01*
X145663050Y-87750000D01*
X145899999Y-87750000D01*
X145900000Y-87749999D01*
X145900000Y-86300001D01*
X146100000Y-86300001D01*
X146100000Y-87749999D01*
X146100001Y-87750000D01*
X147443058Y-87750000D01*
X147443064Y-87749999D01*
X147531443Y-87739386D01*
X147672095Y-87683919D01*
X147792564Y-87592564D01*
X147883919Y-87472095D01*
X147939386Y-87331443D01*
X147949999Y-87243064D01*
X147950000Y-87243058D01*
X147950000Y-86300001D01*
X150750000Y-86300001D01*
X150750000Y-87243064D01*
X150760613Y-87331443D01*
X150816080Y-87472095D01*
X150907435Y-87592564D01*
X151027904Y-87683919D01*
X151168556Y-87739386D01*
X151256935Y-87749999D01*
X151256942Y-87750000D01*
X152599999Y-87750000D01*
X152600000Y-87749999D01*
X152600000Y-86300001D01*
X152800000Y-86300001D01*
X152800000Y-87749999D01*
X152800001Y-87750000D01*
X154143058Y-87750000D01*
X154143064Y-87749999D01*
X154231443Y-87739386D01*
X154372095Y-87683919D01*
X154492564Y-87592564D01*
X154583919Y-87472095D01*
X154639386Y-87331443D01*
X154649999Y-87243064D01*
X154650000Y-87243058D01*
X154650000Y-86300001D01*
X154649999Y-86300000D01*
X152800001Y-86300000D01*
X152800000Y-86300001D01*
X152600000Y-86300001D01*
X152599999Y-86300000D01*
X150750001Y-86300000D01*
X150750000Y-86300001D01*
X147950000Y-86300001D01*
X147949999Y-86300000D01*
X146100001Y-86300000D01*
X146100000Y-86300001D01*
X145900000Y-86300001D01*
X145899999Y-86300000D01*
X144050001Y-86300000D01*
X144050000Y-86300001D01*
X144050000Y-87243064D01*
X144060614Y-87331450D01*
X144062169Y-87337599D01*
X144059910Y-87338169D01*
X144063045Y-87389162D01*
X144030186Y-87440775D01*
X143973265Y-87463217D01*
X143934494Y-87457848D01*
X143893314Y-87443438D01*
X143619507Y-87380944D01*
X143340426Y-87349500D01*
X143340425Y-87349500D01*
X142639965Y-87349500D01*
X142602080Y-87341964D01*
X142569043Y-87328280D01*
X142479992Y-87291393D01*
X142324277Y-87249670D01*
X142252014Y-87230307D01*
X142252011Y-87230306D01*
X142252009Y-87230306D01*
X142018012Y-87199500D01*
X142018011Y-87199500D01*
X140786683Y-87199500D01*
X140728492Y-87180593D01*
X140692528Y-87131093D01*
X140691086Y-87088040D01*
X140688629Y-87087745D01*
X140699999Y-86993062D01*
X140700000Y-86993056D01*
X140700000Y-86500001D01*
X140699999Y-86500000D01*
X129300001Y-86500000D01*
X129300000Y-86500001D01*
X129300000Y-86993062D01*
X129310614Y-87081444D01*
X129366080Y-87222094D01*
X129457432Y-87342561D01*
X129457438Y-87342567D01*
X129577905Y-87433919D01*
X129718555Y-87489385D01*
X129806937Y-87499999D01*
X129806944Y-87500000D01*
X132846462Y-87500000D01*
X132904653Y-87518907D01*
X132940617Y-87568407D01*
X132940617Y-87629593D01*
X132904653Y-87679093D01*
X132899142Y-87682819D01*
X132897393Y-87683919D01*
X132700751Y-87807477D01*
X132481171Y-87982587D01*
X132238102Y-88225655D01*
X132183586Y-88253432D01*
X132173655Y-88254495D01*
X132153451Y-88255630D01*
X132153449Y-88255630D01*
X131895665Y-88304406D01*
X131895660Y-88304407D01*
X131648031Y-88391056D01*
X131648023Y-88391060D01*
X131464555Y-88488027D01*
X131418295Y-88499500D01*
X130959573Y-88499500D01*
X130680492Y-88530944D01*
X130406680Y-88593440D01*
X130141593Y-88686198D01*
X130141590Y-88686199D01*
X129997113Y-88755776D01*
X129888569Y-88808047D01*
X129888556Y-88808054D01*
X129888555Y-88808055D01*
X129828962Y-88845500D01*
X129695554Y-88929326D01*
X129642883Y-88944500D01*
X126633685Y-88944500D01*
X126575494Y-88925593D01*
X126539530Y-88876093D01*
X126539530Y-88814907D01*
X126549859Y-88792829D01*
X126585776Y-88735667D01*
X126603903Y-88698026D01*
X126710068Y-88477572D01*
X126804682Y-88207182D01*
X126868426Y-87927898D01*
X126891036Y-87727219D01*
X126916340Y-87671513D01*
X126919388Y-87668323D01*
X127655771Y-86931941D01*
X127655776Y-86931938D01*
X127831938Y-86755776D01*
X127983599Y-86558127D01*
X128108164Y-86342373D01*
X128203502Y-86112207D01*
X128267982Y-85871565D01*
X128277693Y-85797805D01*
X128300501Y-85624565D01*
X128300501Y-85375435D01*
X128300501Y-85372356D01*
X128300500Y-85372339D01*
X128300500Y-85156935D01*
X144050000Y-85156935D01*
X144050000Y-86099999D01*
X144050001Y-86100000D01*
X145899999Y-86100000D01*
X145900000Y-86099999D01*
X145900000Y-84650001D01*
X146100000Y-84650001D01*
X146100000Y-86099999D01*
X146100001Y-86100000D01*
X147949999Y-86100000D01*
X147950000Y-86099999D01*
X147950000Y-85156941D01*
X147949999Y-85156935D01*
X150750000Y-85156935D01*
X150750000Y-86099999D01*
X150750001Y-86100000D01*
X152599999Y-86100000D01*
X152600000Y-86099999D01*
X152600000Y-84650001D01*
X152800000Y-84650001D01*
X152800000Y-86099999D01*
X152800001Y-86100000D01*
X154649999Y-86100000D01*
X154650000Y-86099999D01*
X154650000Y-85156941D01*
X154649999Y-85156935D01*
X154639386Y-85068556D01*
X154583919Y-84927904D01*
X154492564Y-84807435D01*
X154372095Y-84716080D01*
X154231443Y-84660613D01*
X154143064Y-84650000D01*
X152800001Y-84650000D01*
X152800000Y-84650001D01*
X152600000Y-84650001D01*
X152599999Y-84650000D01*
X151256935Y-84650000D01*
X151168556Y-84660613D01*
X151027904Y-84716080D01*
X150907435Y-84807435D01*
X150816080Y-84927904D01*
X150760613Y-85068556D01*
X150750000Y-85156935D01*
X147949999Y-85156935D01*
X147939386Y-85068556D01*
X147883919Y-84927904D01*
X147792564Y-84807435D01*
X147672095Y-84716080D01*
X147531443Y-84660613D01*
X147443064Y-84650000D01*
X146100001Y-84650000D01*
X146100000Y-84650001D01*
X145900000Y-84650001D01*
X145899999Y-84650000D01*
X144556935Y-84650000D01*
X144468556Y-84660613D01*
X144327904Y-84716080D01*
X144207435Y-84807435D01*
X144116080Y-84927904D01*
X144060613Y-85068556D01*
X144050000Y-85156935D01*
X128300500Y-85156935D01*
X128300500Y-78006937D01*
X129300000Y-78006937D01*
X129300000Y-78499999D01*
X129300001Y-78500000D01*
X130999999Y-78500000D01*
X131000000Y-78499999D01*
X131000000Y-77500001D01*
X139000000Y-77500001D01*
X139000000Y-78499999D01*
X139000001Y-78500000D01*
X140699999Y-78500000D01*
X140700000Y-78499999D01*
X140700000Y-78006943D01*
X140699999Y-78006937D01*
X140689385Y-77918555D01*
X140633919Y-77777905D01*
X140542567Y-77657438D01*
X140542561Y-77657432D01*
X140422094Y-77566080D01*
X140281444Y-77510614D01*
X140193062Y-77500000D01*
X139000001Y-77500000D01*
X139000000Y-77500001D01*
X131000000Y-77500001D01*
X130999999Y-77500000D01*
X129806937Y-77500000D01*
X129718555Y-77510614D01*
X129577905Y-77566080D01*
X129457438Y-77657432D01*
X129457432Y-77657438D01*
X129366080Y-77777905D01*
X129310614Y-77918555D01*
X129300000Y-78006937D01*
X128300500Y-78006937D01*
X128300500Y-77018091D01*
X128300500Y-77014571D01*
X128300501Y-77014565D01*
X128300501Y-76849499D01*
X128305137Y-76835228D01*
X128319408Y-76791309D01*
X128368908Y-76755345D01*
X128399501Y-76750500D01*
X130571916Y-76750500D01*
X130630107Y-76769407D01*
X130646632Y-76784550D01*
X130690686Y-76835228D01*
X130706537Y-76853463D01*
X130922965Y-77041601D01*
X130922972Y-77041605D01*
X130922974Y-77041607D01*
X131163463Y-77197783D01*
X131163465Y-77197784D01*
X131163470Y-77197787D01*
X131277297Y-77250865D01*
X131423363Y-77318978D01*
X131423370Y-77318980D01*
X131423372Y-77318981D01*
X131697612Y-77402824D01*
X131980851Y-77447685D01*
X132045324Y-77450500D01*
X132045330Y-77450500D01*
X132874670Y-77450500D01*
X132874676Y-77450500D01*
X132939149Y-77447685D01*
X133222388Y-77402824D01*
X133496628Y-77318981D01*
X133496631Y-77318979D01*
X133496636Y-77318978D01*
X133585788Y-77277405D01*
X133756530Y-77197787D01*
X133997035Y-77041601D01*
X134213463Y-76853463D01*
X134401601Y-76637035D01*
X134557787Y-76396530D01*
X134637405Y-76225788D01*
X134678978Y-76136636D01*
X134678979Y-76136631D01*
X134678981Y-76136628D01*
X134762824Y-75862388D01*
X134807685Y-75579149D01*
X134810500Y-75514676D01*
X134810500Y-74570377D01*
X134829407Y-74512186D01*
X134878907Y-74476222D01*
X134940093Y-74476222D01*
X134989593Y-74512186D01*
X134998696Y-74527423D01*
X135085066Y-74706774D01*
X135085072Y-74706785D01*
X135085074Y-74706789D01*
X135174326Y-74848832D01*
X135189500Y-74901502D01*
X135189500Y-75514669D01*
X135192315Y-75579143D01*
X135192316Y-75579157D01*
X135237175Y-75862386D01*
X135237177Y-75862394D01*
X135321021Y-76136636D01*
X135442212Y-76396527D01*
X135442216Y-76396536D01*
X135598392Y-76637025D01*
X135598395Y-76637030D01*
X135598399Y-76637035D01*
X135598402Y-76637039D01*
X135598404Y-76637041D01*
X135783091Y-76849499D01*
X135786537Y-76853463D01*
X136002965Y-77041601D01*
X136002972Y-77041605D01*
X136002974Y-77041607D01*
X136243463Y-77197783D01*
X136243465Y-77197784D01*
X136243470Y-77197787D01*
X136357297Y-77250865D01*
X136503363Y-77318978D01*
X136503370Y-77318980D01*
X136503372Y-77318981D01*
X136777612Y-77402824D01*
X137060851Y-77447685D01*
X137125324Y-77450500D01*
X137125330Y-77450500D01*
X137954670Y-77450500D01*
X137954676Y-77450500D01*
X138019149Y-77447685D01*
X138302388Y-77402824D01*
X138576628Y-77318981D01*
X138576631Y-77318979D01*
X138576636Y-77318978D01*
X138665788Y-77277405D01*
X138836530Y-77197787D01*
X139077035Y-77041601D01*
X139293463Y-76853463D01*
X139481601Y-76637035D01*
X139637787Y-76396530D01*
X139717405Y-76225788D01*
X139758978Y-76136636D01*
X139758979Y-76136631D01*
X139758981Y-76136628D01*
X139842824Y-75862388D01*
X139887685Y-75579149D01*
X139890500Y-75514676D01*
X139890500Y-75312597D01*
X142849500Y-75312597D01*
X142849500Y-77487402D01*
X142855629Y-77596541D01*
X142904406Y-77854335D01*
X142904407Y-77854338D01*
X142908945Y-77867308D01*
X142910315Y-77928478D01*
X142908945Y-77932692D01*
X142904407Y-77945661D01*
X142904406Y-77945664D01*
X142855629Y-78203458D01*
X142849500Y-78312597D01*
X142849500Y-80487402D01*
X142855629Y-80596541D01*
X142904406Y-80854334D01*
X142904407Y-80854339D01*
X142991056Y-81101968D01*
X142991060Y-81101976D01*
X143113654Y-81333933D01*
X143113658Y-81333939D01*
X143269445Y-81545025D01*
X143269447Y-81545027D01*
X143269450Y-81545031D01*
X143454969Y-81730550D01*
X143634644Y-81863154D01*
X143669298Y-81910110D01*
X143669300Y-81910113D01*
X143686199Y-81958410D01*
X143808047Y-82211430D01*
X143808051Y-82211437D01*
X143808055Y-82211445D01*
X143957477Y-82449248D01*
X144132584Y-82668825D01*
X144331175Y-82867416D01*
X144550752Y-83042523D01*
X144788555Y-83191945D01*
X144788566Y-83191950D01*
X144788569Y-83191952D01*
X144820195Y-83207182D01*
X145041592Y-83313801D01*
X145306682Y-83406560D01*
X145580491Y-83469055D01*
X145859575Y-83500500D01*
X145859576Y-83500500D01*
X146140424Y-83500500D01*
X146140425Y-83500500D01*
X146419509Y-83469055D01*
X146693318Y-83406560D01*
X146958408Y-83313801D01*
X147211445Y-83191945D01*
X147449248Y-83042523D01*
X147668825Y-82867416D01*
X147867416Y-82668825D01*
X148042523Y-82449248D01*
X148191945Y-82211445D01*
X148313801Y-81958408D01*
X148330700Y-81910111D01*
X148365357Y-81863153D01*
X148460659Y-81792818D01*
X148545031Y-81730550D01*
X148730550Y-81545031D01*
X148886346Y-81333933D01*
X149008941Y-81101974D01*
X149095594Y-80854333D01*
X149144370Y-80596543D01*
X149150500Y-80487392D01*
X149150500Y-78312608D01*
X149144370Y-78203457D01*
X149095594Y-77945667D01*
X149091057Y-77932701D01*
X149089682Y-77871531D01*
X149091057Y-77867299D01*
X149095592Y-77854338D01*
X149095594Y-77854333D01*
X149144370Y-77596543D01*
X149150500Y-77487392D01*
X149150500Y-75312608D01*
X149150499Y-75312597D01*
X149549500Y-75312597D01*
X149549500Y-77487402D01*
X149555629Y-77596541D01*
X149604406Y-77854335D01*
X149604407Y-77854338D01*
X149608945Y-77867308D01*
X149610315Y-77928478D01*
X149608945Y-77932692D01*
X149604407Y-77945661D01*
X149604406Y-77945664D01*
X149555629Y-78203458D01*
X149549500Y-78312597D01*
X149549500Y-80487402D01*
X149555629Y-80596541D01*
X149604406Y-80854334D01*
X149604407Y-80854339D01*
X149691056Y-81101968D01*
X149691060Y-81101976D01*
X149813654Y-81333933D01*
X149813658Y-81333939D01*
X149969445Y-81545025D01*
X149969447Y-81545027D01*
X149969450Y-81545031D01*
X150154969Y-81730550D01*
X150334644Y-81863154D01*
X150369298Y-81910110D01*
X150369300Y-81910113D01*
X150386199Y-81958410D01*
X150508047Y-82211430D01*
X150508051Y-82211437D01*
X150508055Y-82211445D01*
X150657477Y-82449248D01*
X150832584Y-82668825D01*
X151031175Y-82867416D01*
X151250752Y-83042523D01*
X151488555Y-83191945D01*
X151488566Y-83191950D01*
X151488569Y-83191952D01*
X151520195Y-83207182D01*
X151741592Y-83313801D01*
X152006682Y-83406560D01*
X152280491Y-83469055D01*
X152559575Y-83500500D01*
X152559576Y-83500500D01*
X152840424Y-83500500D01*
X152840425Y-83500500D01*
X153119509Y-83469055D01*
X153393318Y-83406560D01*
X153658408Y-83313801D01*
X153911445Y-83191945D01*
X154149248Y-83042523D01*
X154368825Y-82867416D01*
X154567416Y-82668825D01*
X154742523Y-82449248D01*
X154891945Y-82211445D01*
X155013801Y-81958408D01*
X155030700Y-81910111D01*
X155065357Y-81863153D01*
X155160659Y-81792818D01*
X155245031Y-81730550D01*
X155430550Y-81545031D01*
X155586346Y-81333933D01*
X155708941Y-81101974D01*
X155795594Y-80854333D01*
X155844370Y-80596543D01*
X155850500Y-80487392D01*
X155850500Y-78312608D01*
X155844370Y-78203457D01*
X155795594Y-77945667D01*
X155791057Y-77932701D01*
X155789682Y-77871531D01*
X155791057Y-77867299D01*
X155795592Y-77854338D01*
X155795594Y-77854333D01*
X155844370Y-77596543D01*
X155850500Y-77487392D01*
X155850500Y-75312608D01*
X155844370Y-75203457D01*
X155795594Y-74945667D01*
X155770160Y-74872981D01*
X155708943Y-74698031D01*
X155708939Y-74698023D01*
X155586346Y-74466067D01*
X155430550Y-74254969D01*
X155245031Y-74069450D01*
X155245027Y-74069447D01*
X155245025Y-74069445D01*
X155033939Y-73913658D01*
X155033933Y-73913654D01*
X154801976Y-73791060D01*
X154801968Y-73791056D01*
X154554339Y-73704407D01*
X154554334Y-73704406D01*
X154296541Y-73655629D01*
X154187402Y-73649500D01*
X154187392Y-73649500D01*
X151212608Y-73649500D01*
X151212597Y-73649500D01*
X151103458Y-73655629D01*
X150845665Y-73704406D01*
X150845660Y-73704407D01*
X150598031Y-73791056D01*
X150598023Y-73791060D01*
X150366066Y-73913654D01*
X150366060Y-73913658D01*
X150154974Y-74069445D01*
X149969445Y-74254974D01*
X149813658Y-74466060D01*
X149813654Y-74466066D01*
X149691060Y-74698023D01*
X149691056Y-74698031D01*
X149604407Y-74945660D01*
X149604406Y-74945665D01*
X149555629Y-75203458D01*
X149549500Y-75312597D01*
X149150499Y-75312597D01*
X149144370Y-75203457D01*
X149095594Y-74945667D01*
X149070160Y-74872981D01*
X149008943Y-74698031D01*
X149008939Y-74698023D01*
X148886346Y-74466067D01*
X148730550Y-74254969D01*
X148545031Y-74069450D01*
X148545027Y-74069447D01*
X148545025Y-74069445D01*
X148333939Y-73913658D01*
X148333933Y-73913654D01*
X148101976Y-73791060D01*
X148101968Y-73791056D01*
X147854339Y-73704407D01*
X147854334Y-73704406D01*
X147596541Y-73655629D01*
X147487402Y-73649500D01*
X147487392Y-73649500D01*
X144512608Y-73649500D01*
X144512597Y-73649500D01*
X144403458Y-73655629D01*
X144145665Y-73704406D01*
X144145660Y-73704407D01*
X143898031Y-73791056D01*
X143898023Y-73791060D01*
X143666066Y-73913654D01*
X143666060Y-73913658D01*
X143454974Y-74069445D01*
X143269445Y-74254974D01*
X143113658Y-74466060D01*
X143113654Y-74466066D01*
X142991060Y-74698023D01*
X142991056Y-74698031D01*
X142904407Y-74945660D01*
X142904406Y-74945665D01*
X142855629Y-75203458D01*
X142849500Y-75312597D01*
X139890500Y-75312597D01*
X139890500Y-74901502D01*
X139905673Y-74848832D01*
X139994926Y-74706789D01*
X140131402Y-74423394D01*
X140235289Y-74126500D01*
X140305282Y-73819840D01*
X140340500Y-73507273D01*
X140340500Y-69582727D01*
X140324726Y-69442727D01*
X140305283Y-69270160D01*
X140301846Y-69255103D01*
X140301228Y-69250031D01*
X140301622Y-69248010D01*
X140300500Y-69238049D01*
X140300500Y-61592727D01*
X140265282Y-61280160D01*
X140195289Y-60973500D01*
X140091402Y-60676606D01*
X140074954Y-60642452D01*
X140066742Y-60581824D01*
X140095735Y-60527944D01*
X140150861Y-60501396D01*
X140164151Y-60500500D01*
X143835849Y-60500500D01*
X143894040Y-60519407D01*
G37*
%TD.AperFunction*%
%TD*%
%TA.AperFunction,Conductor*%
%TO.N,/N_In*%
G36*
X126017183Y-64518907D02*
G01*
X126028996Y-64528996D01*
X128500000Y-67000000D01*
X128500001Y-67000000D01*
X130111761Y-67000000D01*
X130169952Y-67018907D01*
X130195586Y-67046328D01*
X130212421Y-67073120D01*
X130212423Y-67073123D01*
X130408539Y-67319044D01*
X130630956Y-67541461D01*
X130876877Y-67737577D01*
X131143211Y-67904926D01*
X131143222Y-67904931D01*
X131143225Y-67904933D01*
X131227744Y-67945635D01*
X131426606Y-68041402D01*
X131723500Y-68145289D01*
X132030160Y-68215282D01*
X132342727Y-68250500D01*
X132342728Y-68250500D01*
X132657272Y-68250500D01*
X132657273Y-68250500D01*
X132969840Y-68215282D01*
X133276500Y-68145289D01*
X133573394Y-68041402D01*
X133856789Y-67904926D01*
X134123123Y-67737577D01*
X134369044Y-67541461D01*
X134591461Y-67319044D01*
X134787577Y-67073123D01*
X134797890Y-67056708D01*
X134804414Y-67046328D01*
X134851383Y-67007116D01*
X134888239Y-67000000D01*
X135749999Y-67000000D01*
X135750000Y-67000000D01*
X136580998Y-66169001D01*
X136635513Y-66141226D01*
X136695945Y-66150797D01*
X136739210Y-66194062D01*
X136750000Y-66239007D01*
X136750000Y-70010992D01*
X136731093Y-70069183D01*
X136681593Y-70105147D01*
X136620407Y-70105147D01*
X136580996Y-70080996D01*
X136510992Y-70010992D01*
X135900000Y-69400000D01*
X135899999Y-69400000D01*
X133559282Y-69400000D01*
X133517443Y-69390725D01*
X133496630Y-69381019D01*
X133222394Y-69297177D01*
X133222386Y-69297175D01*
X132939157Y-69252316D01*
X132939153Y-69252315D01*
X132939149Y-69252315D01*
X132874676Y-69249500D01*
X132045324Y-69249500D01*
X131980851Y-69252315D01*
X131980846Y-69252315D01*
X131980842Y-69252316D01*
X131697613Y-69297175D01*
X131697605Y-69297177D01*
X131423369Y-69381019D01*
X131402557Y-69390725D01*
X131360718Y-69400000D01*
X131175704Y-69400000D01*
X131124928Y-69385987D01*
X130905026Y-69254604D01*
X130905020Y-69254601D01*
X130729699Y-69182749D01*
X130655331Y-69152271D01*
X130655328Y-69152270D01*
X130597077Y-69133343D01*
X130571418Y-69125217D01*
X130571392Y-69125210D01*
X130308321Y-69065167D01*
X130308312Y-69065165D01*
X130039229Y-69045000D01*
X130039221Y-69045000D01*
X128787156Y-69045000D01*
X128774234Y-69044153D01*
X128767110Y-69043215D01*
X128704404Y-69034959D01*
X128695667Y-69033407D01*
X128687235Y-69031516D01*
X128687238Y-69031516D01*
X128644012Y-69026974D01*
X128644012Y-69026973D01*
X128642682Y-69026833D01*
X128624999Y-69024506D01*
X128624937Y-69024969D01*
X128585233Y-69020798D01*
X128418861Y-69003316D01*
X128373389Y-69001956D01*
X128373383Y-69001956D01*
X128373380Y-69001956D01*
X128348884Y-69002414D01*
X128197950Y-69005238D01*
X127980418Y-69036364D01*
X127920136Y-69025889D01*
X127897456Y-69009413D01*
X127893153Y-69005238D01*
X126527296Y-67679950D01*
X126500610Y-67634523D01*
X126500500Y-67634112D01*
X126500500Y-67634108D01*
X126466392Y-67506814D01*
X126440018Y-67461133D01*
X126400503Y-67392690D01*
X126400501Y-67392688D01*
X126400500Y-67392686D01*
X126307314Y-67299500D01*
X126307311Y-67299498D01*
X126307309Y-67299496D01*
X126193189Y-67233609D01*
X126193191Y-67233609D01*
X126065889Y-67199499D01*
X126059458Y-67198653D01*
X126059876Y-67195472D01*
X126014082Y-67180593D01*
X126003333Y-67171551D01*
X125826530Y-67000000D01*
X123425257Y-64670051D01*
X123396660Y-64615959D01*
X123405320Y-64555390D01*
X123447927Y-64511478D01*
X123494197Y-64500000D01*
X125958992Y-64500000D01*
X126017183Y-64518907D01*
G37*
%TD.AperFunction*%
%TD*%
%TA.AperFunction,Conductor*%
%TO.N,/V_Case*%
G36*
X129743602Y-89718907D02*
G01*
X129779566Y-89768407D01*
X129779566Y-89829593D01*
X129755414Y-89869004D01*
X129053912Y-90570504D01*
X128999396Y-90598281D01*
X128983910Y-90599500D01*
X128791967Y-90599500D01*
X128685491Y-90608966D01*
X128672582Y-90610114D01*
X128672581Y-90610114D01*
X128672576Y-90610115D01*
X128476953Y-90666090D01*
X128296595Y-90760300D01*
X128214516Y-90827227D01*
X128157469Y-90849346D01*
X128151954Y-90849500D01*
X127324052Y-90849500D01*
X127217326Y-90863551D01*
X127096547Y-90879451D01*
X127047518Y-90892588D01*
X126913568Y-90928480D01*
X126913566Y-90928480D01*
X126874899Y-90938842D01*
X126662903Y-91026653D01*
X126464175Y-91141388D01*
X126412671Y-91180909D01*
X126373150Y-91211235D01*
X126282132Y-91281074D01*
X124181080Y-93382126D01*
X124135167Y-93441962D01*
X124135166Y-93441961D01*
X124041387Y-93564177D01*
X123927494Y-93761443D01*
X123927495Y-93761444D01*
X123926663Y-93762885D01*
X123926657Y-93762897D01*
X123838841Y-93974901D01*
X123785670Y-94173344D01*
X123779451Y-94196552D01*
X123749500Y-94424052D01*
X123749500Y-101339734D01*
X123779452Y-101567238D01*
X123838841Y-101788885D01*
X123926653Y-102000883D01*
X123926656Y-102000888D01*
X124034079Y-102186951D01*
X124041394Y-102199620D01*
X124079667Y-102249498D01*
X124079670Y-102249500D01*
X124181080Y-102381661D01*
X124181082Y-102381663D01*
X124443341Y-102643921D01*
X124469402Y-102663918D01*
X124625387Y-102783610D01*
X124824112Y-102898344D01*
X124824113Y-102898344D01*
X124824116Y-102898346D01*
X124869989Y-102917347D01*
X125036113Y-102986158D01*
X125105962Y-103004874D01*
X125157276Y-103038197D01*
X125179203Y-103095318D01*
X125163368Y-103154419D01*
X125115818Y-103192924D01*
X125080339Y-103199500D01*
X124841967Y-103199500D01*
X124735491Y-103208966D01*
X124722582Y-103210114D01*
X124722581Y-103210114D01*
X124722576Y-103210115D01*
X124526953Y-103266090D01*
X124346595Y-103360300D01*
X124188894Y-103488888D01*
X124188888Y-103488894D01*
X124060300Y-103646595D01*
X123966090Y-103826952D01*
X123910114Y-104022579D01*
X123899500Y-104141966D01*
X123899500Y-104366018D01*
X123880593Y-104424209D01*
X123870504Y-104436021D01*
X123746174Y-104560351D01*
X123630474Y-104719597D01*
X123541116Y-104894973D01*
X123521604Y-104955026D01*
X123480289Y-105082178D01*
X123449500Y-105276579D01*
X123449500Y-110098420D01*
X123480290Y-110292823D01*
X123518569Y-110410635D01*
X123518569Y-110471820D01*
X123482605Y-110521320D01*
X123454184Y-110535645D01*
X123342623Y-110570820D01*
X123342619Y-110570822D01*
X123075268Y-110695490D01*
X123075266Y-110695491D01*
X122993120Y-110747823D01*
X122826447Y-110854006D01*
X122826444Y-110854008D01*
X122826440Y-110854011D01*
X122600455Y-111043634D01*
X122401148Y-111261141D01*
X122401146Y-111261142D01*
X122231936Y-111502800D01*
X122231931Y-111502807D01*
X122095717Y-111764471D01*
X122095716Y-111764475D01*
X121994813Y-112041702D01*
X121930965Y-112329705D01*
X121930962Y-112329725D01*
X121905252Y-112623589D01*
X121905252Y-112623604D01*
X121918119Y-112918339D01*
X121918120Y-112918340D01*
X121968629Y-113204788D01*
X121969349Y-113208868D01*
X122058060Y-113490224D01*
X122058062Y-113490228D01*
X122182730Y-113757579D01*
X122182731Y-113757581D01*
X122182735Y-113757588D01*
X122182737Y-113757591D01*
X122341246Y-114006401D01*
X122341250Y-114006406D01*
X122341251Y-114006407D01*
X126548295Y-119020170D01*
X126624229Y-119089750D01*
X126765803Y-119219478D01*
X127007462Y-119388690D01*
X127007467Y-119388692D01*
X127007469Y-119388694D01*
X127269133Y-119524908D01*
X127269135Y-119524908D01*
X127269140Y-119524911D01*
X127546359Y-119625811D01*
X127546360Y-119625811D01*
X127546365Y-119625813D01*
X127834367Y-119689661D01*
X127834373Y-119689661D01*
X127834378Y-119689663D01*
X127834383Y-119689663D01*
X127834387Y-119689664D01*
X127956248Y-119700325D01*
X128128266Y-119715375D01*
X128422997Y-119702507D01*
X128713525Y-119651278D01*
X128994883Y-119562567D01*
X129167442Y-119482100D01*
X129262241Y-119437895D01*
X129262243Y-119437894D01*
X129262244Y-119437892D01*
X129262253Y-119437889D01*
X129511063Y-119279380D01*
X129737056Y-119089750D01*
X129936362Y-118872245D01*
X130105574Y-118630587D01*
X130241795Y-118368908D01*
X130342695Y-118091689D01*
X130406547Y-117803670D01*
X130432258Y-117509782D01*
X130419391Y-117215052D01*
X130368162Y-116924523D01*
X130279451Y-116643165D01*
X130249976Y-116579957D01*
X130154779Y-116375806D01*
X130154778Y-116375804D01*
X130154775Y-116375799D01*
X130154773Y-116375795D01*
X129996264Y-116126985D01*
X129093814Y-115051488D01*
X129070894Y-114994759D01*
X129085696Y-114935391D01*
X129132567Y-114896062D01*
X129142403Y-114892677D01*
X129173049Y-114883909D01*
X129353407Y-114789698D01*
X129511109Y-114661109D01*
X129639698Y-114503407D01*
X129733909Y-114323049D01*
X129789886Y-114127418D01*
X129800500Y-114008037D01*
X129800499Y-113400001D01*
X130550000Y-113400001D01*
X130550000Y-113993064D01*
X130560613Y-114081443D01*
X130616080Y-114222095D01*
X130707435Y-114342564D01*
X130827904Y-114433919D01*
X130968556Y-114489386D01*
X131056935Y-114499999D01*
X131056942Y-114500000D01*
X131324999Y-114500000D01*
X131325000Y-114499999D01*
X131325000Y-113400001D01*
X131324999Y-113400000D01*
X130550001Y-113400000D01*
X130550000Y-113400001D01*
X129800499Y-113400001D01*
X129800499Y-113277548D01*
X129800499Y-112591967D01*
X129797616Y-112559536D01*
X129789886Y-112472582D01*
X129748011Y-112326234D01*
X129750181Y-112265088D01*
X129787877Y-112216894D01*
X129843191Y-112200000D01*
X129874999Y-112200000D01*
X129875000Y-112199999D01*
X129875000Y-111100001D01*
X130075000Y-111100001D01*
X130075000Y-112199999D01*
X130075001Y-112200000D01*
X130343058Y-112200000D01*
X130343064Y-112199999D01*
X130431446Y-112189385D01*
X130570096Y-112134709D01*
X130631166Y-112130950D01*
X130682782Y-112163805D01*
X130705228Y-112220724D01*
X130689931Y-112279967D01*
X130685299Y-112286625D01*
X130616080Y-112377902D01*
X130560613Y-112518556D01*
X130550000Y-112606935D01*
X130550000Y-113199999D01*
X130550001Y-113200000D01*
X131324999Y-113200000D01*
X131325000Y-113199999D01*
X131325000Y-112100001D01*
X131525000Y-112100001D01*
X131525000Y-113199999D01*
X131525001Y-113200000D01*
X132299999Y-113200000D01*
X132300000Y-113199999D01*
X132300000Y-112606941D01*
X132299999Y-112606935D01*
X132289386Y-112518556D01*
X132233919Y-112377904D01*
X132142564Y-112257435D01*
X132022095Y-112166080D01*
X131881443Y-112110613D01*
X131793064Y-112100000D01*
X131525001Y-112100000D01*
X131525000Y-112100001D01*
X131325000Y-112100001D01*
X131324999Y-112100000D01*
X131056935Y-112100000D01*
X130968555Y-112110614D01*
X130829902Y-112165291D01*
X130768832Y-112169049D01*
X130717217Y-112136193D01*
X130694771Y-112079274D01*
X130710068Y-112020032D01*
X130714701Y-112013373D01*
X130783918Y-111922097D01*
X130839386Y-111781443D01*
X130849999Y-111693064D01*
X130850000Y-111693058D01*
X130850000Y-111100001D01*
X130849999Y-111100000D01*
X130075001Y-111100000D01*
X130075000Y-111100001D01*
X129875000Y-111100001D01*
X129874999Y-111100000D01*
X129100001Y-111100000D01*
X129100000Y-111100001D01*
X129100000Y-111563888D01*
X129081093Y-111622079D01*
X129031593Y-111658043D01*
X128982424Y-111658935D01*
X128982046Y-111660974D01*
X128977421Y-111660115D01*
X128977418Y-111660114D01*
X128858037Y-111649500D01*
X128858033Y-111649500D01*
X128633982Y-111649500D01*
X128575791Y-111630593D01*
X128563978Y-111620504D01*
X128379495Y-111436021D01*
X128351718Y-111381504D01*
X128350499Y-111366017D01*
X128350499Y-110291967D01*
X128350499Y-110291964D01*
X128339886Y-110172582D01*
X128298011Y-110026234D01*
X128300181Y-109965088D01*
X128337877Y-109916894D01*
X128393191Y-109900000D01*
X128474999Y-109900000D01*
X128475000Y-109899999D01*
X128475000Y-108800001D01*
X128675000Y-108800001D01*
X128675000Y-109899999D01*
X128675001Y-109900000D01*
X128943058Y-109900000D01*
X128943064Y-109899999D01*
X129031445Y-109889385D01*
X129098763Y-109862838D01*
X129159833Y-109859079D01*
X129211449Y-109891933D01*
X129233896Y-109948852D01*
X129218600Y-110008095D01*
X129213967Y-110014754D01*
X129166080Y-110077902D01*
X129110613Y-110218556D01*
X129100000Y-110306935D01*
X129100000Y-110899999D01*
X129100001Y-110900000D01*
X129874999Y-110900000D01*
X129875000Y-110899999D01*
X129875000Y-109800001D01*
X130075000Y-109800001D01*
X130075000Y-110899999D01*
X130075001Y-110900000D01*
X130849999Y-110900000D01*
X130850000Y-110899999D01*
X130850000Y-110306941D01*
X130849999Y-110306935D01*
X130839386Y-110218556D01*
X130783919Y-110077904D01*
X130692564Y-109957435D01*
X130572095Y-109866080D01*
X130431443Y-109810613D01*
X130343064Y-109800000D01*
X130075001Y-109800000D01*
X130075000Y-109800001D01*
X129875000Y-109800001D01*
X129874999Y-109800000D01*
X129606935Y-109800000D01*
X129518555Y-109810614D01*
X129451234Y-109837162D01*
X129390165Y-109840920D01*
X129338549Y-109808065D01*
X129316103Y-109751145D01*
X129331400Y-109691903D01*
X129336033Y-109685244D01*
X129383918Y-109622097D01*
X129439386Y-109481443D01*
X129449999Y-109393064D01*
X129450000Y-109393058D01*
X129450000Y-108800001D01*
X129449999Y-108800000D01*
X128675001Y-108800000D01*
X128675000Y-108800001D01*
X128475000Y-108800001D01*
X128474999Y-108800000D01*
X127700001Y-108800000D01*
X127700000Y-108800001D01*
X127700000Y-109278195D01*
X127681093Y-109336386D01*
X127631593Y-109372350D01*
X127573766Y-109373375D01*
X127527421Y-109360114D01*
X127476254Y-109355565D01*
X127408037Y-109349500D01*
X127408033Y-109349500D01*
X127183982Y-109349500D01*
X127176384Y-109347031D01*
X127168495Y-109348281D01*
X127147839Y-109337756D01*
X127125791Y-109330593D01*
X127113978Y-109320504D01*
X126979495Y-109186021D01*
X126951718Y-109131504D01*
X126950499Y-109116017D01*
X126950499Y-107991967D01*
X126950499Y-107991964D01*
X126939886Y-107872582D01*
X126883909Y-107676951D01*
X126883907Y-107676947D01*
X126882560Y-107673573D01*
X126875500Y-107636857D01*
X126875500Y-107463141D01*
X126882565Y-107426413D01*
X126883904Y-107423057D01*
X126883909Y-107423049D01*
X126939886Y-107227418D01*
X126950500Y-107108037D01*
X126950499Y-106500001D01*
X127700000Y-106500001D01*
X127700000Y-107093064D01*
X127710613Y-107181443D01*
X127766080Y-107322095D01*
X127857435Y-107442564D01*
X127857437Y-107442566D01*
X127895086Y-107471117D01*
X127930027Y-107521344D01*
X127928773Y-107582517D01*
X127895086Y-107628883D01*
X127857437Y-107657433D01*
X127857435Y-107657435D01*
X127766080Y-107777904D01*
X127710613Y-107918556D01*
X127700000Y-108006935D01*
X127700000Y-108599999D01*
X127700001Y-108600000D01*
X128474999Y-108600000D01*
X128475000Y-108599999D01*
X128475000Y-106500001D01*
X128675000Y-106500001D01*
X128675000Y-108599999D01*
X128675001Y-108600000D01*
X129449999Y-108600000D01*
X129450000Y-108599999D01*
X129450000Y-108006941D01*
X129449999Y-108006935D01*
X129439386Y-107918556D01*
X129383919Y-107777904D01*
X129292564Y-107657435D01*
X129254914Y-107628884D01*
X129219972Y-107578657D01*
X129221226Y-107517485D01*
X129254914Y-107471116D01*
X129292564Y-107442564D01*
X129383919Y-107322095D01*
X129439386Y-107181443D01*
X129449999Y-107093064D01*
X129450000Y-107093058D01*
X129450000Y-106500001D01*
X129449999Y-106500000D01*
X128675001Y-106500000D01*
X128675000Y-106500001D01*
X128475000Y-106500001D01*
X128474999Y-106500000D01*
X127700001Y-106500000D01*
X127700000Y-106500001D01*
X126950499Y-106500001D01*
X126950499Y-106300000D01*
X126950499Y-105707853D01*
X126950499Y-105706935D01*
X127700000Y-105706935D01*
X127700000Y-106299999D01*
X127700001Y-106300000D01*
X128474999Y-106300000D01*
X128475000Y-106299999D01*
X128475000Y-105200001D01*
X128675000Y-105200001D01*
X128675000Y-106299999D01*
X128675001Y-106300000D01*
X129449999Y-106300000D01*
X129450000Y-106299999D01*
X129450000Y-105706941D01*
X129449999Y-105706935D01*
X129439386Y-105618556D01*
X129383919Y-105477904D01*
X129292564Y-105357435D01*
X129172095Y-105266080D01*
X129031443Y-105210613D01*
X128943064Y-105200000D01*
X128675001Y-105200000D01*
X128675000Y-105200001D01*
X128475000Y-105200001D01*
X128474999Y-105200000D01*
X128206935Y-105200000D01*
X128118556Y-105210613D01*
X127977904Y-105266080D01*
X127857435Y-105357435D01*
X127766080Y-105477904D01*
X127710613Y-105618556D01*
X127700000Y-105706935D01*
X126950499Y-105706935D01*
X126950499Y-105691964D01*
X126940054Y-105574480D01*
X126940022Y-105574062D01*
X126947059Y-105544800D01*
X126953789Y-105515463D01*
X126954240Y-105514941D01*
X126954329Y-105514573D01*
X126955207Y-105513823D01*
X126976153Y-105489610D01*
X127011109Y-105461109D01*
X127139698Y-105303407D01*
X127233909Y-105123049D01*
X127289886Y-104927418D01*
X127300500Y-104808037D01*
X127300499Y-104141964D01*
X127289886Y-104022582D01*
X127233909Y-103826951D01*
X127139698Y-103646593D01*
X127011109Y-103488891D01*
X126853407Y-103360302D01*
X126853405Y-103360301D01*
X126853404Y-103360300D01*
X126673047Y-103266090D01*
X126477420Y-103210114D01*
X126437624Y-103206576D01*
X126358037Y-103199500D01*
X126358033Y-103199500D01*
X126119661Y-103199500D01*
X126061470Y-103180593D01*
X126025506Y-103131093D01*
X126025506Y-103069907D01*
X126061470Y-103020407D01*
X126094037Y-103004873D01*
X126163886Y-102986158D01*
X126318698Y-102922032D01*
X126375884Y-102898346D01*
X126375885Y-102898344D01*
X126375888Y-102898344D01*
X126574612Y-102783610D01*
X126756661Y-102643919D01*
X126918919Y-102481661D01*
X127058610Y-102299612D01*
X127173344Y-102100888D01*
X127197139Y-102043441D01*
X127233909Y-101973049D01*
X127250915Y-101913612D01*
X127261158Y-101888886D01*
X127320548Y-101667239D01*
X127350499Y-101439733D01*
X127350499Y-101210266D01*
X127320548Y-100982761D01*
X127261158Y-100761113D01*
X127261156Y-100761107D01*
X127258037Y-100753577D01*
X127250500Y-100715689D01*
X127250500Y-95304876D01*
X127269407Y-95246685D01*
X127279496Y-95234872D01*
X127693513Y-94820855D01*
X128111103Y-94403264D01*
X128165618Y-94375489D01*
X128226050Y-94385060D01*
X128243666Y-94396543D01*
X128296590Y-94439696D01*
X128296591Y-94439696D01*
X128296593Y-94439698D01*
X128435489Y-94512251D01*
X128478312Y-94555951D01*
X128487270Y-94616477D01*
X128458942Y-94670709D01*
X128435490Y-94687747D01*
X128301948Y-94757505D01*
X128296593Y-94760302D01*
X128138894Y-94888888D01*
X128138888Y-94888894D01*
X128010300Y-95046595D01*
X127916090Y-95226952D01*
X127860114Y-95422579D01*
X127860114Y-95422582D01*
X127851156Y-95523344D01*
X127849500Y-95541966D01*
X127849500Y-95990689D01*
X127841965Y-96028572D01*
X127838843Y-96036108D01*
X127779452Y-96257761D01*
X127749500Y-96485265D01*
X127749500Y-96714734D01*
X127779452Y-96942238D01*
X127838842Y-97163889D01*
X127841964Y-97171424D01*
X127849500Y-97209310D01*
X127849500Y-97658032D01*
X127860114Y-97777416D01*
X127860115Y-97777423D01*
X127882400Y-97855304D01*
X127916091Y-97973049D01*
X128010302Y-98153407D01*
X128138891Y-98311109D01*
X128296593Y-98439698D01*
X128476951Y-98533909D01*
X128672582Y-98589886D01*
X128791963Y-98600500D01*
X130208036Y-98600499D01*
X130327418Y-98589886D01*
X130523049Y-98533909D01*
X130703407Y-98439698D01*
X130785484Y-98372772D01*
X130842531Y-98350654D01*
X130848046Y-98350500D01*
X131514732Y-98350500D01*
X131514734Y-98350500D01*
X131642023Y-98333741D01*
X131702183Y-98344891D01*
X131744301Y-98389273D01*
X131752287Y-98449935D01*
X131733487Y-98492161D01*
X131436074Y-98879757D01*
X131097770Y-99386064D01*
X131097761Y-99386078D01*
X130793294Y-99913432D01*
X130523980Y-100459546D01*
X130523975Y-100459557D01*
X130290945Y-101022141D01*
X130095211Y-101598752D01*
X129937603Y-102186951D01*
X129818807Y-102784183D01*
X129818806Y-102784189D01*
X129739325Y-103387908D01*
X129699500Y-103995532D01*
X129699500Y-104604467D01*
X129739325Y-105212091D01*
X129818806Y-105815810D01*
X129818807Y-105815816D01*
X129937603Y-106413048D01*
X130095211Y-107001247D01*
X130204125Y-107322095D01*
X130290944Y-107577856D01*
X130468674Y-108006935D01*
X130523975Y-108140442D01*
X130523980Y-108140453D01*
X130793294Y-108686567D01*
X131097761Y-109213921D01*
X131097770Y-109213935D01*
X131436074Y-109720242D01*
X131806744Y-110203309D01*
X131806754Y-110203321D01*
X131806765Y-110203335D01*
X131988562Y-110410635D01*
X132129040Y-110570820D01*
X132208263Y-110661156D01*
X132638844Y-111091737D01*
X133096665Y-111493235D01*
X133096679Y-111493246D01*
X133096690Y-111493255D01*
X133579757Y-111863925D01*
X134011194Y-112152203D01*
X134049073Y-112200253D01*
X134051475Y-112261391D01*
X134017482Y-112312265D01*
X133981815Y-112330145D01*
X133812604Y-112375485D01*
X133812591Y-112375489D01*
X133534050Y-112490863D01*
X133534045Y-112490866D01*
X133272943Y-112641614D01*
X133033748Y-112825154D01*
X132820549Y-113038353D01*
X132637009Y-113277548D01*
X132484736Y-113541292D01*
X132439267Y-113582233D01*
X132378417Y-113588629D01*
X132325429Y-113558036D01*
X132300542Y-113502140D01*
X132300000Y-113491792D01*
X132300000Y-113400001D01*
X132299999Y-113400000D01*
X131525001Y-113400000D01*
X131525000Y-113400001D01*
X131525000Y-114499999D01*
X131525001Y-114500000D01*
X131793058Y-114500000D01*
X131793064Y-114499999D01*
X131881443Y-114489386D01*
X132022097Y-114433918D01*
X132094674Y-114378882D01*
X132152465Y-114358786D01*
X132211031Y-114376497D01*
X132248002Y-114425249D01*
X132253494Y-114457765D01*
X132253494Y-114708849D01*
X132292847Y-115007762D01*
X132292847Y-115007767D01*
X132370880Y-115298988D01*
X132370884Y-115299001D01*
X132486258Y-115577542D01*
X132486261Y-115577547D01*
X132637009Y-115838649D01*
X132820549Y-116077844D01*
X133033748Y-116291043D01*
X133272943Y-116474583D01*
X133534045Y-116625331D01*
X133534050Y-116625334D01*
X133812591Y-116740708D01*
X133812604Y-116740712D01*
X134103827Y-116818745D01*
X134253604Y-116838463D01*
X134367150Y-115540624D01*
X134455003Y-115558099D01*
X134566386Y-115558099D01*
X134452651Y-116858098D01*
X134452652Y-116858099D01*
X134704243Y-116858099D01*
X134704244Y-116858098D01*
X135003157Y-116818745D01*
X135003162Y-116818745D01*
X135294383Y-116740712D01*
X135294396Y-116740708D01*
X135572937Y-116625334D01*
X135572942Y-116625331D01*
X135834044Y-116474583D01*
X136073239Y-116291043D01*
X136286438Y-116077844D01*
X136469978Y-115838649D01*
X136620726Y-115577547D01*
X136620729Y-115577542D01*
X136736103Y-115299001D01*
X136736107Y-115298988D01*
X136814140Y-115007767D01*
X136814140Y-115007762D01*
X136833858Y-114857987D01*
X135536019Y-114744440D01*
X135553494Y-114656590D01*
X135553494Y-114545204D01*
X136853493Y-114658940D01*
X136853494Y-114658940D01*
X136853494Y-114407350D01*
X136853493Y-114407348D01*
X136814140Y-114108435D01*
X136814140Y-114108430D01*
X136736107Y-113817209D01*
X136736103Y-113817196D01*
X136620729Y-113538655D01*
X136620726Y-113538650D01*
X136571123Y-113452735D01*
X136558401Y-113392887D01*
X136583288Y-113336991D01*
X136636276Y-113306398D01*
X136682478Y-113307607D01*
X136886946Y-113362395D01*
X137484179Y-113481192D01*
X138087903Y-113560674D01*
X138695533Y-113600500D01*
X139304467Y-113600500D01*
X139912097Y-113560674D01*
X140515821Y-113481192D01*
X141113054Y-113362395D01*
X141701239Y-113204791D01*
X142277856Y-113009056D01*
X142840438Y-112776027D01*
X143386574Y-112506702D01*
X143913926Y-112202236D01*
X144420236Y-111863930D01*
X144903335Y-111493235D01*
X145361156Y-111091737D01*
X145791737Y-110661156D01*
X146193235Y-110203335D01*
X146563930Y-109720236D01*
X146902236Y-109213926D01*
X147206702Y-108686574D01*
X147446654Y-108200001D01*
X151550000Y-108200001D01*
X151550000Y-108793064D01*
X151560613Y-108881443D01*
X151616080Y-109022095D01*
X151707435Y-109142564D01*
X151827904Y-109233919D01*
X151968556Y-109289386D01*
X152056935Y-109299999D01*
X152056942Y-109300000D01*
X152324999Y-109300000D01*
X152325000Y-109299999D01*
X152325000Y-108200001D01*
X152525000Y-108200001D01*
X152525000Y-109299999D01*
X152525001Y-109300000D01*
X152793058Y-109300000D01*
X152793064Y-109299999D01*
X152881443Y-109289386D01*
X153022095Y-109233919D01*
X153142564Y-109142564D01*
X153233919Y-109022095D01*
X153289386Y-108881443D01*
X153299999Y-108793064D01*
X153300000Y-108793058D01*
X153300000Y-108200001D01*
X153299999Y-108200000D01*
X152525001Y-108200000D01*
X152525000Y-108200001D01*
X152325000Y-108200001D01*
X152324999Y-108200000D01*
X151550001Y-108200000D01*
X151550000Y-108200001D01*
X147446654Y-108200001D01*
X147476027Y-108140438D01*
X147709056Y-107577856D01*
X147904791Y-107001239D01*
X148062395Y-106413054D01*
X148164448Y-105900001D01*
X151550000Y-105900001D01*
X151550000Y-106493064D01*
X151560613Y-106581443D01*
X151616080Y-106722095D01*
X151707435Y-106842564D01*
X151707437Y-106842566D01*
X151745086Y-106871117D01*
X151780027Y-106921344D01*
X151778773Y-106982517D01*
X151745086Y-107028883D01*
X151707437Y-107057433D01*
X151707435Y-107057435D01*
X151616080Y-107177904D01*
X151560613Y-107318556D01*
X151550000Y-107406935D01*
X151550000Y-107999999D01*
X151550001Y-108000000D01*
X152324999Y-108000000D01*
X152325000Y-107999999D01*
X152325000Y-105900001D01*
X152525000Y-105900001D01*
X152525000Y-107999999D01*
X152525001Y-108000000D01*
X153299999Y-108000000D01*
X153300000Y-107999999D01*
X153300000Y-107406941D01*
X153299999Y-107406935D01*
X153289386Y-107318556D01*
X153233919Y-107177904D01*
X153142564Y-107057435D01*
X153104914Y-107028884D01*
X153069972Y-106978657D01*
X153071226Y-106917485D01*
X153104914Y-106871116D01*
X153142564Y-106842564D01*
X153233919Y-106722095D01*
X153289386Y-106581443D01*
X153299999Y-106493064D01*
X153300000Y-106493058D01*
X153300000Y-105900001D01*
X153299999Y-105900000D01*
X152525001Y-105900000D01*
X152525000Y-105900001D01*
X152325000Y-105900001D01*
X152324999Y-105900000D01*
X151550001Y-105900000D01*
X151550000Y-105900001D01*
X148164448Y-105900001D01*
X148181192Y-105815821D01*
X148260674Y-105212097D01*
X148300500Y-104604467D01*
X148300500Y-103995533D01*
X148273258Y-103579909D01*
X148288319Y-103520609D01*
X148335361Y-103481485D01*
X148396415Y-103477483D01*
X148432313Y-103494895D01*
X148593831Y-103618831D01*
X148854933Y-103769579D01*
X148854938Y-103769582D01*
X149133479Y-103884956D01*
X149133492Y-103884960D01*
X149424715Y-103962993D01*
X149574492Y-103982711D01*
X149688038Y-102684872D01*
X149775891Y-102702347D01*
X149887274Y-102702347D01*
X149773539Y-104002346D01*
X149773540Y-104002347D01*
X150025131Y-104002347D01*
X150025132Y-104002346D01*
X150324045Y-103962993D01*
X150324050Y-103962993D01*
X150615271Y-103884960D01*
X150615284Y-103884956D01*
X150893825Y-103769582D01*
X150893830Y-103769579D01*
X151154932Y-103618831D01*
X151179472Y-103600001D01*
X151550000Y-103600001D01*
X151550000Y-104193064D01*
X151560613Y-104281443D01*
X151616080Y-104422095D01*
X151707435Y-104542564D01*
X151707437Y-104542566D01*
X151745086Y-104571117D01*
X151780027Y-104621344D01*
X151778773Y-104682517D01*
X151745086Y-104728883D01*
X151707437Y-104757433D01*
X151707435Y-104757435D01*
X151616080Y-104877904D01*
X151560613Y-105018556D01*
X151550000Y-105106935D01*
X151550000Y-105699999D01*
X151550001Y-105700000D01*
X152324999Y-105700000D01*
X152325000Y-105699999D01*
X152325000Y-103600001D01*
X152525000Y-103600001D01*
X152525000Y-105699999D01*
X152525001Y-105700000D01*
X153299999Y-105700000D01*
X153300000Y-105699999D01*
X153300000Y-105106941D01*
X153299999Y-105106935D01*
X153289386Y-105018556D01*
X153233919Y-104877904D01*
X153142564Y-104757435D01*
X153104914Y-104728884D01*
X153069972Y-104678657D01*
X153071226Y-104617485D01*
X153104914Y-104571116D01*
X153142564Y-104542564D01*
X153233919Y-104422095D01*
X153289386Y-104281443D01*
X153299999Y-104193064D01*
X153300000Y-104193058D01*
X153300000Y-103600001D01*
X153299999Y-103600000D01*
X152525001Y-103600000D01*
X152525000Y-103600001D01*
X152325000Y-103600001D01*
X152324999Y-103600000D01*
X151550001Y-103600000D01*
X151550000Y-103600001D01*
X151179472Y-103600001D01*
X151335274Y-103480451D01*
X151394127Y-103435291D01*
X151419706Y-103409713D01*
X151474223Y-103381936D01*
X151534655Y-103391507D01*
X151546345Y-103400000D01*
X152324999Y-103400000D01*
X152325000Y-103399999D01*
X152325000Y-102300001D01*
X152525000Y-102300001D01*
X152525000Y-103399999D01*
X152525001Y-103400000D01*
X153299999Y-103400000D01*
X153300000Y-103399999D01*
X153300000Y-102806941D01*
X153299999Y-102806935D01*
X153289386Y-102718556D01*
X153233919Y-102577904D01*
X153142564Y-102457435D01*
X153022095Y-102366080D01*
X152881443Y-102310613D01*
X152793064Y-102300000D01*
X152525001Y-102300000D01*
X152525000Y-102300001D01*
X152325000Y-102300001D01*
X152324999Y-102300000D01*
X152224395Y-102300000D01*
X152166204Y-102281093D01*
X152130240Y-102231593D01*
X152128769Y-102175376D01*
X152135026Y-102152025D01*
X152135028Y-102152010D01*
X152154746Y-102002235D01*
X150856907Y-101888688D01*
X150874382Y-101800838D01*
X150874382Y-101689452D01*
X152174381Y-101803188D01*
X152174382Y-101803188D01*
X152174382Y-101551598D01*
X152174381Y-101551596D01*
X152135028Y-101252683D01*
X152135028Y-101252678D01*
X152100716Y-101124623D01*
X152103919Y-101063521D01*
X152142424Y-101015971D01*
X152196343Y-101000000D01*
X152324999Y-101000000D01*
X152325000Y-100999999D01*
X152325000Y-99900001D01*
X152525000Y-99900001D01*
X152525000Y-100999999D01*
X152525001Y-101000000D01*
X152793058Y-101000000D01*
X152793064Y-100999999D01*
X152881443Y-100989386D01*
X153022095Y-100933919D01*
X153142564Y-100842564D01*
X153233919Y-100722095D01*
X153289386Y-100581443D01*
X153299999Y-100493064D01*
X153300000Y-100493058D01*
X153300000Y-99900001D01*
X153299999Y-99900000D01*
X152525001Y-99900000D01*
X152525000Y-99900001D01*
X152325000Y-99900001D01*
X152324999Y-99900000D01*
X151550001Y-99900000D01*
X151544346Y-99905654D01*
X151531093Y-99946446D01*
X151481593Y-99982410D01*
X151420407Y-99982410D01*
X151390733Y-99966797D01*
X151154932Y-99785862D01*
X150893830Y-99635114D01*
X150893825Y-99635111D01*
X150615284Y-99519737D01*
X150615271Y-99519733D01*
X150324047Y-99441700D01*
X150174270Y-99421980D01*
X150060723Y-100719821D01*
X149972873Y-100702347D01*
X149861488Y-100702347D01*
X149975224Y-99402347D01*
X149723631Y-99402347D01*
X149424718Y-99441700D01*
X149424713Y-99441700D01*
X149133492Y-99519733D01*
X149133479Y-99519737D01*
X148854938Y-99635111D01*
X148854933Y-99635114D01*
X148593831Y-99785862D01*
X148354636Y-99969402D01*
X148141437Y-100182601D01*
X147957897Y-100421796D01*
X147807149Y-100682898D01*
X147779306Y-100750117D01*
X147739569Y-100796643D01*
X147680074Y-100810926D01*
X147623546Y-100787511D01*
X147596379Y-100750119D01*
X147476027Y-100459562D01*
X147206702Y-99913426D01*
X146902236Y-99386074D01*
X146715721Y-99106935D01*
X151550000Y-99106935D01*
X151550000Y-99699999D01*
X151550001Y-99700000D01*
X152324999Y-99700000D01*
X152325000Y-99699999D01*
X152325000Y-98600001D01*
X152525000Y-98600001D01*
X152525000Y-99699999D01*
X152525001Y-99700000D01*
X153299999Y-99700000D01*
X153300000Y-99699999D01*
X153300000Y-99106941D01*
X153299999Y-99106935D01*
X153289386Y-99018556D01*
X153233919Y-98877904D01*
X153142564Y-98757435D01*
X153022095Y-98666080D01*
X152881443Y-98610613D01*
X152793064Y-98600000D01*
X152525001Y-98600000D01*
X152525000Y-98600001D01*
X152325000Y-98600001D01*
X152324999Y-98600000D01*
X152056935Y-98600000D01*
X151968556Y-98610613D01*
X151827904Y-98666080D01*
X151707435Y-98757435D01*
X151616080Y-98877904D01*
X151560613Y-99018556D01*
X151550000Y-99106935D01*
X146715721Y-99106935D01*
X146563930Y-98879764D01*
X146485039Y-98776951D01*
X146193255Y-98396690D01*
X146193246Y-98396679D01*
X146193235Y-98396665D01*
X145837935Y-97991523D01*
X145791754Y-97938863D01*
X145791749Y-97938858D01*
X145791737Y-97938844D01*
X145522393Y-97669500D01*
X145494618Y-97614986D01*
X145504189Y-97554554D01*
X145547454Y-97511289D01*
X145592394Y-97500499D01*
X146258036Y-97500499D01*
X146377418Y-97489886D01*
X146573049Y-97433909D01*
X146753407Y-97339698D01*
X146911109Y-97211109D01*
X147039698Y-97053407D01*
X147133909Y-96873049D01*
X147189886Y-96677418D01*
X147194157Y-96629369D01*
X147207115Y-96590174D01*
X147206576Y-96589900D01*
X147235849Y-96532449D01*
X147315568Y-96375992D01*
X147388553Y-96151368D01*
X147394891Y-96111354D01*
X147402219Y-96065086D01*
X147429996Y-96010570D01*
X147484513Y-95982792D01*
X147544945Y-95992363D01*
X147588210Y-96035628D01*
X147597781Y-96065086D01*
X147611445Y-96151363D01*
X147684432Y-96375992D01*
X147793423Y-96589899D01*
X147792886Y-96590172D01*
X147805842Y-96629369D01*
X147810114Y-96677417D01*
X147810115Y-96677423D01*
X147852692Y-96826221D01*
X147866091Y-96873049D01*
X147960302Y-97053407D01*
X148088891Y-97211109D01*
X148246593Y-97339698D01*
X148426951Y-97433909D01*
X148622582Y-97489886D01*
X148741963Y-97500500D01*
X149408036Y-97500499D01*
X149527418Y-97489886D01*
X149723049Y-97433909D01*
X149903407Y-97339698D01*
X150061109Y-97211109D01*
X150189698Y-97053407D01*
X150283909Y-96873049D01*
X150339886Y-96677418D01*
X150344157Y-96629369D01*
X150357115Y-96590174D01*
X150356576Y-96589900D01*
X150385849Y-96532449D01*
X150465568Y-96375992D01*
X150538553Y-96151368D01*
X150544891Y-96111354D01*
X150575500Y-95918095D01*
X150575500Y-95887533D01*
X150577968Y-95879935D01*
X150576719Y-95872046D01*
X150587243Y-95851390D01*
X150594407Y-95829342D01*
X150604485Y-95817541D01*
X150639908Y-95782118D01*
X150694422Y-95754343D01*
X150754854Y-95763914D01*
X150785747Y-95788488D01*
X152210785Y-97486784D01*
X152237528Y-97511289D01*
X152428293Y-97686092D01*
X152669952Y-97855304D01*
X152669957Y-97855306D01*
X152669959Y-97855308D01*
X152931623Y-97991522D01*
X152931625Y-97991522D01*
X152931630Y-97991525D01*
X153208849Y-98092425D01*
X153208850Y-98092425D01*
X153208855Y-98092427D01*
X153496857Y-98156275D01*
X153496863Y-98156275D01*
X153496868Y-98156277D01*
X153496873Y-98156277D01*
X153496877Y-98156278D01*
X153618738Y-98166939D01*
X153790756Y-98181989D01*
X154021183Y-98171928D01*
X154080142Y-98188279D01*
X154118231Y-98236163D01*
X154124500Y-98270834D01*
X154124500Y-98736857D01*
X154117440Y-98773573D01*
X154116091Y-98776949D01*
X154060114Y-98972579D01*
X154049500Y-99091966D01*
X154049500Y-100508032D01*
X154060114Y-100627416D01*
X154060115Y-100627423D01*
X154116089Y-100823044D01*
X154117435Y-100826413D01*
X154124500Y-100863141D01*
X154124500Y-102436857D01*
X154117440Y-102473573D01*
X154116091Y-102476949D01*
X154060114Y-102672579D01*
X154049500Y-102791966D01*
X154049500Y-104208032D01*
X154060114Y-104327416D01*
X154060115Y-104327423D01*
X154116089Y-104523044D01*
X154117435Y-104526413D01*
X154124500Y-104563141D01*
X154124500Y-104736857D01*
X154117440Y-104773573D01*
X154116091Y-104776949D01*
X154060114Y-104972579D01*
X154054807Y-105032272D01*
X154050371Y-105082174D01*
X154049500Y-105091966D01*
X154049500Y-106508032D01*
X154060114Y-106627416D01*
X154060115Y-106627423D01*
X154116089Y-106823044D01*
X154117435Y-106826413D01*
X154124500Y-106863141D01*
X154124500Y-107036857D01*
X154117440Y-107073573D01*
X154116091Y-107076949D01*
X154060114Y-107272579D01*
X154049500Y-107391966D01*
X154049500Y-108808032D01*
X154056027Y-108881443D01*
X154060114Y-108927418D01*
X154116091Y-109123049D01*
X154163561Y-109213926D01*
X154208521Y-109299999D01*
X154210302Y-109303407D01*
X154338891Y-109461109D01*
X154496593Y-109589698D01*
X154676951Y-109683909D01*
X154872582Y-109739886D01*
X154991963Y-109750500D01*
X155758036Y-109750499D01*
X155877418Y-109739886D01*
X156073049Y-109683909D01*
X156253407Y-109589698D01*
X156411109Y-109461109D01*
X156539698Y-109303407D01*
X156633909Y-109123049D01*
X156689886Y-108927418D01*
X156700500Y-108808037D01*
X156700499Y-107391964D01*
X156689886Y-107272582D01*
X156633909Y-107076951D01*
X156633907Y-107076947D01*
X156632560Y-107073573D01*
X156625500Y-107036857D01*
X156625500Y-106863141D01*
X156632565Y-106826413D01*
X156633904Y-106823057D01*
X156633909Y-106823049D01*
X156689886Y-106627418D01*
X156700500Y-106508037D01*
X156700499Y-105091964D01*
X156689886Y-104972582D01*
X156633909Y-104776951D01*
X156633907Y-104776947D01*
X156632560Y-104773573D01*
X156625500Y-104736857D01*
X156625500Y-104563141D01*
X156632565Y-104526413D01*
X156633904Y-104523057D01*
X156633909Y-104523049D01*
X156689886Y-104327418D01*
X156700500Y-104208037D01*
X156700499Y-102791964D01*
X156689886Y-102672582D01*
X156633909Y-102476951D01*
X156633907Y-102476947D01*
X156632560Y-102473573D01*
X156625500Y-102436857D01*
X156625500Y-100863141D01*
X156632565Y-100826413D01*
X156633904Y-100823057D01*
X156633909Y-100823049D01*
X156689886Y-100627418D01*
X156700500Y-100508037D01*
X156700499Y-99091964D01*
X156689886Y-98972582D01*
X156633909Y-98776951D01*
X156633907Y-98776947D01*
X156632560Y-98773573D01*
X156625500Y-98736857D01*
X156625500Y-96978642D01*
X156618415Y-96933910D01*
X156594710Y-96784239D01*
X156587223Y-96761196D01*
X156570948Y-96711109D01*
X156533884Y-96597037D01*
X156444524Y-96421657D01*
X156328828Y-96262416D01*
X156283720Y-96217308D01*
X156189646Y-96123233D01*
X156189646Y-96123234D01*
X156123212Y-96056800D01*
X156095435Y-96002283D01*
X156094594Y-95978155D01*
X156094747Y-95976402D01*
X156094748Y-95976396D01*
X156081881Y-95681666D01*
X156030652Y-95391137D01*
X155941941Y-95109779D01*
X155912466Y-95046571D01*
X155817269Y-94842420D01*
X155817268Y-94842418D01*
X155817265Y-94842413D01*
X155817263Y-94842409D01*
X155658754Y-94593599D01*
X151689005Y-89862635D01*
X151666085Y-89805906D01*
X151680887Y-89746538D01*
X151727758Y-89707209D01*
X151764844Y-89700000D01*
X157400500Y-89700000D01*
X157458691Y-89718907D01*
X157494655Y-89768407D01*
X157499500Y-89799000D01*
X157499500Y-115251678D01*
X157480593Y-115309869D01*
X157470504Y-115321682D01*
X147821682Y-124970504D01*
X147767165Y-124998281D01*
X147751678Y-124999500D01*
X130248322Y-124999500D01*
X130190131Y-124980593D01*
X130178318Y-124970504D01*
X120529496Y-115321682D01*
X120501719Y-115267165D01*
X120500500Y-115251678D01*
X120500500Y-89799000D01*
X120519407Y-89740809D01*
X120568907Y-89704845D01*
X120599500Y-89700000D01*
X129685411Y-89700000D01*
X129743602Y-89718907D01*
G37*
%TD.AperFunction*%
%TD*%
%TA.AperFunction,Conductor*%
%TO.N,GND*%
G36*
X121226826Y-73403109D02*
G01*
X121280160Y-73415282D01*
X121592723Y-73450499D01*
X121592724Y-73450500D01*
X122134157Y-73450500D01*
X122201196Y-73470185D01*
X122246951Y-73522989D01*
X122256895Y-73592147D01*
X122227870Y-73655703D01*
X122184868Y-73686155D01*
X122185052Y-73686481D01*
X122181932Y-73688235D01*
X122179645Y-73689855D01*
X122177658Y-73690638D01*
X122057077Y-73782077D01*
X121965639Y-73902656D01*
X121910122Y-74043438D01*
X121904188Y-74092853D01*
X121899500Y-74131898D01*
X121899500Y-74131903D01*
X121899500Y-74995109D01*
X121879815Y-75062148D01*
X121827011Y-75107903D01*
X121775500Y-75119109D01*
X121771284Y-75119109D01*
X121618557Y-75160032D01*
X121618550Y-75160035D01*
X121481631Y-75239084D01*
X121481623Y-75239090D01*
X121369822Y-75350891D01*
X121369816Y-75350899D01*
X121290767Y-75487818D01*
X121290764Y-75487825D01*
X121249841Y-75640552D01*
X121249841Y-75694904D01*
X121230156Y-75761943D01*
X121213522Y-75782585D01*
X121179522Y-75816584D01*
X121179520Y-75816587D01*
X121126793Y-75907912D01*
X121107611Y-75979501D01*
X121105616Y-75986945D01*
X121099500Y-76009770D01*
X121099500Y-77461114D01*
X121126793Y-77562977D01*
X121153156Y-77608638D01*
X121179520Y-77654301D01*
X121179522Y-77654303D01*
X121602808Y-78077589D01*
X121636293Y-78138912D01*
X121631309Y-78208604D01*
X121602809Y-78252950D01*
X121557322Y-78298437D01*
X121557314Y-78298447D01*
X121473718Y-78439801D01*
X121427899Y-78597513D01*
X121427704Y-78599998D01*
X121427705Y-78600000D01*
X123897295Y-78600000D01*
X123910087Y-78586161D01*
X123914355Y-78565848D01*
X123963409Y-78516093D01*
X124023607Y-78500500D01*
X124963542Y-78500500D01*
X125030581Y-78520185D01*
X125076336Y-78572989D01*
X125086280Y-78642147D01*
X125063312Y-78698134D01*
X125025618Y-78749207D01*
X124982258Y-78873118D01*
X124982258Y-78873120D01*
X124979500Y-78902538D01*
X124979500Y-79277453D01*
X124982258Y-79306874D01*
X124982259Y-79306879D01*
X125009103Y-79383596D01*
X125012664Y-79453375D01*
X124979743Y-79512231D01*
X124909265Y-79582709D01*
X124909261Y-79582714D01*
X124827595Y-79720805D01*
X124787156Y-79860000D01*
X125476000Y-79860000D01*
X125543039Y-79879685D01*
X125588794Y-79932489D01*
X125600000Y-79984000D01*
X125600000Y-80110000D01*
X125726000Y-80110000D01*
X125793039Y-80129685D01*
X125838794Y-80182489D01*
X125850000Y-80234000D01*
X125850000Y-80879930D01*
X125865771Y-80878689D01*
X125934148Y-80893053D01*
X125983905Y-80942104D01*
X125999500Y-81002307D01*
X125999500Y-83026000D01*
X125979815Y-83093039D01*
X125927011Y-83138794D01*
X125875500Y-83150000D01*
X125623514Y-83150000D01*
X125556475Y-83130315D01*
X125510720Y-83077511D01*
X125500776Y-83008353D01*
X125507292Y-82984590D01*
X125506914Y-82984467D01*
X125569221Y-82792705D01*
X125600000Y-82598382D01*
X125600000Y-82401617D01*
X125569221Y-82207294D01*
X125508418Y-82020164D01*
X125419095Y-81844856D01*
X125303444Y-81685678D01*
X125164321Y-81546555D01*
X125005143Y-81430904D01*
X124829835Y-81341581D01*
X124642705Y-81280778D01*
X124448382Y-81250000D01*
X124410000Y-81250000D01*
X124401989Y-81269338D01*
X124402579Y-81270418D01*
X124397595Y-81340110D01*
X124369094Y-81384457D01*
X123164457Y-82589095D01*
X123103134Y-82622580D01*
X123033442Y-82617596D01*
X122989095Y-82589095D01*
X122900000Y-82500000D01*
X122810905Y-82589095D01*
X122749582Y-82622580D01*
X122679890Y-82617596D01*
X122635543Y-82589095D01*
X121430905Y-81384457D01*
X121426566Y-81376511D01*
X121419317Y-81371084D01*
X121410083Y-81346324D01*
X121397420Y-81323134D01*
X121398065Y-81314102D01*
X121394902Y-81305619D01*
X121400519Y-81279799D01*
X121400787Y-81276044D01*
X121390000Y-81250000D01*
X122003551Y-81250000D01*
X122900000Y-82146448D01*
X123796448Y-81250000D01*
X122003551Y-81250000D01*
X121390000Y-81250000D01*
X121351618Y-81250000D01*
X121157294Y-81280778D01*
X120970164Y-81341581D01*
X120794853Y-81430906D01*
X120697385Y-81501721D01*
X120631579Y-81525201D01*
X120563525Y-81509376D01*
X120514830Y-81459270D01*
X120500500Y-81401403D01*
X120500500Y-80360000D01*
X124787156Y-80360000D01*
X124827595Y-80499194D01*
X124909261Y-80637285D01*
X124909268Y-80637294D01*
X125022705Y-80750731D01*
X125022714Y-80750738D01*
X125160808Y-80832406D01*
X125160811Y-80832407D01*
X125314871Y-80877166D01*
X125314877Y-80877167D01*
X125350000Y-80879931D01*
X125350000Y-80360000D01*
X124787156Y-80360000D01*
X120500500Y-80360000D01*
X120500500Y-79100001D01*
X121427704Y-79100001D01*
X121427899Y-79102486D01*
X121473718Y-79260198D01*
X121557314Y-79401552D01*
X121557321Y-79401561D01*
X121673438Y-79517678D01*
X121673447Y-79517685D01*
X121814803Y-79601282D01*
X121814806Y-79601283D01*
X121972504Y-79647099D01*
X121972510Y-79647100D01*
X122009350Y-79649999D01*
X122009366Y-79650000D01*
X122412500Y-79650000D01*
X122912500Y-79650000D01*
X123315634Y-79650000D01*
X123315649Y-79649999D01*
X123352489Y-79647100D01*
X123352495Y-79647099D01*
X123510193Y-79601283D01*
X123510196Y-79601282D01*
X123651552Y-79517685D01*
X123651561Y-79517678D01*
X123767678Y-79401561D01*
X123767685Y-79401552D01*
X123851281Y-79260198D01*
X123897100Y-79102486D01*
X123897295Y-79100001D01*
X123897295Y-79100000D01*
X122912500Y-79100000D01*
X122912500Y-79650000D01*
X122412500Y-79650000D01*
X122412500Y-79100000D01*
X121427705Y-79100000D01*
X121427704Y-79100001D01*
X120500500Y-79100001D01*
X120500500Y-73524000D01*
X120520185Y-73456961D01*
X120572989Y-73411206D01*
X120624500Y-73400000D01*
X121199234Y-73400000D01*
X121226826Y-73403109D01*
G37*
%TD.AperFunction*%
%TD*%
M02*
