%TF.GenerationSoftware,KiCad,Pcbnew,9.0.2*%
%TF.CreationDate,2025-11-13T09:21:06+01:00*%
%TF.ProjectId,Platine_Grinder_Triac_smd_v2.1,506c6174-696e-4655-9f47-72696e646572,rev?*%
%TF.SameCoordinates,Original*%
%TF.FileFunction,Copper,L2,Bot*%
%TF.FilePolarity,Positive*%
%FSLAX46Y46*%
G04 Gerber Fmt 4.6, Leading zero omitted, Abs format (unit mm)*
G04 Created by KiCad (PCBNEW 9.0.2) date 2025-11-13 09:21:06*
%MOMM*%
%LPD*%
G01*
G04 APERTURE LIST*
G04 Aperture macros list*
%AMHorizOval*
0 Thick line with rounded ends*
0 $1 width*
0 $2 $3 position (X,Y) of the first rounded end (center of the circle)*
0 $4 $5 position (X,Y) of the second rounded end (center of the circle)*
0 Add line between two ends*
20,1,$1,$2,$3,$4,$5,0*
0 Add two circle primitives to create the rounded ends*
1,1,$1,$2,$3*
1,1,$1,$4,$5*%
G04 Aperture macros list end*
%TA.AperFunction,ComponentPad*%
%ADD10HorizOval,3.000000X-2.008711X2.393889X2.008711X-2.393889X0*%
%TD*%
%TA.AperFunction,ComponentPad*%
%ADD11C,4.000000*%
%TD*%
%TA.AperFunction,ComponentPad*%
%ADD12O,2.000000X5.700000*%
%TD*%
%TA.AperFunction,ComponentPad*%
%ADD13O,4.400000X1.500000*%
%TD*%
%TA.AperFunction,ComponentPad*%
%ADD14O,5.700000X2.000000*%
%TD*%
%TA.AperFunction,SMDPad,CuDef*%
%ADD15C,1.000000*%
%TD*%
%TA.AperFunction,ViaPad*%
%ADD16C,0.500000*%
%TD*%
%TA.AperFunction,ViaPad*%
%ADD17C,0.600000*%
%TD*%
%TA.AperFunction,Conductor*%
%ADD18C,2.000000*%
%TD*%
%TA.AperFunction,Conductor*%
%ADD19C,0.600000*%
%TD*%
%TA.AperFunction,Conductor*%
%ADD20C,0.200000*%
%TD*%
%TA.AperFunction,Conductor*%
%ADD21C,0.300000*%
%TD*%
G04 APERTURE END LIST*
D10*
%TO.P,DC-Motor1,1,V+*%
%TO.N,/V+*%
X126168755Y-115066693D03*
%TO.P,DC-Motor1,2,V-*%
%TO.N,/V-*%
X151831245Y-93533307D03*
D11*
%TO.P,DC-Motor1,3,Case1*%
%TO.N,/V_Case*%
X134553494Y-114558099D03*
%TO.P,DC-Motor1,4,Case2*%
X149874382Y-101702347D03*
%TD*%
D12*
%TO.P,Con2,1,Con*%
%TO.N,/L_In*%
X146500000Y-63600000D03*
%TO.P,Con2,2,Con*%
%TO.N,/L_Limiter*%
X151500000Y-63600000D03*
%TD*%
%TO.P,Con3,1,Con*%
%TO.N,/L_In*%
X132500000Y-63600000D03*
%TO.P,Con3,2,Con*%
%TO.N,/N_In*%
X137500000Y-63600000D03*
%TD*%
D13*
%TO.P,Con4,1,Con*%
%TO.N,/Sig_In*%
X122900000Y-87500000D03*
%TO.P,Con4,2,Con*%
%TO.N,GND*%
X122900000Y-82500000D03*
%TD*%
D14*
%TO.P,Con1,1,Con*%
%TO.N,/L_In*%
X123600000Y-70650000D03*
%TO.P,Con1,2,Con*%
%TO.N,/N_In*%
X123600000Y-65650000D03*
%TD*%
D15*
%TO.P,TP2,1,1*%
%TO.N,/N_In*%
X125600000Y-61800000D03*
%TD*%
%TO.P,TP9,1,1*%
%TO.N,/N_Triac*%
X142000000Y-78000000D03*
%TD*%
%TO.P,TP8,1,1*%
%TO.N,/Net-(Q2-G)*%
X125500000Y-74800000D03*
%TD*%
%TO.P,TP7,1,1*%
%TO.N,/Net-Q1-C*%
X122600000Y-74900000D03*
%TD*%
%TO.P,TP11,1,1*%
%TO.N,/V+_Rectifier*%
X146000000Y-83200000D03*
%TD*%
%TO.P,TP6,1,1*%
%TO.N,GND*%
X121600000Y-78600000D03*
%TD*%
%TO.P,TP5,1,1*%
%TO.N,/Net-(Q1-B)*%
X123900000Y-78000000D03*
%TD*%
%TO.P,TP3,1,1*%
%TO.N,/L_Limiter*%
X155400000Y-62000000D03*
%TD*%
%TO.P,TP10,1,1*%
%TO.N,/V-_Rectifier*%
X152700000Y-82200000D03*
%TD*%
%TO.P,TP14,1,1*%
%TO.N,/V_Case*%
X149900000Y-104300000D03*
%TD*%
%TO.P,TP13,1,1*%
%TO.N,/V-*%
X150400000Y-95100000D03*
%TD*%
%TO.P,TP4,1,1*%
%TO.N,/Sig_In*%
X121300000Y-91400000D03*
%TD*%
%TO.P,TP1,1,1*%
%TO.N,/L_In*%
X128900000Y-68500000D03*
%TD*%
%TO.P,TP12,1,1*%
%TO.N,/V+*%
X129600000Y-119000000D03*
%TD*%
D16*
%TO.N,/V+_Rectifier*%
X141900000Y-89000000D03*
X146700000Y-81000000D03*
X140500000Y-89000000D03*
X146000000Y-81000000D03*
X141200000Y-89001000D03*
X145300000Y-81000000D03*
D17*
%TO.N,/V-_Rectifier*%
X143200000Y-92900000D03*
D16*
X152700000Y-81000000D03*
D17*
X143900000Y-92900000D03*
D16*
X153400000Y-81000000D03*
D17*
X142500000Y-92900000D03*
D16*
X152000000Y-81000000D03*
D17*
%TO.N,GND*%
X122670496Y-80208633D03*
%TO.N,/N_Triac*%
X138000000Y-80000000D03*
X141000000Y-76000000D03*
X133500000Y-85000000D03*
X129000000Y-84000000D03*
X156700000Y-76000000D03*
X149300000Y-81800000D03*
X141000000Y-72500000D03*
X141000000Y-78000000D03*
X142100000Y-74500000D03*
X135000000Y-81500000D03*
X136000000Y-81500000D03*
X135000000Y-78000000D03*
X129000000Y-82500000D03*
X135000000Y-85000000D03*
X154500000Y-88500000D03*
X132000000Y-81250000D03*
X133500000Y-80000000D03*
X135000000Y-87000000D03*
X141000000Y-82500000D03*
X137000000Y-87000000D03*
X129000000Y-79500000D03*
X138000000Y-82500000D03*
X134000000Y-82500000D03*
X136000000Y-83500000D03*
X140000000Y-77000000D03*
X155200000Y-73100000D03*
X132000000Y-85000000D03*
X132000000Y-82500000D03*
X139000000Y-78000000D03*
X156700000Y-81000000D03*
X129000000Y-78000000D03*
X134000000Y-83500000D03*
X148200000Y-73100000D03*
X131000000Y-87000000D03*
X133000000Y-87000000D03*
X136500000Y-80000000D03*
X129000000Y-81000000D03*
X150500000Y-73100000D03*
X134000000Y-81500000D03*
X136000000Y-82500000D03*
X129000000Y-85500000D03*
X141000000Y-81000000D03*
X138000000Y-85000000D03*
X132000000Y-83750000D03*
X141000000Y-84000000D03*
X156700000Y-65000000D03*
X156700000Y-70300000D03*
X136500000Y-85000000D03*
X132000000Y-80000000D03*
X135000000Y-82500000D03*
X141000000Y-79500000D03*
X142000000Y-77000000D03*
X144100000Y-73100000D03*
X156700000Y-86000000D03*
X138000000Y-81250000D03*
X138000000Y-83750000D03*
X139000000Y-87000000D03*
X140520601Y-85720601D03*
X133000000Y-78000000D03*
X135000000Y-80000000D03*
X131000000Y-78000000D03*
X135000000Y-83500000D03*
X137000000Y-78000000D03*
X129000000Y-87000000D03*
%TO.N,/Net-(Q1-B)*%
X123900000Y-76900000D03*
%TO.N,/Net-Q1-C*%
X121850341Y-75719609D03*
%TO.N,/Net-(Q2-G)*%
X126500000Y-74800000D03*
%TD*%
D18*
%TO.N,/V+_Rectifier*%
X146000000Y-84201000D02*
X141200000Y-89001000D01*
D19*
X141899000Y-89001000D02*
X141900000Y-89000000D01*
X140500000Y-89000000D02*
X141199000Y-89000000D01*
X141200000Y-89001000D02*
X141899000Y-89001000D01*
D18*
X146000000Y-81000000D02*
X146000000Y-84201000D01*
D19*
X145300000Y-81000000D02*
X146000000Y-81000000D01*
X141199000Y-89000000D02*
X141200000Y-89001000D01*
X146000000Y-81000000D02*
X146700000Y-81000000D01*
D18*
%TO.N,/V-_Rectifier*%
X152700000Y-82452162D02*
X152700000Y-81000000D01*
X143200000Y-92900000D02*
X143200000Y-91952162D01*
D19*
X152700000Y-81000000D02*
X152000000Y-81000000D01*
X153400000Y-81000000D02*
X152700000Y-81000000D01*
D18*
X143200000Y-91952162D02*
X152700000Y-82452162D01*
D20*
%TO.N,/V_Case*%
X149900000Y-101727965D02*
X149874382Y-101702347D01*
X149900000Y-104300000D02*
X149900000Y-101727965D01*
%TO.N,GND*%
X122661863Y-80200000D02*
X122670496Y-80208633D01*
D18*
%TO.N,/L_In*%
X126850000Y-70650000D02*
X125600000Y-70650000D01*
X132500000Y-68400000D02*
X132500000Y-65600000D01*
X139075426Y-69250000D02*
X139074426Y-69251000D01*
X132400000Y-68500000D02*
X132500000Y-68400000D01*
X139250000Y-69250000D02*
X139075426Y-69250000D01*
X135174574Y-68500000D02*
X132400000Y-68500000D01*
X146500000Y-65600000D02*
X142900000Y-65600000D01*
X132400000Y-68500000D02*
X129000000Y-68500000D01*
X135925574Y-69251000D02*
X135174574Y-68500000D01*
X129000000Y-68500000D02*
X126850000Y-70650000D01*
X139074426Y-69251000D02*
X135925574Y-69251000D01*
X142900000Y-65600000D02*
X139250000Y-69250000D01*
D20*
%TO.N,/N_In*%
X125600000Y-65650000D02*
X125600000Y-61800000D01*
%TO.N,/L_Limiter*%
X151600000Y-62000000D02*
X155400000Y-62000000D01*
X151500000Y-65600000D02*
X151500000Y-62100000D01*
X151500000Y-62100000D02*
X151600000Y-62000000D01*
%TO.N,/Sig_In*%
X121300000Y-87500000D02*
X121300000Y-91400000D01*
X124350000Y-87500000D02*
X121300000Y-87500000D01*
%TO.N,/N_Triac*%
X142000000Y-78000000D02*
X141000000Y-78000000D01*
%TO.N,/V+*%
X126168755Y-115568755D02*
X126168755Y-115066693D01*
X129600000Y-119000000D02*
X126168755Y-115568755D01*
%TO.N,/V-*%
X151831245Y-93668755D02*
X151831245Y-93533307D01*
X150400000Y-95100000D02*
X151831245Y-93668755D01*
%TO.N,/Net-(Q1-B)*%
X123900000Y-78000000D02*
X123900000Y-76900000D01*
%TO.N,/Net-Q1-C*%
X122600000Y-74969950D02*
X121850341Y-75719609D01*
X122600000Y-74900000D02*
X122600000Y-74969950D01*
D21*
%TO.N,/Net-(Q2-G)*%
X126500000Y-74800000D02*
X126100000Y-74800000D01*
%TD*%
%TA.AperFunction,Conductor*%
%TO.N,GND*%
G36*
X121226826Y-73403109D02*
G01*
X121280160Y-73415282D01*
X121592723Y-73450499D01*
X121592724Y-73450500D01*
X121592727Y-73450500D01*
X125442727Y-73450500D01*
X126080795Y-73450500D01*
X126147834Y-73470185D01*
X126193589Y-73522989D01*
X126204208Y-73562458D01*
X126207706Y-73598318D01*
X126207706Y-73598321D01*
X126207707Y-73598323D01*
X126207707Y-73598325D01*
X126257280Y-73795077D01*
X126273636Y-73859990D01*
X126344910Y-74030264D01*
X126361472Y-74069831D01*
X126369199Y-74139272D01*
X126338157Y-74201867D01*
X126300486Y-74229623D01*
X126290192Y-74234534D01*
X126268216Y-74240423D01*
X126222331Y-74266913D01*
X126217936Y-74269011D01*
X126188048Y-74273822D01*
X126158635Y-74280957D01*
X126153901Y-74279318D01*
X126148955Y-74280115D01*
X126121215Y-74268005D01*
X126092609Y-74258104D01*
X126086289Y-74252758D01*
X126084921Y-74252161D01*
X126084064Y-74250876D01*
X126076862Y-74244784D01*
X126010289Y-74178211D01*
X126010288Y-74178210D01*
X126010287Y-74178209D01*
X125879185Y-74090609D01*
X125879172Y-74090602D01*
X125733501Y-74030264D01*
X125733489Y-74030261D01*
X125578845Y-73999500D01*
X125578842Y-73999500D01*
X125421158Y-73999500D01*
X125421155Y-73999500D01*
X125266510Y-74030261D01*
X125266498Y-74030264D01*
X125120827Y-74090602D01*
X125120814Y-74090609D01*
X124989711Y-74178210D01*
X124989707Y-74178213D01*
X124878213Y-74289707D01*
X124878210Y-74289711D01*
X124790609Y-74420814D01*
X124790602Y-74420827D01*
X124730264Y-74566498D01*
X124730261Y-74566510D01*
X124699500Y-74721153D01*
X124699500Y-74878846D01*
X124730261Y-75033489D01*
X124730264Y-75033501D01*
X124790602Y-75179172D01*
X124790609Y-75179185D01*
X124878210Y-75310288D01*
X124878213Y-75310292D01*
X124989707Y-75421786D01*
X124989711Y-75421789D01*
X125120814Y-75509390D01*
X125120827Y-75509397D01*
X125266498Y-75569735D01*
X125266503Y-75569737D01*
X125421153Y-75600499D01*
X125421156Y-75600500D01*
X125421158Y-75600500D01*
X125578844Y-75600500D01*
X125578845Y-75600499D01*
X125733497Y-75569737D01*
X125879179Y-75509394D01*
X126010289Y-75421789D01*
X126076858Y-75355219D01*
X126101294Y-75341876D01*
X126123981Y-75325721D01*
X126131537Y-75325360D01*
X126138178Y-75321735D01*
X126165953Y-75323721D01*
X126193772Y-75322396D01*
X126203852Y-75326431D01*
X126207870Y-75326719D01*
X126226533Y-75335511D01*
X126233055Y-75339277D01*
X126281270Y-75389843D01*
X126294493Y-75458450D01*
X126277502Y-75510261D01*
X126204108Y-75633103D01*
X126204101Y-75633117D01*
X126101768Y-75882814D01*
X126082865Y-75940995D01*
X126074712Y-75966739D01*
X126014665Y-76229823D01*
X125994500Y-76498898D01*
X125994500Y-81781915D01*
X125974815Y-81848954D01*
X125922626Y-81894427D01*
X125835293Y-81934887D01*
X125673976Y-82041373D01*
X125607182Y-82061877D01*
X125539907Y-82043014D01*
X125495179Y-81994180D01*
X125419097Y-81844858D01*
X125303444Y-81685678D01*
X125164321Y-81546555D01*
X125005143Y-81430904D01*
X124829835Y-81341581D01*
X124642705Y-81280778D01*
X124448382Y-81250000D01*
X124410000Y-81250000D01*
X124401989Y-81269338D01*
X124402579Y-81270418D01*
X124397595Y-81340110D01*
X124369094Y-81384457D01*
X123164457Y-82589095D01*
X123103134Y-82622580D01*
X123033442Y-82617596D01*
X122989095Y-82589095D01*
X122900000Y-82500000D01*
X122810905Y-82589095D01*
X122749582Y-82622580D01*
X122679890Y-82617596D01*
X122635543Y-82589095D01*
X121430905Y-81384457D01*
X121426566Y-81376511D01*
X121419317Y-81371084D01*
X121410083Y-81346324D01*
X121397420Y-81323134D01*
X121398065Y-81314102D01*
X121394902Y-81305619D01*
X121400519Y-81279799D01*
X121400787Y-81276044D01*
X121390000Y-81250000D01*
X122003551Y-81250000D01*
X122900000Y-82146448D01*
X123796448Y-81250000D01*
X122003551Y-81250000D01*
X121390000Y-81250000D01*
X121351618Y-81250000D01*
X121157294Y-81280778D01*
X120970164Y-81341581D01*
X120794853Y-81430906D01*
X120697385Y-81501721D01*
X120631579Y-81525201D01*
X120563525Y-81509376D01*
X120514830Y-81459270D01*
X120500500Y-81401403D01*
X120500500Y-79462572D01*
X121090979Y-79462572D01*
X121126328Y-79486192D01*
X121308306Y-79561569D01*
X121308318Y-79561572D01*
X121501504Y-79599999D01*
X121501508Y-79600000D01*
X121698492Y-79600000D01*
X121698495Y-79599999D01*
X121891681Y-79561572D01*
X121891693Y-79561569D01*
X122073676Y-79486190D01*
X122073680Y-79486187D01*
X122109019Y-79462573D01*
X122109020Y-79462572D01*
X121600001Y-78953553D01*
X121600000Y-78953553D01*
X121090979Y-79462572D01*
X120500500Y-79462572D01*
X120500500Y-79163208D01*
X120520185Y-79096169D01*
X120572989Y-79050414D01*
X120642147Y-79040470D01*
X120705703Y-79069495D01*
X120727602Y-79094318D01*
X120737425Y-79109020D01*
X121246446Y-78600000D01*
X121246446Y-78599999D01*
X121953553Y-78599999D01*
X121953553Y-78600001D01*
X122462572Y-79109020D01*
X122462573Y-79109019D01*
X122486187Y-79073680D01*
X122486190Y-79073676D01*
X122561569Y-78891693D01*
X122561572Y-78891681D01*
X122599999Y-78698495D01*
X122600000Y-78698492D01*
X122600000Y-78501508D01*
X122599999Y-78501504D01*
X122561572Y-78308318D01*
X122561569Y-78308306D01*
X122486192Y-78126328D01*
X122462572Y-78090979D01*
X121953553Y-78599999D01*
X121246446Y-78599999D01*
X120737426Y-78090978D01*
X120737425Y-78090979D01*
X120727602Y-78105681D01*
X120673990Y-78150486D01*
X120604665Y-78159193D01*
X120541637Y-78129039D01*
X120504918Y-78069596D01*
X120500500Y-78036790D01*
X120500500Y-77737426D01*
X121090978Y-77737426D01*
X121600000Y-78246446D01*
X121600001Y-78246446D01*
X121925293Y-77921153D01*
X123099500Y-77921153D01*
X123099500Y-78078846D01*
X123130261Y-78233489D01*
X123130264Y-78233501D01*
X123190602Y-78379172D01*
X123190609Y-78379185D01*
X123278210Y-78510288D01*
X123278213Y-78510292D01*
X123389707Y-78621786D01*
X123389711Y-78621789D01*
X123520814Y-78709390D01*
X123520827Y-78709397D01*
X123666498Y-78769735D01*
X123666503Y-78769737D01*
X123821153Y-78800499D01*
X123821156Y-78800500D01*
X123821158Y-78800500D01*
X123978844Y-78800500D01*
X123978845Y-78800499D01*
X124133497Y-78769737D01*
X124279179Y-78709394D01*
X124410289Y-78621789D01*
X124521789Y-78510289D01*
X124609394Y-78379179D01*
X124669737Y-78233497D01*
X124700500Y-78078842D01*
X124700500Y-77921158D01*
X124700500Y-77921155D01*
X124700499Y-77921153D01*
X124669738Y-77766510D01*
X124669737Y-77766503D01*
X124616688Y-77638430D01*
X124609397Y-77620827D01*
X124609390Y-77620814D01*
X124521789Y-77489711D01*
X124521786Y-77489707D01*
X124418618Y-77386539D01*
X124385133Y-77325216D01*
X124390117Y-77255524D01*
X124398907Y-77236867D01*
X124459577Y-77131784D01*
X124500500Y-76979057D01*
X124500500Y-76820943D01*
X124459577Y-76668216D01*
X124459573Y-76668209D01*
X124380524Y-76531290D01*
X124380518Y-76531282D01*
X124268717Y-76419481D01*
X124268709Y-76419475D01*
X124131790Y-76340426D01*
X124131786Y-76340424D01*
X124131784Y-76340423D01*
X123979057Y-76299500D01*
X123820943Y-76299500D01*
X123668216Y-76340423D01*
X123668209Y-76340426D01*
X123531290Y-76419475D01*
X123531282Y-76419481D01*
X123419481Y-76531282D01*
X123419475Y-76531290D01*
X123340426Y-76668209D01*
X123340423Y-76668216D01*
X123299500Y-76820943D01*
X123299500Y-76979056D01*
X123340423Y-77131783D01*
X123340424Y-77131786D01*
X123401087Y-77236858D01*
X123417560Y-77304759D01*
X123394707Y-77370785D01*
X123381382Y-77386539D01*
X123278210Y-77489711D01*
X123190609Y-77620814D01*
X123190602Y-77620827D01*
X123130264Y-77766498D01*
X123130261Y-77766510D01*
X123099500Y-77921153D01*
X121925293Y-77921153D01*
X122019061Y-77827385D01*
X122109019Y-77737426D01*
X122073675Y-77713809D01*
X122073673Y-77713808D01*
X121891693Y-77638430D01*
X121891681Y-77638427D01*
X121698495Y-77600000D01*
X121501504Y-77600000D01*
X121308318Y-77638427D01*
X121308310Y-77638429D01*
X121126325Y-77713809D01*
X121126318Y-77713813D01*
X121090979Y-77737426D01*
X121090978Y-77737426D01*
X120500500Y-77737426D01*
X120500500Y-75640552D01*
X121249841Y-75640552D01*
X121249841Y-75798666D01*
X121272389Y-75882814D01*
X121290764Y-75951392D01*
X121290767Y-75951399D01*
X121369816Y-76088318D01*
X121369820Y-76088323D01*
X121369821Y-76088325D01*
X121481625Y-76200129D01*
X121481627Y-76200130D01*
X121481631Y-76200133D01*
X121618550Y-76279182D01*
X121618557Y-76279186D01*
X121771284Y-76320109D01*
X121771286Y-76320109D01*
X121929396Y-76320109D01*
X121929398Y-76320109D01*
X122082125Y-76279186D01*
X122219057Y-76200129D01*
X122330861Y-76088325D01*
X122409918Y-75951393D01*
X122450841Y-75798666D01*
X122450841Y-75798664D01*
X122452518Y-75792406D01*
X122488883Y-75732746D01*
X122551730Y-75702217D01*
X122572293Y-75700500D01*
X122678844Y-75700500D01*
X122678845Y-75700499D01*
X122833497Y-75669737D01*
X122979179Y-75609394D01*
X123110289Y-75521789D01*
X123221789Y-75410289D01*
X123309394Y-75279179D01*
X123369737Y-75133497D01*
X123400500Y-74978842D01*
X123400500Y-74821158D01*
X123400500Y-74821155D01*
X123400499Y-74821153D01*
X123369737Y-74666503D01*
X123328314Y-74566498D01*
X123309397Y-74520827D01*
X123309390Y-74520814D01*
X123221789Y-74389711D01*
X123221786Y-74389707D01*
X123110292Y-74278213D01*
X123110288Y-74278210D01*
X122979185Y-74190609D01*
X122979172Y-74190602D01*
X122833501Y-74130264D01*
X122833489Y-74130261D01*
X122678845Y-74099500D01*
X122678842Y-74099500D01*
X122521158Y-74099500D01*
X122521155Y-74099500D01*
X122366510Y-74130261D01*
X122366498Y-74130264D01*
X122220827Y-74190602D01*
X122220814Y-74190609D01*
X122089711Y-74278210D01*
X122089707Y-74278213D01*
X121978213Y-74389707D01*
X121978210Y-74389711D01*
X121890609Y-74520814D01*
X121890602Y-74520827D01*
X121830264Y-74666498D01*
X121830261Y-74666510D01*
X121799500Y-74821153D01*
X121799500Y-74978846D01*
X121801903Y-74990926D01*
X121795676Y-75060517D01*
X121752813Y-75115695D01*
X121712380Y-75134892D01*
X121618555Y-75160032D01*
X121618550Y-75160035D01*
X121481631Y-75239084D01*
X121481623Y-75239090D01*
X121369822Y-75350891D01*
X121369816Y-75350899D01*
X121290767Y-75487818D01*
X121290764Y-75487825D01*
X121249841Y-75640552D01*
X120500500Y-75640552D01*
X120500500Y-73524000D01*
X120520185Y-73456961D01*
X120572989Y-73411206D01*
X120624500Y-73400000D01*
X121199234Y-73400000D01*
X121226826Y-73403109D01*
G37*
%TD.AperFunction*%
%TD*%
%TA.AperFunction,Conductor*%
%TO.N,/N_Triac*%
G36*
X157478247Y-63272621D02*
G01*
X157499424Y-63330025D01*
X157499500Y-63333911D01*
X157499500Y-115251678D01*
X157480593Y-115309869D01*
X157470504Y-115321682D01*
X147821682Y-124970504D01*
X147767165Y-124998281D01*
X147751678Y-124999500D01*
X130248322Y-124999500D01*
X130190131Y-124980593D01*
X130178318Y-124970504D01*
X120529496Y-115321682D01*
X120501719Y-115267165D01*
X120500500Y-115251678D01*
X120500500Y-112579151D01*
X121156275Y-112579151D01*
X121156275Y-112579160D01*
X121164677Y-112916047D01*
X121164677Y-112916054D01*
X121164678Y-112916060D01*
X121177511Y-113009054D01*
X121210746Y-113249903D01*
X121293909Y-113576501D01*
X121413106Y-113891711D01*
X121518171Y-114096648D01*
X121566857Y-114191612D01*
X121753215Y-114472406D01*
X121753216Y-114472407D01*
X121753219Y-114472411D01*
X125880501Y-119391116D01*
X125987262Y-119518348D01*
X126231430Y-119750634D01*
X126500071Y-119954122D01*
X126789806Y-120126252D01*
X126789811Y-120126254D01*
X126789814Y-120126256D01*
X126932275Y-120190536D01*
X127096992Y-120264860D01*
X127417765Y-120368201D01*
X127748091Y-120434978D01*
X128083819Y-120464351D01*
X128189086Y-120461724D01*
X128247728Y-120479174D01*
X128261551Y-120490684D01*
X128278149Y-120507282D01*
X128486197Y-120666924D01*
X128713303Y-120798043D01*
X128955581Y-120898398D01*
X129208884Y-120966270D01*
X129468880Y-121000500D01*
X129468881Y-121000500D01*
X129731119Y-121000500D01*
X129731120Y-121000500D01*
X129991116Y-120966270D01*
X130244419Y-120898398D01*
X130486697Y-120798043D01*
X130713803Y-120666924D01*
X130921851Y-120507282D01*
X131107282Y-120321851D01*
X131266924Y-120113803D01*
X131398043Y-119886697D01*
X131498398Y-119644419D01*
X131566270Y-119391116D01*
X131600500Y-119131120D01*
X131600500Y-118868880D01*
X131566270Y-118608884D01*
X131498398Y-118355581D01*
X131398043Y-118113303D01*
X131266924Y-117886197D01*
X131187368Y-117782519D01*
X131166945Y-117724845D01*
X131167287Y-117713637D01*
X131181235Y-117554229D01*
X131172832Y-117217326D01*
X131126763Y-116883481D01*
X131043603Y-116556893D01*
X130924401Y-116241670D01*
X130770653Y-115941775D01*
X130584295Y-115660980D01*
X130584295Y-115660979D01*
X126350250Y-110615040D01*
X126106079Y-110382751D01*
X125951918Y-110265979D01*
X125837439Y-110179264D01*
X125547704Y-110007134D01*
X125547701Y-110007132D01*
X125547695Y-110007129D01*
X125240516Y-109868525D01*
X125048506Y-109806667D01*
X124919745Y-109765185D01*
X124919742Y-109765184D01*
X124919741Y-109765184D01*
X124919733Y-109765182D01*
X124589416Y-109698407D01*
X124253691Y-109669035D01*
X123916800Y-109677437D01*
X123916791Y-109677437D01*
X123916788Y-109677438D01*
X123808476Y-109692384D01*
X123582944Y-109723506D01*
X123256346Y-109806669D01*
X122941136Y-109925866D01*
X122641242Y-110079613D01*
X122641239Y-110079615D01*
X122360440Y-110265976D01*
X122360436Y-110265979D01*
X122102280Y-110482597D01*
X121869991Y-110726768D01*
X121666505Y-110995407D01*
X121494369Y-111285152D01*
X121355765Y-111592331D01*
X121252424Y-111913106D01*
X121252422Y-111913114D01*
X121185647Y-112243431D01*
X121156275Y-112579151D01*
X120500500Y-112579151D01*
X120500500Y-103995532D01*
X129699500Y-103995532D01*
X129699500Y-104604467D01*
X129739325Y-105212091D01*
X129818806Y-105815810D01*
X129818807Y-105815816D01*
X129937603Y-106413048D01*
X130095211Y-107001247D01*
X130290945Y-107577858D01*
X130523975Y-108140442D01*
X130523980Y-108140453D01*
X130793294Y-108686567D01*
X131097761Y-109213921D01*
X131097770Y-109213935D01*
X131436074Y-109720242D01*
X131806744Y-110203309D01*
X131806754Y-110203321D01*
X131806765Y-110203335D01*
X132051671Y-110482597D01*
X132167818Y-110615038D01*
X132208263Y-110661156D01*
X132638844Y-111091737D01*
X133096665Y-111493235D01*
X133096679Y-111493246D01*
X133096690Y-111493255D01*
X133542642Y-111835445D01*
X133577298Y-111885869D01*
X133575697Y-111947034D01*
X133538449Y-111995575D01*
X133515077Y-112007430D01*
X133499269Y-112012962D01*
X133220927Y-112147004D01*
X132959350Y-112311364D01*
X132717821Y-112503978D01*
X132499373Y-112722426D01*
X132306759Y-112963955D01*
X132142399Y-113225532D01*
X132008357Y-113503873D01*
X131906326Y-113795461D01*
X131837582Y-114096648D01*
X131802994Y-114403632D01*
X131802994Y-114712565D01*
X131837582Y-115019549D01*
X131906326Y-115320736D01*
X132008357Y-115612324D01*
X132142399Y-115890665D01*
X132174514Y-115941775D01*
X132306759Y-116152242D01*
X132499374Y-116393773D01*
X132717820Y-116612219D01*
X132959351Y-116804834D01*
X133220929Y-116969194D01*
X133499265Y-117103234D01*
X133790858Y-117205267D01*
X134092042Y-117274010D01*
X134399029Y-117308599D01*
X134399030Y-117308599D01*
X134707958Y-117308599D01*
X134707959Y-117308599D01*
X135014946Y-117274010D01*
X135316130Y-117205267D01*
X135607723Y-117103234D01*
X135886059Y-116969194D01*
X136147637Y-116804834D01*
X136389168Y-116612219D01*
X136607614Y-116393773D01*
X136800229Y-116152242D01*
X136964589Y-115890664D01*
X137098629Y-115612328D01*
X137200662Y-115320735D01*
X137269405Y-115019551D01*
X137303994Y-114712564D01*
X137303994Y-114403634D01*
X137269405Y-114096647D01*
X137200662Y-113795463D01*
X137158374Y-113674611D01*
X137118508Y-113560680D01*
X137117135Y-113499510D01*
X137151979Y-113449215D01*
X137209730Y-113429007D01*
X137231262Y-113430883D01*
X137484179Y-113481192D01*
X138087903Y-113560674D01*
X138695533Y-113600500D01*
X139304467Y-113600500D01*
X139912097Y-113560674D01*
X140515821Y-113481192D01*
X141113054Y-113362395D01*
X141701239Y-113204791D01*
X142277856Y-113009056D01*
X142840438Y-112776027D01*
X143386574Y-112506702D01*
X143913926Y-112202236D01*
X144420236Y-111863930D01*
X144903335Y-111493235D01*
X145361156Y-111091737D01*
X145791737Y-110661156D01*
X146193235Y-110203335D01*
X146563930Y-109720236D01*
X146902236Y-109213926D01*
X147206702Y-108686574D01*
X147476027Y-108140438D01*
X147709056Y-107577856D01*
X147904791Y-107001239D01*
X148062395Y-106413054D01*
X148181192Y-105815821D01*
X148260674Y-105212097D01*
X148300500Y-104604467D01*
X148300500Y-104140939D01*
X148303722Y-104131020D01*
X148302601Y-104120652D01*
X148312965Y-104102572D01*
X148319407Y-104082748D01*
X148327845Y-104076617D01*
X148333032Y-104067570D01*
X148352044Y-104059035D01*
X148368907Y-104046784D01*
X148379337Y-104046784D01*
X148388851Y-104042513D01*
X148407373Y-104046784D01*
X148430093Y-104046784D01*
X148448738Y-104055052D01*
X148450467Y-104056043D01*
X148541817Y-104113442D01*
X148596652Y-104139849D01*
X148599738Y-104141618D01*
X148618007Y-104161783D01*
X148637679Y-104180591D01*
X148638693Y-104184616D01*
X148640818Y-104186962D01*
X148641971Y-104197628D01*
X148649500Y-104227505D01*
X148649500Y-104398420D01*
X148680289Y-104592821D01*
X148680291Y-104592826D01*
X148741116Y-104780025D01*
X148830476Y-104955405D01*
X148946172Y-105114646D01*
X149085354Y-105253828D01*
X149244595Y-105369524D01*
X149419975Y-105458884D01*
X149607174Y-105519709D01*
X149607175Y-105519709D01*
X149607178Y-105519710D01*
X149801580Y-105550500D01*
X149801583Y-105550500D01*
X149998420Y-105550500D01*
X150192821Y-105519710D01*
X150192822Y-105519709D01*
X150192826Y-105519709D01*
X150380025Y-105458884D01*
X150555405Y-105369524D01*
X150714646Y-105253828D01*
X150853828Y-105114646D01*
X150969524Y-104955405D01*
X151058884Y-104780025D01*
X151119709Y-104592826D01*
X151119710Y-104592821D01*
X151150500Y-104398420D01*
X151150500Y-104202831D01*
X151169407Y-104144640D01*
X151204724Y-104115159D01*
X151204518Y-104114785D01*
X151206456Y-104113713D01*
X151206557Y-104113629D01*
X151206947Y-104113442D01*
X151468525Y-103949082D01*
X151710056Y-103756467D01*
X151928502Y-103538021D01*
X152121117Y-103296490D01*
X152285477Y-103034912D01*
X152419517Y-102756576D01*
X152521550Y-102464983D01*
X152590293Y-102163799D01*
X152624882Y-101856812D01*
X152624882Y-101547882D01*
X152590293Y-101240895D01*
X152521550Y-100939711D01*
X152419517Y-100648118D01*
X152285477Y-100369782D01*
X152121117Y-100108204D01*
X151928502Y-99866673D01*
X151710056Y-99648227D01*
X151468525Y-99455612D01*
X151357840Y-99386064D01*
X151206948Y-99291252D01*
X150928607Y-99157210D01*
X150637019Y-99055179D01*
X150335832Y-98986435D01*
X150028848Y-98951847D01*
X150028847Y-98951847D01*
X149719917Y-98951847D01*
X149719915Y-98951847D01*
X149412931Y-98986435D01*
X149111744Y-99055179D01*
X148820156Y-99157210D01*
X148541815Y-99291252D01*
X148280238Y-99455612D01*
X148038709Y-99648226D01*
X147820261Y-99866674D01*
X147627647Y-100108203D01*
X147539876Y-100247890D01*
X147492907Y-100287102D01*
X147431860Y-100291218D01*
X147380053Y-100258665D01*
X147367260Y-100239005D01*
X147206709Y-99913438D01*
X146948223Y-99465726D01*
X146902236Y-99386074D01*
X146563930Y-98879764D01*
X146529441Y-98834817D01*
X146193255Y-98396690D01*
X146193246Y-98396679D01*
X146193235Y-98396665D01*
X145894262Y-98055751D01*
X145791754Y-97938863D01*
X145791749Y-97938858D01*
X145791737Y-97938844D01*
X145361156Y-97508263D01*
X145361142Y-97508250D01*
X145361136Y-97508245D01*
X145201634Y-97368366D01*
X144903335Y-97106765D01*
X144903321Y-97106754D01*
X144903309Y-97106744D01*
X144420242Y-96736074D01*
X143913935Y-96397770D01*
X143913921Y-96397761D01*
X143386567Y-96093294D01*
X142840453Y-95823980D01*
X142840442Y-95823975D01*
X142840438Y-95823973D01*
X142277856Y-95590944D01*
X142099271Y-95530322D01*
X141701247Y-95395211D01*
X141113048Y-95237603D01*
X140515816Y-95118807D01*
X140515810Y-95118806D01*
X140132155Y-95068297D01*
X139912097Y-95039326D01*
X139912092Y-95039325D01*
X139912095Y-95039325D01*
X139304467Y-94999500D01*
X138695533Y-94999500D01*
X138087908Y-95039325D01*
X137484189Y-95118806D01*
X137484183Y-95118807D01*
X136886951Y-95237603D01*
X136298752Y-95395211D01*
X135722141Y-95590945D01*
X135159557Y-95823975D01*
X135159546Y-95823980D01*
X134613432Y-96093294D01*
X134086078Y-96397761D01*
X134086064Y-96397770D01*
X133579757Y-96736074D01*
X133096690Y-97106744D01*
X133096657Y-97106772D01*
X132638863Y-97508245D01*
X132638843Y-97508264D01*
X132208264Y-97938843D01*
X132208245Y-97938863D01*
X131806772Y-98396657D01*
X131806744Y-98396690D01*
X131436074Y-98879757D01*
X131097770Y-99386064D01*
X131097761Y-99386078D01*
X130793294Y-99913432D01*
X130523980Y-100459546D01*
X130523975Y-100459557D01*
X130290945Y-101022141D01*
X130095211Y-101598752D01*
X129937603Y-102186951D01*
X129818807Y-102784183D01*
X129818806Y-102784189D01*
X129739325Y-103387908D01*
X129699500Y-103995532D01*
X120500500Y-103995532D01*
X120500500Y-93696446D01*
X120519407Y-93638255D01*
X120568907Y-93602291D01*
X120625119Y-93600819D01*
X120850232Y-93661138D01*
X121149217Y-93700500D01*
X121149218Y-93700500D01*
X121450782Y-93700500D01*
X121450783Y-93700500D01*
X121749768Y-93661138D01*
X122041058Y-93583087D01*
X122319668Y-93467683D01*
X122580832Y-93316900D01*
X122820080Y-93133319D01*
X123033319Y-92920080D01*
X123216900Y-92680832D01*
X123367683Y-92419668D01*
X123483087Y-92141058D01*
X123561138Y-91849768D01*
X123600500Y-91550783D01*
X123600500Y-91249217D01*
X123561138Y-90950232D01*
X123483087Y-90658942D01*
X123367683Y-90380332D01*
X123262991Y-90199000D01*
X123250270Y-90139151D01*
X123275157Y-90083256D01*
X123328145Y-90052663D01*
X123348728Y-90050500D01*
X124493232Y-90050500D01*
X124493233Y-90050500D01*
X124777898Y-90018426D01*
X125057182Y-89954682D01*
X125327572Y-89860068D01*
X125585669Y-89735775D01*
X125828227Y-89583366D01*
X126052195Y-89404757D01*
X126254757Y-89202195D01*
X126433366Y-88978227D01*
X126507293Y-88860573D01*
X138699500Y-88860573D01*
X138699500Y-89141426D01*
X138730944Y-89420507D01*
X138793440Y-89694319D01*
X138886198Y-89959406D01*
X138886199Y-89959409D01*
X139008047Y-90212430D01*
X139008051Y-90212437D01*
X139008055Y-90212445D01*
X139157477Y-90450248D01*
X139332584Y-90669825D01*
X139531175Y-90868416D01*
X139750752Y-91043523D01*
X139988555Y-91192945D01*
X139988566Y-91192950D01*
X139988569Y-91192952D01*
X140105401Y-91249215D01*
X140241592Y-91314801D01*
X140365339Y-91358102D01*
X140506678Y-91407559D01*
X140506681Y-91407559D01*
X140506682Y-91407560D01*
X140652809Y-91440912D01*
X140705332Y-91472292D01*
X140729380Y-91528554D01*
X140729157Y-91548513D01*
X140699500Y-91811735D01*
X140699500Y-93040426D01*
X140730944Y-93319507D01*
X140793440Y-93593319D01*
X140886198Y-93858406D01*
X140886199Y-93858409D01*
X141008047Y-94111430D01*
X141008051Y-94111437D01*
X141008055Y-94111445D01*
X141157477Y-94349248D01*
X141332584Y-94568825D01*
X141531175Y-94767416D01*
X141750752Y-94942523D01*
X141988555Y-95091945D01*
X141988566Y-95091950D01*
X141988569Y-95091952D01*
X142209962Y-95198569D01*
X142241592Y-95213801D01*
X142506682Y-95306560D01*
X142780491Y-95369055D01*
X143059575Y-95400500D01*
X143059576Y-95400500D01*
X143340424Y-95400500D01*
X143340425Y-95400500D01*
X143619509Y-95369055D01*
X143893318Y-95306560D01*
X144158408Y-95213801D01*
X144411445Y-95091945D01*
X144649248Y-94942523D01*
X144868825Y-94767416D01*
X145067416Y-94568825D01*
X145242523Y-94349248D01*
X145391945Y-94111445D01*
X145513801Y-93858408D01*
X145606560Y-93593318D01*
X145669055Y-93319509D01*
X145700500Y-93040425D01*
X145700500Y-93028910D01*
X145719407Y-92970719D01*
X145729490Y-92958912D01*
X146770245Y-91918156D01*
X146824760Y-91890381D01*
X146885192Y-91899952D01*
X146928457Y-91943217D01*
X146936186Y-91963733D01*
X146956399Y-92043115D01*
X147075596Y-92358325D01*
X147075598Y-92358330D01*
X147075599Y-92358331D01*
X147229347Y-92658226D01*
X147403135Y-92920080D01*
X147415706Y-92939021D01*
X147415709Y-92939025D01*
X148524672Y-94260637D01*
X148547593Y-94317367D01*
X148540298Y-94362158D01*
X148501602Y-94455579D01*
X148460063Y-94610606D01*
X148433890Y-94708289D01*
X148433729Y-94708889D01*
X148399500Y-94968879D01*
X148399500Y-95231120D01*
X148421103Y-95395211D01*
X148433730Y-95491116D01*
X148460479Y-95590944D01*
X148501600Y-95744411D01*
X148501604Y-95744424D01*
X148601953Y-95986689D01*
X148601955Y-95986693D01*
X148601957Y-95986697D01*
X148663503Y-96093298D01*
X148733075Y-96213802D01*
X148842624Y-96356568D01*
X148892718Y-96421851D01*
X149078149Y-96607282D01*
X149286197Y-96766924D01*
X149513303Y-96898043D01*
X149755581Y-96998398D01*
X150008884Y-97066270D01*
X150268880Y-97100500D01*
X150268881Y-97100500D01*
X150531119Y-97100500D01*
X150531120Y-97100500D01*
X150791116Y-97066270D01*
X150801844Y-97063395D01*
X150862941Y-97066593D01*
X150903308Y-97095384D01*
X151611053Y-97938843D01*
X151649752Y-97984962D01*
X151893920Y-98217248D01*
X152162561Y-98420736D01*
X152452296Y-98592866D01*
X152452301Y-98592868D01*
X152452304Y-98592870D01*
X152526894Y-98626526D01*
X152759482Y-98731474D01*
X153080255Y-98834815D01*
X153410581Y-98901592D01*
X153746309Y-98930965D01*
X154083212Y-98922562D01*
X154417057Y-98876493D01*
X154743646Y-98793333D01*
X155058869Y-98674131D01*
X155358764Y-98520383D01*
X155639559Y-98334025D01*
X155897722Y-98117400D01*
X156130008Y-97873232D01*
X156333496Y-97604591D01*
X156505626Y-97314857D01*
X156644234Y-97007670D01*
X156747575Y-96686897D01*
X156814352Y-96356571D01*
X156843725Y-96020843D01*
X156835322Y-95683940D01*
X156789253Y-95350095D01*
X156706093Y-95023507D01*
X156685435Y-94968879D01*
X156586893Y-94708289D01*
X156586892Y-94708288D01*
X156586891Y-94708284D01*
X156433143Y-94408389D01*
X156246785Y-94127594D01*
X156246785Y-94127593D01*
X152012740Y-89081654D01*
X151768569Y-88849365D01*
X151499930Y-88645879D01*
X151499931Y-88645879D01*
X151499929Y-88645878D01*
X151210194Y-88473748D01*
X151210191Y-88473746D01*
X151210185Y-88473743D01*
X150903009Y-88335140D01*
X150641417Y-88250865D01*
X150591828Y-88215024D01*
X150572775Y-88156881D01*
X150591537Y-88098643D01*
X150601765Y-88086636D01*
X154567416Y-84120987D01*
X154742523Y-83901410D01*
X154891945Y-83663607D01*
X154915757Y-83614160D01*
X154967034Y-83507683D01*
X154982235Y-83476117D01*
X155013801Y-83410570D01*
X155106560Y-83145480D01*
X155169055Y-82871671D01*
X155200500Y-82592587D01*
X155200500Y-80859575D01*
X155169055Y-80580491D01*
X155106560Y-80306682D01*
X155013801Y-80041592D01*
X154891945Y-79788555D01*
X154742523Y-79550752D01*
X154567416Y-79331175D01*
X154368825Y-79132584D01*
X154149248Y-78957477D01*
X153911445Y-78808055D01*
X153911437Y-78808051D01*
X153911430Y-78808047D01*
X153658409Y-78686199D01*
X153658406Y-78686198D01*
X153393319Y-78593440D01*
X153119507Y-78530944D01*
X152840426Y-78499500D01*
X152840425Y-78499500D01*
X152559575Y-78499500D01*
X152559573Y-78499500D01*
X152280492Y-78530944D01*
X152006680Y-78593440D01*
X151741593Y-78686198D01*
X151741590Y-78686199D01*
X151488569Y-78808047D01*
X151488557Y-78808054D01*
X151250751Y-78957477D01*
X151031176Y-79132583D01*
X150832583Y-79331176D01*
X150657477Y-79550751D01*
X150508054Y-79788557D01*
X150508047Y-79788569D01*
X150386199Y-80041590D01*
X150386198Y-80041593D01*
X150293440Y-80306680D01*
X150230944Y-80580492D01*
X150199500Y-80859573D01*
X150199500Y-81375413D01*
X150180593Y-81433604D01*
X150170504Y-81445417D01*
X148669504Y-82946417D01*
X148614987Y-82974194D01*
X148554555Y-82964623D01*
X148511290Y-82921358D01*
X148500500Y-82876413D01*
X148500500Y-80859575D01*
X148469055Y-80580491D01*
X148406560Y-80306682D01*
X148313801Y-80041592D01*
X148191945Y-79788555D01*
X148042523Y-79550752D01*
X147867416Y-79331175D01*
X147668825Y-79132584D01*
X147449248Y-78957477D01*
X147211445Y-78808055D01*
X147211437Y-78808051D01*
X147211430Y-78808047D01*
X146958409Y-78686199D01*
X146958406Y-78686198D01*
X146693319Y-78593440D01*
X146419507Y-78530944D01*
X146140426Y-78499500D01*
X146140425Y-78499500D01*
X145859575Y-78499500D01*
X145859573Y-78499500D01*
X145580492Y-78530944D01*
X145306680Y-78593440D01*
X145041593Y-78686198D01*
X145041590Y-78686199D01*
X144788569Y-78808047D01*
X144788557Y-78808054D01*
X144550751Y-78957477D01*
X144331176Y-79132583D01*
X144132583Y-79331176D01*
X143957477Y-79550751D01*
X143808054Y-79788557D01*
X143808047Y-79788569D01*
X143686199Y-80041590D01*
X143686198Y-80041593D01*
X143593440Y-80306680D01*
X143530944Y-80580492D01*
X143499500Y-80859573D01*
X143499500Y-83124251D01*
X143480593Y-83182442D01*
X143470504Y-83194255D01*
X139332583Y-87332176D01*
X139157477Y-87551751D01*
X139008054Y-87789557D01*
X139008047Y-87789569D01*
X138886199Y-88042590D01*
X138886198Y-88042593D01*
X138793440Y-88307680D01*
X138730944Y-88581492D01*
X138699500Y-88860573D01*
X126507293Y-88860573D01*
X126585775Y-88735669D01*
X126710068Y-88477572D01*
X126804682Y-88207182D01*
X126868426Y-87927898D01*
X126900500Y-87643233D01*
X126900500Y-87356767D01*
X126868426Y-87072102D01*
X126804682Y-86792818D01*
X126710068Y-86522428D01*
X126585776Y-86264332D01*
X126433365Y-86021772D01*
X126300499Y-85855164D01*
X126254757Y-85797805D01*
X126052195Y-85595243D01*
X126046751Y-85590901D01*
X126037773Y-85583741D01*
X126004067Y-85532677D01*
X126000500Y-85506341D01*
X126000500Y-84493658D01*
X126019407Y-84435467D01*
X126037773Y-84416257D01*
X126052195Y-84404757D01*
X126254757Y-84202195D01*
X126433366Y-83978227D01*
X126585775Y-83735669D01*
X126620480Y-83663604D01*
X126672277Y-83556046D01*
X126714560Y-83511821D01*
X126761473Y-83500000D01*
X127799999Y-83500000D01*
X127800000Y-83500000D01*
X127800000Y-78500000D01*
X141371938Y-78500000D01*
X141378600Y-78509971D01*
X141490025Y-78621397D01*
X141500000Y-78628061D01*
X141500000Y-78500001D01*
X142500000Y-78500001D01*
X142500000Y-78628061D01*
X142509974Y-78621397D01*
X142621399Y-78509971D01*
X142628062Y-78500000D01*
X142500001Y-78500000D01*
X142500000Y-78500001D01*
X141500000Y-78500001D01*
X141499999Y-78500000D01*
X141371938Y-78500000D01*
X127800000Y-78500000D01*
X127800000Y-77500000D01*
X141371938Y-77500000D01*
X141499999Y-77500000D01*
X141500000Y-77499999D01*
X142500000Y-77499999D01*
X142500001Y-77500000D01*
X142628062Y-77500000D01*
X142621401Y-77490031D01*
X142509968Y-77378598D01*
X142500000Y-77371937D01*
X142500000Y-77499999D01*
X141500000Y-77499999D01*
X141500000Y-77371937D01*
X141490031Y-77378598D01*
X141378598Y-77490031D01*
X141371938Y-77500000D01*
X127800000Y-77500000D01*
X127800000Y-76498918D01*
X127818907Y-76440727D01*
X127838731Y-76420377D01*
X127887928Y-76382628D01*
X128082628Y-76187928D01*
X128250249Y-75969479D01*
X128387923Y-75731021D01*
X128493295Y-75476632D01*
X128564560Y-75210666D01*
X128600500Y-74937674D01*
X128600500Y-74662326D01*
X128564560Y-74389334D01*
X128493295Y-74123368D01*
X128387923Y-73868979D01*
X128250249Y-73630521D01*
X128082628Y-73412072D01*
X128014333Y-73343777D01*
X127986558Y-73289263D01*
X127996129Y-73228831D01*
X128039394Y-73185566D01*
X128041351Y-73184596D01*
X128206789Y-73104926D01*
X128473123Y-72937577D01*
X128719044Y-72741461D01*
X130131009Y-71329496D01*
X130185526Y-71301719D01*
X130201013Y-71300500D01*
X132242727Y-71300500D01*
X133973562Y-71300500D01*
X134031753Y-71319407D01*
X134043559Y-71329490D01*
X134056530Y-71342461D01*
X134302451Y-71538577D01*
X134568785Y-71705926D01*
X134568796Y-71705931D01*
X134568799Y-71705933D01*
X134662951Y-71751274D01*
X134852180Y-71842402D01*
X135149074Y-71946289D01*
X135455734Y-72016282D01*
X135768301Y-72051500D01*
X135768302Y-72051500D01*
X139231691Y-72051500D01*
X139231699Y-72051500D01*
X139235045Y-72051123D01*
X139246130Y-72050500D01*
X139407272Y-72050500D01*
X139407273Y-72050500D01*
X139719840Y-72015282D01*
X140026500Y-71945290D01*
X140323394Y-71841402D01*
X140606789Y-71704926D01*
X140873123Y-71537577D01*
X141119044Y-71341461D01*
X144031009Y-68429496D01*
X144085526Y-68401719D01*
X144101013Y-68400500D01*
X146657272Y-68400500D01*
X146657273Y-68400500D01*
X146969840Y-68365282D01*
X147276500Y-68295289D01*
X147573394Y-68191402D01*
X147856789Y-68054926D01*
X148123123Y-67887577D01*
X148369044Y-67691461D01*
X148591461Y-67469044D01*
X148787577Y-67223123D01*
X148954926Y-66956789D01*
X148957210Y-66952045D01*
X148999488Y-66907819D01*
X149059689Y-66896888D01*
X149114817Y-66923430D01*
X149130235Y-66942322D01*
X149212423Y-67073123D01*
X149408539Y-67319044D01*
X149630956Y-67541461D01*
X149876877Y-67737577D01*
X150143211Y-67904926D01*
X150143222Y-67904931D01*
X150143225Y-67904933D01*
X150237377Y-67950274D01*
X150426606Y-68041402D01*
X150723500Y-68145289D01*
X151030160Y-68215282D01*
X151342727Y-68250500D01*
X151342728Y-68250500D01*
X151657272Y-68250500D01*
X151657273Y-68250500D01*
X151969840Y-68215282D01*
X152276500Y-68145289D01*
X152573394Y-68041402D01*
X152856789Y-67904926D01*
X153123123Y-67737577D01*
X153369044Y-67541461D01*
X153591461Y-67319044D01*
X153787577Y-67073123D01*
X153954926Y-66806789D01*
X154091402Y-66523394D01*
X154195289Y-66226500D01*
X154265282Y-65919840D01*
X154300500Y-65607273D01*
X154300500Y-64182779D01*
X154319407Y-64124588D01*
X154368907Y-64088624D01*
X154430093Y-64088624D01*
X154437374Y-64091310D01*
X154658942Y-64183087D01*
X154950232Y-64261138D01*
X155249217Y-64300500D01*
X155249218Y-64300500D01*
X155550782Y-64300500D01*
X155550783Y-64300500D01*
X155849768Y-64261138D01*
X156141058Y-64183087D01*
X156419668Y-64067683D01*
X156680832Y-63916900D01*
X156920080Y-63733319D01*
X157133319Y-63520080D01*
X157316900Y-63280832D01*
X157316902Y-63280828D01*
X157318185Y-63278909D01*
X157318667Y-63278528D01*
X157318873Y-63278261D01*
X157318940Y-63278313D01*
X157366235Y-63241030D01*
X157427373Y-63238628D01*
X157478247Y-63272621D01*
G37*
%TD.AperFunction*%
%TD*%
M02*
