%TF.GenerationSoftware,KiCad,Pcbnew,9.0.2*%
%TF.CreationDate,2025-11-13T09:21:06+01:00*%
%TF.ProjectId,Platine_Grinder_Triac_smd_v2.1,506c6174-696e-4655-9f47-72696e646572,rev?*%
%TF.SameCoordinates,Original*%
%TF.FileFunction,Paste,Top*%
%TF.FilePolarity,Positive*%
%FSLAX46Y46*%
G04 Gerber Fmt 4.6, Leading zero omitted, Abs format (unit mm)*
G04 Created by KiCad (PCBNEW 9.0.2) date 2025-11-13 09:21:06*
%MOMM*%
%LPD*%
G01*
G04 APERTURE LIST*
G04 Aperture macros list*
%AMRoundRect*
0 Rectangle with rounded corners*
0 $1 Rounding radius*
0 $2 $3 $4 $5 $6 $7 $8 $9 X,Y pos of 4 corners*
0 Add a 4 corners polygon primitive as box body*
4,1,4,$2,$3,$4,$5,$6,$7,$8,$9,$2,$3,0*
0 Add four circle primitives for the rounded corners*
1,1,$1+$1,$2,$3*
1,1,$1+$1,$4,$5*
1,1,$1+$1,$6,$7*
1,1,$1+$1,$8,$9*
0 Add four rect primitives between the rounded corners*
20,1,$1+$1,$2,$3,$4,$5,0*
20,1,$1+$1,$4,$5,$6,$7,0*
20,1,$1+$1,$6,$7,$8,$9,0*
20,1,$1+$1,$8,$9,$2,$3,0*%
%AMHorizOval*
0 Thick line with rounded ends*
0 $1 width*
0 $2 $3 position (X,Y) of the first rounded end (center of the circle)*
0 $4 $5 position (X,Y) of the second rounded end (center of the circle)*
0 Add line between two ends*
20,1,$1,$2,$3,$4,$5,0*
0 Add two circle primitives to create the rounded ends*
1,1,$1,$2,$3*
1,1,$1,$4,$5*%
G04 Aperture macros list end*
%ADD10RoundRect,0.250000X-0.325000X-0.650000X0.325000X-0.650000X0.325000X0.650000X-0.325000X0.650000X0*%
%ADD11RoundRect,0.250000X-0.312500X-0.625000X0.312500X-0.625000X0.312500X0.625000X-0.312500X0.625000X0*%
%ADD12RoundRect,0.135000X-0.185000X0.135000X-0.185000X-0.135000X0.185000X-0.135000X0.185000X0.135000X0*%
%ADD13RoundRect,0.250000X-1.400000X-1.000000X1.400000X-1.000000X1.400000X1.000000X-1.400000X1.000000X0*%
%ADD14RoundRect,0.249999X-1.450001X0.450001X-1.450001X-0.450001X1.450001X-0.450001X1.450001X0.450001X0*%
%ADD15RoundRect,0.250000X-0.700000X0.275000X-0.700000X-0.275000X0.700000X-0.275000X0.700000X0.275000X0*%
%ADD16HorizOval,3.000000X-2.008711X2.393889X2.008711X-2.393889X0*%
%ADD17C,4.000000*%
%ADD18RoundRect,0.150000X-0.587500X-0.150000X0.587500X-0.150000X0.587500X0.150000X-0.587500X0.150000X0*%
%ADD19RoundRect,0.250000X1.400000X1.000000X-1.400000X1.000000X-1.400000X-1.000000X1.400000X-1.000000X0*%
%ADD20RoundRect,0.250000X-0.650000X1.000000X-0.650000X-1.000000X0.650000X-1.000000X0.650000X1.000000X0*%
%ADD21RoundRect,0.250000X-0.275000X-0.700000X0.275000X-0.700000X0.275000X0.700000X-0.275000X0.700000X0*%
%ADD22RoundRect,0.250000X-2.375000X2.025000X-2.375000X-2.025000X2.375000X-2.025000X2.375000X2.025000X0*%
%ADD23RoundRect,0.250000X-0.300000X2.050000X-0.300000X-2.050000X0.300000X-2.050000X0.300000X2.050000X0*%
%ADD24RoundRect,0.135000X0.135000X0.185000X-0.135000X0.185000X-0.135000X-0.185000X0.135000X-0.185000X0*%
G04 APERTURE END LIST*
D10*
%TO.C,C7*%
X127025000Y-111000000D03*
X129975000Y-111000000D03*
%TD*%
D11*
%TO.C,R3*%
X122762500Y-74800000D03*
X125687500Y-74800000D03*
%TD*%
D10*
%TO.C,C10*%
X152425000Y-99800000D03*
X155375000Y-99800000D03*
%TD*%
%TO.C,C8*%
X152425000Y-103500000D03*
X155375000Y-103500000D03*
%TD*%
D12*
%TO.C,R2*%
X125600000Y-79090000D03*
X125600000Y-80110000D03*
%TD*%
D13*
%TO.C,D2*%
X146000000Y-79400000D03*
X146000000Y-86200000D03*
%TD*%
D14*
%TO.C,C1*%
X143200000Y-89850000D03*
X143200000Y-93950000D03*
%TD*%
D15*
%TO.C,FB1*%
X125600000Y-101325000D03*
X125600000Y-104475000D03*
%TD*%
D16*
%TO.C,DC-Motor1*%
X126168755Y-115066693D03*
X151831245Y-93533307D03*
D17*
X134553494Y-114558099D03*
X149874382Y-101702347D03*
%TD*%
D10*
%TO.C,C4*%
X152425000Y-108100000D03*
X155375000Y-108100000D03*
%TD*%
D18*
%TO.C,Q1*%
X122662500Y-76950000D03*
X122662500Y-78850000D03*
X124537500Y-77900000D03*
%TD*%
D13*
%TO.C,D4*%
X152700000Y-69600000D03*
X152700000Y-76400000D03*
%TD*%
D19*
%TO.C,D1*%
X146000000Y-76400000D03*
X146000000Y-69600000D03*
%TD*%
D20*
%TO.C,D6*%
X129500000Y-92600000D03*
X129500000Y-96600000D03*
%TD*%
D10*
%TO.C,C6*%
X152425000Y-105800000D03*
X155375000Y-105800000D03*
%TD*%
%TO.C,C5*%
X125625000Y-108700000D03*
X128575000Y-108700000D03*
%TD*%
D21*
%TO.C,FB2*%
X145925000Y-95800000D03*
X149075000Y-95800000D03*
%TD*%
D10*
%TO.C,C3*%
X125625000Y-106400000D03*
X128575000Y-106400000D03*
%TD*%
D14*
%TO.C,C2*%
X139300000Y-89850000D03*
X139300000Y-93950000D03*
%TD*%
D22*
%TO.C,Q2*%
X137775000Y-80075000D03*
X132225000Y-80075000D03*
X137775000Y-84925000D03*
X132225000Y-84925000D03*
D23*
X137540000Y-73350000D03*
X132460000Y-73350000D03*
%TD*%
D10*
%TO.C,C9*%
X128475000Y-113300000D03*
X131425000Y-113300000D03*
%TD*%
D24*
%TO.C,R1*%
X126010000Y-76600000D03*
X124990000Y-76600000D03*
%TD*%
D20*
%TO.C,D5*%
X133000000Y-91000000D03*
X133000000Y-95000000D03*
%TD*%
D19*
%TO.C,D3*%
X152700000Y-86200000D03*
X152700000Y-79400000D03*
%TD*%
M02*
