%TF.GenerationSoftware,KiCad,Pcbnew,9.0.2*%
%TF.CreationDate,2025-11-13T09:21:06+01:00*%
%TF.ProjectId,Platine_Grinder_Triac_smd_v2.1,506c6174-696e-4655-9f47-72696e646572,rev?*%
%TF.SameCoordinates,Original*%
%TF.FileFunction,Legend,Top*%
%TF.FilePolarity,Positive*%
%FSLAX46Y46*%
G04 Gerber Fmt 4.6, Leading zero omitted, Abs format (unit mm)*
G04 Created by KiCad (PCBNEW 9.0.2) date 2025-11-13 09:21:06*
%MOMM*%
%LPD*%
G01*
G04 APERTURE LIST*
%ADD10C,0.300000*%
%ADD11C,0.100000*%
%ADD12C,0.150000*%
%ADD13C,0.120000*%
G04 APERTURE END LIST*
D10*
X153940225Y-92300828D02*
X154440225Y-93800828D01*
X154440225Y-93800828D02*
X154940225Y-92300828D01*
X155440224Y-93229400D02*
X156583082Y-93229400D01*
D11*
X133634990Y-64524687D02*
X133596895Y-64600877D01*
X133596895Y-64600877D02*
X133596895Y-64715163D01*
X133596895Y-64715163D02*
X133634990Y-64829449D01*
X133634990Y-64829449D02*
X133711180Y-64905639D01*
X133711180Y-64905639D02*
X133787371Y-64943734D01*
X133787371Y-64943734D02*
X133939752Y-64981830D01*
X133939752Y-64981830D02*
X134054038Y-64981830D01*
X134054038Y-64981830D02*
X134206419Y-64943734D01*
X134206419Y-64943734D02*
X134282609Y-64905639D01*
X134282609Y-64905639D02*
X134358800Y-64829449D01*
X134358800Y-64829449D02*
X134396895Y-64715163D01*
X134396895Y-64715163D02*
X134396895Y-64638972D01*
X134396895Y-64638972D02*
X134358800Y-64524687D01*
X134358800Y-64524687D02*
X134320704Y-64486591D01*
X134320704Y-64486591D02*
X134054038Y-64486591D01*
X134054038Y-64486591D02*
X134054038Y-64638972D01*
X134396895Y-64143734D02*
X133863561Y-64143734D01*
X134015942Y-64143734D02*
X133939752Y-64105639D01*
X133939752Y-64105639D02*
X133901657Y-64067544D01*
X133901657Y-64067544D02*
X133863561Y-63991353D01*
X133863561Y-63991353D02*
X133863561Y-63915163D01*
X134396895Y-63648496D02*
X133863561Y-63648496D01*
X133596895Y-63648496D02*
X133634990Y-63686592D01*
X133634990Y-63686592D02*
X133673085Y-63648496D01*
X133673085Y-63648496D02*
X133634990Y-63610401D01*
X133634990Y-63610401D02*
X133596895Y-63648496D01*
X133596895Y-63648496D02*
X133673085Y-63648496D01*
X133673085Y-63305640D02*
X133634990Y-63267544D01*
X133634990Y-63267544D02*
X133596895Y-63191354D01*
X133596895Y-63191354D02*
X133596895Y-63000878D01*
X133596895Y-63000878D02*
X133634990Y-62924687D01*
X133634990Y-62924687D02*
X133673085Y-62886592D01*
X133673085Y-62886592D02*
X133749276Y-62848497D01*
X133749276Y-62848497D02*
X133825466Y-62848497D01*
X133825466Y-62848497D02*
X133939752Y-62886592D01*
X133939752Y-62886592D02*
X134396895Y-63343735D01*
X134396895Y-63343735D02*
X134396895Y-62848497D01*
X139203884Y-64172419D02*
X139203884Y-63172419D01*
X139203884Y-63172419D02*
X139775312Y-64172419D01*
X139775312Y-64172419D02*
X139775312Y-63172419D01*
X122530074Y-72872419D02*
X122053884Y-72872419D01*
X122053884Y-72872419D02*
X122053884Y-71872419D01*
X122625313Y-72967657D02*
X123387217Y-72967657D01*
X123625313Y-72872419D02*
X123625313Y-71872419D01*
X124101503Y-72872419D02*
X124101503Y-71872419D01*
X124101503Y-71872419D02*
X124672931Y-72872419D01*
X124672931Y-72872419D02*
X124672931Y-71872419D01*
X130780074Y-64372419D02*
X130303884Y-64372419D01*
X130303884Y-64372419D02*
X130303884Y-63372419D01*
D10*
X130040225Y-116500828D02*
X130540225Y-118000828D01*
X130540225Y-118000828D02*
X131040225Y-116500828D01*
X131540224Y-117429400D02*
X132683082Y-117429400D01*
X132111653Y-118000828D02*
X132111653Y-116857971D01*
D11*
X122053884Y-64372419D02*
X122053884Y-63372419D01*
X122053884Y-63372419D02*
X122625312Y-64372419D01*
X122625312Y-64372419D02*
X122625312Y-63372419D01*
X122863408Y-64467657D02*
X123625312Y-64467657D01*
X123863408Y-64372419D02*
X123863408Y-63372419D01*
X124339598Y-64372419D02*
X124339598Y-63372419D01*
X124339598Y-63372419D02*
X124911026Y-64372419D01*
X124911026Y-64372419D02*
X124911026Y-63372419D01*
X148408940Y-65062782D02*
X148408940Y-65443734D01*
X148408940Y-65443734D02*
X147608940Y-65443734D01*
X148408940Y-64796115D02*
X147875606Y-64796115D01*
X147608940Y-64796115D02*
X147647035Y-64834211D01*
X147647035Y-64834211D02*
X147685130Y-64796115D01*
X147685130Y-64796115D02*
X147647035Y-64758020D01*
X147647035Y-64758020D02*
X147608940Y-64796115D01*
X147608940Y-64796115D02*
X147685130Y-64796115D01*
X148408940Y-64415163D02*
X147875606Y-64415163D01*
X147951797Y-64415163D02*
X147913702Y-64377068D01*
X147913702Y-64377068D02*
X147875606Y-64300878D01*
X147875606Y-64300878D02*
X147875606Y-64186592D01*
X147875606Y-64186592D02*
X147913702Y-64110401D01*
X147913702Y-64110401D02*
X147989892Y-64072306D01*
X147989892Y-64072306D02*
X148408940Y-64072306D01*
X147989892Y-64072306D02*
X147913702Y-64034211D01*
X147913702Y-64034211D02*
X147875606Y-63958020D01*
X147875606Y-63958020D02*
X147875606Y-63843735D01*
X147875606Y-63843735D02*
X147913702Y-63767544D01*
X147913702Y-63767544D02*
X147989892Y-63729449D01*
X147989892Y-63729449D02*
X148408940Y-63729449D01*
X148408940Y-63348496D02*
X147875606Y-63348496D01*
X147608940Y-63348496D02*
X147647035Y-63386592D01*
X147647035Y-63386592D02*
X147685130Y-63348496D01*
X147685130Y-63348496D02*
X147647035Y-63310401D01*
X147647035Y-63310401D02*
X147608940Y-63348496D01*
X147608940Y-63348496D02*
X147685130Y-63348496D01*
X147875606Y-63081830D02*
X147875606Y-62777068D01*
X147608940Y-62967544D02*
X148294654Y-62967544D01*
X148294654Y-62967544D02*
X148370845Y-62929449D01*
X148370845Y-62929449D02*
X148408940Y-62853259D01*
X148408940Y-62853259D02*
X148408940Y-62777068D01*
X148370845Y-62205639D02*
X148408940Y-62281830D01*
X148408940Y-62281830D02*
X148408940Y-62434211D01*
X148408940Y-62434211D02*
X148370845Y-62510401D01*
X148370845Y-62510401D02*
X148294654Y-62548497D01*
X148294654Y-62548497D02*
X147989892Y-62548497D01*
X147989892Y-62548497D02*
X147913702Y-62510401D01*
X147913702Y-62510401D02*
X147875606Y-62434211D01*
X147875606Y-62434211D02*
X147875606Y-62281830D01*
X147875606Y-62281830D02*
X147913702Y-62205639D01*
X147913702Y-62205639D02*
X147989892Y-62167544D01*
X147989892Y-62167544D02*
X148066083Y-62167544D01*
X148066083Y-62167544D02*
X148142273Y-62548497D01*
X148408940Y-61824687D02*
X147875606Y-61824687D01*
X148027987Y-61824687D02*
X147951797Y-61786592D01*
X147951797Y-61786592D02*
X147913702Y-61748497D01*
X147913702Y-61748497D02*
X147875606Y-61672306D01*
X147875606Y-61672306D02*
X147875606Y-61596116D01*
D10*
X120340225Y-126300828D02*
X121197368Y-126300828D01*
X120768796Y-127800828D02*
X120768796Y-126300828D01*
X121697367Y-127800828D02*
X121697367Y-126800828D01*
X121697367Y-127086542D02*
X121768796Y-126943685D01*
X121768796Y-126943685D02*
X121840225Y-126872257D01*
X121840225Y-126872257D02*
X121983082Y-126800828D01*
X121983082Y-126800828D02*
X122125939Y-126800828D01*
X122625938Y-127800828D02*
X122625938Y-126800828D01*
X122625938Y-126300828D02*
X122554510Y-126372257D01*
X122554510Y-126372257D02*
X122625938Y-126443685D01*
X122625938Y-126443685D02*
X122697367Y-126372257D01*
X122697367Y-126372257D02*
X122625938Y-126300828D01*
X122625938Y-126300828D02*
X122625938Y-126443685D01*
X123983082Y-127800828D02*
X123983082Y-127015114D01*
X123983082Y-127015114D02*
X123911653Y-126872257D01*
X123911653Y-126872257D02*
X123768796Y-126800828D01*
X123768796Y-126800828D02*
X123483082Y-126800828D01*
X123483082Y-126800828D02*
X123340224Y-126872257D01*
X123983082Y-127729400D02*
X123840224Y-127800828D01*
X123840224Y-127800828D02*
X123483082Y-127800828D01*
X123483082Y-127800828D02*
X123340224Y-127729400D01*
X123340224Y-127729400D02*
X123268796Y-127586542D01*
X123268796Y-127586542D02*
X123268796Y-127443685D01*
X123268796Y-127443685D02*
X123340224Y-127300828D01*
X123340224Y-127300828D02*
X123483082Y-127229400D01*
X123483082Y-127229400D02*
X123840224Y-127229400D01*
X123840224Y-127229400D02*
X123983082Y-127157971D01*
X125340225Y-127729400D02*
X125197367Y-127800828D01*
X125197367Y-127800828D02*
X124911653Y-127800828D01*
X124911653Y-127800828D02*
X124768796Y-127729400D01*
X124768796Y-127729400D02*
X124697367Y-127657971D01*
X124697367Y-127657971D02*
X124625939Y-127515114D01*
X124625939Y-127515114D02*
X124625939Y-127086542D01*
X124625939Y-127086542D02*
X124697367Y-126943685D01*
X124697367Y-126943685D02*
X124768796Y-126872257D01*
X124768796Y-126872257D02*
X124911653Y-126800828D01*
X124911653Y-126800828D02*
X125197367Y-126800828D01*
X125197367Y-126800828D02*
X125340225Y-126872257D01*
X125625939Y-127943685D02*
X126768796Y-127943685D01*
X127340224Y-127800828D02*
X127197367Y-127729400D01*
X127197367Y-127729400D02*
X127125938Y-127657971D01*
X127125938Y-127657971D02*
X127054510Y-127515114D01*
X127054510Y-127515114D02*
X127054510Y-127086542D01*
X127054510Y-127086542D02*
X127125938Y-126943685D01*
X127125938Y-126943685D02*
X127197367Y-126872257D01*
X127197367Y-126872257D02*
X127340224Y-126800828D01*
X127340224Y-126800828D02*
X127554510Y-126800828D01*
X127554510Y-126800828D02*
X127697367Y-126872257D01*
X127697367Y-126872257D02*
X127768796Y-126943685D01*
X127768796Y-126943685D02*
X127840224Y-127086542D01*
X127840224Y-127086542D02*
X127840224Y-127515114D01*
X127840224Y-127515114D02*
X127768796Y-127657971D01*
X127768796Y-127657971D02*
X127697367Y-127729400D01*
X127697367Y-127729400D02*
X127554510Y-127800828D01*
X127554510Y-127800828D02*
X127340224Y-127800828D01*
X128483081Y-126800828D02*
X128483081Y-127800828D01*
X128483081Y-126943685D02*
X128554510Y-126872257D01*
X128554510Y-126872257D02*
X128697367Y-126800828D01*
X128697367Y-126800828D02*
X128911653Y-126800828D01*
X128911653Y-126800828D02*
X129054510Y-126872257D01*
X129054510Y-126872257D02*
X129125939Y-127015114D01*
X129125939Y-127015114D02*
X129125939Y-127800828D01*
X129483082Y-127943685D02*
X130625939Y-127943685D01*
X131768796Y-126372257D02*
X131625939Y-126300828D01*
X131625939Y-126300828D02*
X131411653Y-126300828D01*
X131411653Y-126300828D02*
X131197367Y-126372257D01*
X131197367Y-126372257D02*
X131054510Y-126515114D01*
X131054510Y-126515114D02*
X130983081Y-126657971D01*
X130983081Y-126657971D02*
X130911653Y-126943685D01*
X130911653Y-126943685D02*
X130911653Y-127157971D01*
X130911653Y-127157971D02*
X130983081Y-127443685D01*
X130983081Y-127443685D02*
X131054510Y-127586542D01*
X131054510Y-127586542D02*
X131197367Y-127729400D01*
X131197367Y-127729400D02*
X131411653Y-127800828D01*
X131411653Y-127800828D02*
X131554510Y-127800828D01*
X131554510Y-127800828D02*
X131768796Y-127729400D01*
X131768796Y-127729400D02*
X131840224Y-127657971D01*
X131840224Y-127657971D02*
X131840224Y-127157971D01*
X131840224Y-127157971D02*
X131554510Y-127157971D01*
X132483081Y-127800828D02*
X132483081Y-126800828D01*
X132483081Y-127086542D02*
X132554510Y-126943685D01*
X132554510Y-126943685D02*
X132625939Y-126872257D01*
X132625939Y-126872257D02*
X132768796Y-126800828D01*
X132768796Y-126800828D02*
X132911653Y-126800828D01*
X133411652Y-127800828D02*
X133411652Y-126800828D01*
X133411652Y-126300828D02*
X133340224Y-126372257D01*
X133340224Y-126372257D02*
X133411652Y-126443685D01*
X133411652Y-126443685D02*
X133483081Y-126372257D01*
X133483081Y-126372257D02*
X133411652Y-126300828D01*
X133411652Y-126300828D02*
X133411652Y-126443685D01*
X134125938Y-126800828D02*
X134125938Y-127800828D01*
X134125938Y-126943685D02*
X134197367Y-126872257D01*
X134197367Y-126872257D02*
X134340224Y-126800828D01*
X134340224Y-126800828D02*
X134554510Y-126800828D01*
X134554510Y-126800828D02*
X134697367Y-126872257D01*
X134697367Y-126872257D02*
X134768796Y-127015114D01*
X134768796Y-127015114D02*
X134768796Y-127800828D01*
X136125939Y-127800828D02*
X136125939Y-126300828D01*
X136125939Y-127729400D02*
X135983081Y-127800828D01*
X135983081Y-127800828D02*
X135697367Y-127800828D01*
X135697367Y-127800828D02*
X135554510Y-127729400D01*
X135554510Y-127729400D02*
X135483081Y-127657971D01*
X135483081Y-127657971D02*
X135411653Y-127515114D01*
X135411653Y-127515114D02*
X135411653Y-127086542D01*
X135411653Y-127086542D02*
X135483081Y-126943685D01*
X135483081Y-126943685D02*
X135554510Y-126872257D01*
X135554510Y-126872257D02*
X135697367Y-126800828D01*
X135697367Y-126800828D02*
X135983081Y-126800828D01*
X135983081Y-126800828D02*
X136125939Y-126872257D01*
X137411653Y-127729400D02*
X137268796Y-127800828D01*
X137268796Y-127800828D02*
X136983082Y-127800828D01*
X136983082Y-127800828D02*
X136840224Y-127729400D01*
X136840224Y-127729400D02*
X136768796Y-127586542D01*
X136768796Y-127586542D02*
X136768796Y-127015114D01*
X136768796Y-127015114D02*
X136840224Y-126872257D01*
X136840224Y-126872257D02*
X136983082Y-126800828D01*
X136983082Y-126800828D02*
X137268796Y-126800828D01*
X137268796Y-126800828D02*
X137411653Y-126872257D01*
X137411653Y-126872257D02*
X137483082Y-127015114D01*
X137483082Y-127015114D02*
X137483082Y-127157971D01*
X137483082Y-127157971D02*
X136768796Y-127300828D01*
X138125938Y-127800828D02*
X138125938Y-126800828D01*
X138125938Y-127086542D02*
X138197367Y-126943685D01*
X138197367Y-126943685D02*
X138268796Y-126872257D01*
X138268796Y-126872257D02*
X138411653Y-126800828D01*
X138411653Y-126800828D02*
X138554510Y-126800828D01*
X138697367Y-127943685D02*
X139840224Y-127943685D01*
X140054509Y-126800828D02*
X140411652Y-127800828D01*
X140411652Y-127800828D02*
X140768795Y-126800828D01*
X141268795Y-126443685D02*
X141340223Y-126372257D01*
X141340223Y-126372257D02*
X141483081Y-126300828D01*
X141483081Y-126300828D02*
X141840223Y-126300828D01*
X141840223Y-126300828D02*
X141983081Y-126372257D01*
X141983081Y-126372257D02*
X142054509Y-126443685D01*
X142054509Y-126443685D02*
X142125938Y-126586542D01*
X142125938Y-126586542D02*
X142125938Y-126729400D01*
X142125938Y-126729400D02*
X142054509Y-126943685D01*
X142054509Y-126943685D02*
X141197366Y-127800828D01*
X141197366Y-127800828D02*
X142125938Y-127800828D01*
X142768794Y-127657971D02*
X142840223Y-127729400D01*
X142840223Y-127729400D02*
X142768794Y-127800828D01*
X142768794Y-127800828D02*
X142697366Y-127729400D01*
X142697366Y-127729400D02*
X142768794Y-127657971D01*
X142768794Y-127657971D02*
X142768794Y-127800828D01*
X144268795Y-127800828D02*
X143411652Y-127800828D01*
X143840223Y-127800828D02*
X143840223Y-126300828D01*
X143840223Y-126300828D02*
X143697366Y-126515114D01*
X143697366Y-126515114D02*
X143554509Y-126657971D01*
X143554509Y-126657971D02*
X143411652Y-126729400D01*
D11*
X121144360Y-86574442D02*
X121072931Y-86538728D01*
X121072931Y-86538728D02*
X121001503Y-86467300D01*
X121001503Y-86467300D02*
X120894360Y-86360157D01*
X120894360Y-86360157D02*
X120822931Y-86324442D01*
X120822931Y-86324442D02*
X120751503Y-86324442D01*
X120787217Y-86503014D02*
X120715789Y-86467300D01*
X120715789Y-86467300D02*
X120644360Y-86395871D01*
X120644360Y-86395871D02*
X120608646Y-86253014D01*
X120608646Y-86253014D02*
X120608646Y-86003014D01*
X120608646Y-86003014D02*
X120644360Y-85860157D01*
X120644360Y-85860157D02*
X120715789Y-85788728D01*
X120715789Y-85788728D02*
X120787217Y-85753014D01*
X120787217Y-85753014D02*
X120930074Y-85753014D01*
X120930074Y-85753014D02*
X121001503Y-85788728D01*
X121001503Y-85788728D02*
X121072931Y-85860157D01*
X121072931Y-85860157D02*
X121108646Y-86003014D01*
X121108646Y-86003014D02*
X121108646Y-86253014D01*
X121108646Y-86253014D02*
X121072931Y-86395871D01*
X121072931Y-86395871D02*
X121001503Y-86467300D01*
X121001503Y-86467300D02*
X120930074Y-86503014D01*
X120930074Y-86503014D02*
X120787217Y-86503014D01*
X121394360Y-85824442D02*
X121430074Y-85788728D01*
X121430074Y-85788728D02*
X121501503Y-85753014D01*
X121501503Y-85753014D02*
X121680074Y-85753014D01*
X121680074Y-85753014D02*
X121751503Y-85788728D01*
X121751503Y-85788728D02*
X121787217Y-85824442D01*
X121787217Y-85824442D02*
X121822931Y-85895871D01*
X121822931Y-85895871D02*
X121822931Y-85967300D01*
X121822931Y-85967300D02*
X121787217Y-86074442D01*
X121787217Y-86074442D02*
X121358645Y-86503014D01*
X121358645Y-86503014D02*
X121822931Y-86503014D01*
X122465789Y-86467300D02*
X122394360Y-86503014D01*
X122394360Y-86503014D02*
X122251503Y-86503014D01*
X122251503Y-86503014D02*
X122180074Y-86467300D01*
X122180074Y-86467300D02*
X122144360Y-86431585D01*
X122144360Y-86431585D02*
X122108646Y-86360157D01*
X122108646Y-86360157D02*
X122108646Y-86145871D01*
X122108646Y-86145871D02*
X122144360Y-86074442D01*
X122144360Y-86074442D02*
X122180074Y-86038728D01*
X122180074Y-86038728D02*
X122251503Y-86003014D01*
X122251503Y-86003014D02*
X122394360Y-86003014D01*
X122394360Y-86003014D02*
X122465789Y-86038728D01*
X122787217Y-86003014D02*
X122787217Y-86503014D01*
X122787217Y-86074442D02*
X122822931Y-86038728D01*
X122822931Y-86038728D02*
X122894360Y-86003014D01*
X122894360Y-86003014D02*
X123001503Y-86003014D01*
X123001503Y-86003014D02*
X123072931Y-86038728D01*
X123072931Y-86038728D02*
X123108646Y-86110157D01*
X123108646Y-86110157D02*
X123108646Y-86503014D01*
X123358645Y-86003014D02*
X123644359Y-86003014D01*
X123465788Y-85753014D02*
X123465788Y-86395871D01*
X123465788Y-86395871D02*
X123501502Y-86467300D01*
X123501502Y-86467300D02*
X123572931Y-86503014D01*
X123572931Y-86503014D02*
X123644359Y-86503014D01*
X123894359Y-86503014D02*
X123894359Y-86003014D01*
X123894359Y-86145871D02*
X123930073Y-86074442D01*
X123930073Y-86074442D02*
X123965788Y-86038728D01*
X123965788Y-86038728D02*
X124037216Y-86003014D01*
X124037216Y-86003014D02*
X124108645Y-86003014D01*
X124465788Y-86503014D02*
X124394359Y-86467300D01*
X124394359Y-86467300D02*
X124358645Y-86395871D01*
X124358645Y-86395871D02*
X124358645Y-85753014D01*
D12*
X125233333Y-111059580D02*
X125185714Y-111107200D01*
X125185714Y-111107200D02*
X125042857Y-111154819D01*
X125042857Y-111154819D02*
X124947619Y-111154819D01*
X124947619Y-111154819D02*
X124804762Y-111107200D01*
X124804762Y-111107200D02*
X124709524Y-111011961D01*
X124709524Y-111011961D02*
X124661905Y-110916723D01*
X124661905Y-110916723D02*
X124614286Y-110726247D01*
X124614286Y-110726247D02*
X124614286Y-110583390D01*
X124614286Y-110583390D02*
X124661905Y-110392914D01*
X124661905Y-110392914D02*
X124709524Y-110297676D01*
X124709524Y-110297676D02*
X124804762Y-110202438D01*
X124804762Y-110202438D02*
X124947619Y-110154819D01*
X124947619Y-110154819D02*
X125042857Y-110154819D01*
X125042857Y-110154819D02*
X125185714Y-110202438D01*
X125185714Y-110202438D02*
X125233333Y-110250057D01*
X125566667Y-110154819D02*
X126233333Y-110154819D01*
X126233333Y-110154819D02*
X125804762Y-111154819D01*
X127433333Y-75254819D02*
X127100000Y-74778628D01*
X126861905Y-75254819D02*
X126861905Y-74254819D01*
X126861905Y-74254819D02*
X127242857Y-74254819D01*
X127242857Y-74254819D02*
X127338095Y-74302438D01*
X127338095Y-74302438D02*
X127385714Y-74350057D01*
X127385714Y-74350057D02*
X127433333Y-74445295D01*
X127433333Y-74445295D02*
X127433333Y-74588152D01*
X127433333Y-74588152D02*
X127385714Y-74683390D01*
X127385714Y-74683390D02*
X127338095Y-74731009D01*
X127338095Y-74731009D02*
X127242857Y-74778628D01*
X127242857Y-74778628D02*
X126861905Y-74778628D01*
X127766667Y-74254819D02*
X128385714Y-74254819D01*
X128385714Y-74254819D02*
X128052381Y-74635771D01*
X128052381Y-74635771D02*
X128195238Y-74635771D01*
X128195238Y-74635771D02*
X128290476Y-74683390D01*
X128290476Y-74683390D02*
X128338095Y-74731009D01*
X128338095Y-74731009D02*
X128385714Y-74826247D01*
X128385714Y-74826247D02*
X128385714Y-75064342D01*
X128385714Y-75064342D02*
X128338095Y-75159580D01*
X128338095Y-75159580D02*
X128290476Y-75207200D01*
X128290476Y-75207200D02*
X128195238Y-75254819D01*
X128195238Y-75254819D02*
X127909524Y-75254819D01*
X127909524Y-75254819D02*
X127814286Y-75207200D01*
X127814286Y-75207200D02*
X127766667Y-75159580D01*
X153257142Y-98559580D02*
X153209523Y-98607200D01*
X153209523Y-98607200D02*
X153066666Y-98654819D01*
X153066666Y-98654819D02*
X152971428Y-98654819D01*
X152971428Y-98654819D02*
X152828571Y-98607200D01*
X152828571Y-98607200D02*
X152733333Y-98511961D01*
X152733333Y-98511961D02*
X152685714Y-98416723D01*
X152685714Y-98416723D02*
X152638095Y-98226247D01*
X152638095Y-98226247D02*
X152638095Y-98083390D01*
X152638095Y-98083390D02*
X152685714Y-97892914D01*
X152685714Y-97892914D02*
X152733333Y-97797676D01*
X152733333Y-97797676D02*
X152828571Y-97702438D01*
X152828571Y-97702438D02*
X152971428Y-97654819D01*
X152971428Y-97654819D02*
X153066666Y-97654819D01*
X153066666Y-97654819D02*
X153209523Y-97702438D01*
X153209523Y-97702438D02*
X153257142Y-97750057D01*
X154209523Y-98654819D02*
X153638095Y-98654819D01*
X153923809Y-98654819D02*
X153923809Y-97654819D01*
X153923809Y-97654819D02*
X153828571Y-97797676D01*
X153828571Y-97797676D02*
X153733333Y-97892914D01*
X153733333Y-97892914D02*
X153638095Y-97940533D01*
X154828571Y-97654819D02*
X154923809Y-97654819D01*
X154923809Y-97654819D02*
X155019047Y-97702438D01*
X155019047Y-97702438D02*
X155066666Y-97750057D01*
X155066666Y-97750057D02*
X155114285Y-97845295D01*
X155114285Y-97845295D02*
X155161904Y-98035771D01*
X155161904Y-98035771D02*
X155161904Y-98273866D01*
X155161904Y-98273866D02*
X155114285Y-98464342D01*
X155114285Y-98464342D02*
X155066666Y-98559580D01*
X155066666Y-98559580D02*
X155019047Y-98607200D01*
X155019047Y-98607200D02*
X154923809Y-98654819D01*
X154923809Y-98654819D02*
X154828571Y-98654819D01*
X154828571Y-98654819D02*
X154733333Y-98607200D01*
X154733333Y-98607200D02*
X154685714Y-98559580D01*
X154685714Y-98559580D02*
X154638095Y-98464342D01*
X154638095Y-98464342D02*
X154590476Y-98273866D01*
X154590476Y-98273866D02*
X154590476Y-98035771D01*
X154590476Y-98035771D02*
X154638095Y-97845295D01*
X154638095Y-97845295D02*
X154685714Y-97750057D01*
X154685714Y-97750057D02*
X154733333Y-97702438D01*
X154733333Y-97702438D02*
X154828571Y-97654819D01*
X153733333Y-102259580D02*
X153685714Y-102307200D01*
X153685714Y-102307200D02*
X153542857Y-102354819D01*
X153542857Y-102354819D02*
X153447619Y-102354819D01*
X153447619Y-102354819D02*
X153304762Y-102307200D01*
X153304762Y-102307200D02*
X153209524Y-102211961D01*
X153209524Y-102211961D02*
X153161905Y-102116723D01*
X153161905Y-102116723D02*
X153114286Y-101926247D01*
X153114286Y-101926247D02*
X153114286Y-101783390D01*
X153114286Y-101783390D02*
X153161905Y-101592914D01*
X153161905Y-101592914D02*
X153209524Y-101497676D01*
X153209524Y-101497676D02*
X153304762Y-101402438D01*
X153304762Y-101402438D02*
X153447619Y-101354819D01*
X153447619Y-101354819D02*
X153542857Y-101354819D01*
X153542857Y-101354819D02*
X153685714Y-101402438D01*
X153685714Y-101402438D02*
X153733333Y-101450057D01*
X154304762Y-101783390D02*
X154209524Y-101735771D01*
X154209524Y-101735771D02*
X154161905Y-101688152D01*
X154161905Y-101688152D02*
X154114286Y-101592914D01*
X154114286Y-101592914D02*
X154114286Y-101545295D01*
X154114286Y-101545295D02*
X154161905Y-101450057D01*
X154161905Y-101450057D02*
X154209524Y-101402438D01*
X154209524Y-101402438D02*
X154304762Y-101354819D01*
X154304762Y-101354819D02*
X154495238Y-101354819D01*
X154495238Y-101354819D02*
X154590476Y-101402438D01*
X154590476Y-101402438D02*
X154638095Y-101450057D01*
X154638095Y-101450057D02*
X154685714Y-101545295D01*
X154685714Y-101545295D02*
X154685714Y-101592914D01*
X154685714Y-101592914D02*
X154638095Y-101688152D01*
X154638095Y-101688152D02*
X154590476Y-101735771D01*
X154590476Y-101735771D02*
X154495238Y-101783390D01*
X154495238Y-101783390D02*
X154304762Y-101783390D01*
X154304762Y-101783390D02*
X154209524Y-101831009D01*
X154209524Y-101831009D02*
X154161905Y-101878628D01*
X154161905Y-101878628D02*
X154114286Y-101973866D01*
X154114286Y-101973866D02*
X154114286Y-102164342D01*
X154114286Y-102164342D02*
X154161905Y-102259580D01*
X154161905Y-102259580D02*
X154209524Y-102307200D01*
X154209524Y-102307200D02*
X154304762Y-102354819D01*
X154304762Y-102354819D02*
X154495238Y-102354819D01*
X154495238Y-102354819D02*
X154590476Y-102307200D01*
X154590476Y-102307200D02*
X154638095Y-102259580D01*
X154638095Y-102259580D02*
X154685714Y-102164342D01*
X154685714Y-102164342D02*
X154685714Y-101973866D01*
X154685714Y-101973866D02*
X154638095Y-101878628D01*
X154638095Y-101878628D02*
X154590476Y-101831009D01*
X154590476Y-101831009D02*
X154495238Y-101783390D01*
X126833333Y-80054819D02*
X126500000Y-79578628D01*
X126261905Y-80054819D02*
X126261905Y-79054819D01*
X126261905Y-79054819D02*
X126642857Y-79054819D01*
X126642857Y-79054819D02*
X126738095Y-79102438D01*
X126738095Y-79102438D02*
X126785714Y-79150057D01*
X126785714Y-79150057D02*
X126833333Y-79245295D01*
X126833333Y-79245295D02*
X126833333Y-79388152D01*
X126833333Y-79388152D02*
X126785714Y-79483390D01*
X126785714Y-79483390D02*
X126738095Y-79531009D01*
X126738095Y-79531009D02*
X126642857Y-79578628D01*
X126642857Y-79578628D02*
X126261905Y-79578628D01*
X127214286Y-79150057D02*
X127261905Y-79102438D01*
X127261905Y-79102438D02*
X127357143Y-79054819D01*
X127357143Y-79054819D02*
X127595238Y-79054819D01*
X127595238Y-79054819D02*
X127690476Y-79102438D01*
X127690476Y-79102438D02*
X127738095Y-79150057D01*
X127738095Y-79150057D02*
X127785714Y-79245295D01*
X127785714Y-79245295D02*
X127785714Y-79340533D01*
X127785714Y-79340533D02*
X127738095Y-79483390D01*
X127738095Y-79483390D02*
X127166667Y-80054819D01*
X127166667Y-80054819D02*
X127785714Y-80054819D01*
X145261905Y-88854819D02*
X145261905Y-87854819D01*
X145261905Y-87854819D02*
X145500000Y-87854819D01*
X145500000Y-87854819D02*
X145642857Y-87902438D01*
X145642857Y-87902438D02*
X145738095Y-87997676D01*
X145738095Y-87997676D02*
X145785714Y-88092914D01*
X145785714Y-88092914D02*
X145833333Y-88283390D01*
X145833333Y-88283390D02*
X145833333Y-88426247D01*
X145833333Y-88426247D02*
X145785714Y-88616723D01*
X145785714Y-88616723D02*
X145738095Y-88711961D01*
X145738095Y-88711961D02*
X145642857Y-88807200D01*
X145642857Y-88807200D02*
X145500000Y-88854819D01*
X145500000Y-88854819D02*
X145261905Y-88854819D01*
X146214286Y-87950057D02*
X146261905Y-87902438D01*
X146261905Y-87902438D02*
X146357143Y-87854819D01*
X146357143Y-87854819D02*
X146595238Y-87854819D01*
X146595238Y-87854819D02*
X146690476Y-87902438D01*
X146690476Y-87902438D02*
X146738095Y-87950057D01*
X146738095Y-87950057D02*
X146785714Y-88045295D01*
X146785714Y-88045295D02*
X146785714Y-88140533D01*
X146785714Y-88140533D02*
X146738095Y-88283390D01*
X146738095Y-88283390D02*
X146166667Y-88854819D01*
X146166667Y-88854819D02*
X146785714Y-88854819D01*
X145733333Y-92159580D02*
X145685714Y-92207200D01*
X145685714Y-92207200D02*
X145542857Y-92254819D01*
X145542857Y-92254819D02*
X145447619Y-92254819D01*
X145447619Y-92254819D02*
X145304762Y-92207200D01*
X145304762Y-92207200D02*
X145209524Y-92111961D01*
X145209524Y-92111961D02*
X145161905Y-92016723D01*
X145161905Y-92016723D02*
X145114286Y-91826247D01*
X145114286Y-91826247D02*
X145114286Y-91683390D01*
X145114286Y-91683390D02*
X145161905Y-91492914D01*
X145161905Y-91492914D02*
X145209524Y-91397676D01*
X145209524Y-91397676D02*
X145304762Y-91302438D01*
X145304762Y-91302438D02*
X145447619Y-91254819D01*
X145447619Y-91254819D02*
X145542857Y-91254819D01*
X145542857Y-91254819D02*
X145685714Y-91302438D01*
X145685714Y-91302438D02*
X145733333Y-91350057D01*
X146685714Y-92254819D02*
X146114286Y-92254819D01*
X146400000Y-92254819D02*
X146400000Y-91254819D01*
X146400000Y-91254819D02*
X146304762Y-91397676D01*
X146304762Y-91397676D02*
X146209524Y-91492914D01*
X146209524Y-91492914D02*
X146114286Y-91540533D01*
X127431009Y-103733333D02*
X127431009Y-104066666D01*
X127954819Y-104066666D02*
X126954819Y-104066666D01*
X126954819Y-104066666D02*
X126954819Y-103590476D01*
X127431009Y-102876190D02*
X127478628Y-102733333D01*
X127478628Y-102733333D02*
X127526247Y-102685714D01*
X127526247Y-102685714D02*
X127621485Y-102638095D01*
X127621485Y-102638095D02*
X127764342Y-102638095D01*
X127764342Y-102638095D02*
X127859580Y-102685714D01*
X127859580Y-102685714D02*
X127907200Y-102733333D01*
X127907200Y-102733333D02*
X127954819Y-102828571D01*
X127954819Y-102828571D02*
X127954819Y-103209523D01*
X127954819Y-103209523D02*
X126954819Y-103209523D01*
X126954819Y-103209523D02*
X126954819Y-102876190D01*
X126954819Y-102876190D02*
X127002438Y-102780952D01*
X127002438Y-102780952D02*
X127050057Y-102733333D01*
X127050057Y-102733333D02*
X127145295Y-102685714D01*
X127145295Y-102685714D02*
X127240533Y-102685714D01*
X127240533Y-102685714D02*
X127335771Y-102733333D01*
X127335771Y-102733333D02*
X127383390Y-102780952D01*
X127383390Y-102780952D02*
X127431009Y-102876190D01*
X127431009Y-102876190D02*
X127431009Y-103209523D01*
X127954819Y-101685714D02*
X127954819Y-102257142D01*
X127954819Y-101971428D02*
X126954819Y-101971428D01*
X126954819Y-101971428D02*
X127097676Y-102066666D01*
X127097676Y-102066666D02*
X127192914Y-102161904D01*
X127192914Y-102161904D02*
X127240533Y-102257142D01*
D11*
X137671428Y-114957419D02*
X137671428Y-113957419D01*
X137671428Y-113957419D02*
X137909523Y-113957419D01*
X137909523Y-113957419D02*
X138052380Y-114005038D01*
X138052380Y-114005038D02*
X138147618Y-114100276D01*
X138147618Y-114100276D02*
X138195237Y-114195514D01*
X138195237Y-114195514D02*
X138242856Y-114385990D01*
X138242856Y-114385990D02*
X138242856Y-114528847D01*
X138242856Y-114528847D02*
X138195237Y-114719323D01*
X138195237Y-114719323D02*
X138147618Y-114814561D01*
X138147618Y-114814561D02*
X138052380Y-114909800D01*
X138052380Y-114909800D02*
X137909523Y-114957419D01*
X137909523Y-114957419D02*
X137671428Y-114957419D01*
X139242856Y-114862180D02*
X139195237Y-114909800D01*
X139195237Y-114909800D02*
X139052380Y-114957419D01*
X139052380Y-114957419D02*
X138957142Y-114957419D01*
X138957142Y-114957419D02*
X138814285Y-114909800D01*
X138814285Y-114909800D02*
X138719047Y-114814561D01*
X138719047Y-114814561D02*
X138671428Y-114719323D01*
X138671428Y-114719323D02*
X138623809Y-114528847D01*
X138623809Y-114528847D02*
X138623809Y-114385990D01*
X138623809Y-114385990D02*
X138671428Y-114195514D01*
X138671428Y-114195514D02*
X138719047Y-114100276D01*
X138719047Y-114100276D02*
X138814285Y-114005038D01*
X138814285Y-114005038D02*
X138957142Y-113957419D01*
X138957142Y-113957419D02*
X139052380Y-113957419D01*
X139052380Y-113957419D02*
X139195237Y-114005038D01*
X139195237Y-114005038D02*
X139242856Y-114052657D01*
X139671428Y-114576466D02*
X140433333Y-114576466D01*
X140909523Y-114957419D02*
X140909523Y-113957419D01*
X140909523Y-113957419D02*
X141242856Y-114671704D01*
X141242856Y-114671704D02*
X141576189Y-113957419D01*
X141576189Y-113957419D02*
X141576189Y-114957419D01*
X142195237Y-114957419D02*
X142099999Y-114909800D01*
X142099999Y-114909800D02*
X142052380Y-114862180D01*
X142052380Y-114862180D02*
X142004761Y-114766942D01*
X142004761Y-114766942D02*
X142004761Y-114481228D01*
X142004761Y-114481228D02*
X142052380Y-114385990D01*
X142052380Y-114385990D02*
X142099999Y-114338371D01*
X142099999Y-114338371D02*
X142195237Y-114290752D01*
X142195237Y-114290752D02*
X142338094Y-114290752D01*
X142338094Y-114290752D02*
X142433332Y-114338371D01*
X142433332Y-114338371D02*
X142480951Y-114385990D01*
X142480951Y-114385990D02*
X142528570Y-114481228D01*
X142528570Y-114481228D02*
X142528570Y-114766942D01*
X142528570Y-114766942D02*
X142480951Y-114862180D01*
X142480951Y-114862180D02*
X142433332Y-114909800D01*
X142433332Y-114909800D02*
X142338094Y-114957419D01*
X142338094Y-114957419D02*
X142195237Y-114957419D01*
X142814285Y-114290752D02*
X143195237Y-114290752D01*
X142957142Y-113957419D02*
X142957142Y-114814561D01*
X142957142Y-114814561D02*
X143004761Y-114909800D01*
X143004761Y-114909800D02*
X143099999Y-114957419D01*
X143099999Y-114957419D02*
X143195237Y-114957419D01*
X143671428Y-114957419D02*
X143576190Y-114909800D01*
X143576190Y-114909800D02*
X143528571Y-114862180D01*
X143528571Y-114862180D02*
X143480952Y-114766942D01*
X143480952Y-114766942D02*
X143480952Y-114481228D01*
X143480952Y-114481228D02*
X143528571Y-114385990D01*
X143528571Y-114385990D02*
X143576190Y-114338371D01*
X143576190Y-114338371D02*
X143671428Y-114290752D01*
X143671428Y-114290752D02*
X143814285Y-114290752D01*
X143814285Y-114290752D02*
X143909523Y-114338371D01*
X143909523Y-114338371D02*
X143957142Y-114385990D01*
X143957142Y-114385990D02*
X144004761Y-114481228D01*
X144004761Y-114481228D02*
X144004761Y-114766942D01*
X144004761Y-114766942D02*
X143957142Y-114862180D01*
X143957142Y-114862180D02*
X143909523Y-114909800D01*
X143909523Y-114909800D02*
X143814285Y-114957419D01*
X143814285Y-114957419D02*
X143671428Y-114957419D01*
X144433333Y-114957419D02*
X144433333Y-114290752D01*
X144433333Y-114481228D02*
X144480952Y-114385990D01*
X144480952Y-114385990D02*
X144528571Y-114338371D01*
X144528571Y-114338371D02*
X144623809Y-114290752D01*
X144623809Y-114290752D02*
X144719047Y-114290752D01*
X145576190Y-114957419D02*
X145004762Y-114957419D01*
X145290476Y-114957419D02*
X145290476Y-113957419D01*
X145290476Y-113957419D02*
X145195238Y-114100276D01*
X145195238Y-114100276D02*
X145100000Y-114195514D01*
X145100000Y-114195514D02*
X145004762Y-114243133D01*
D12*
X150633333Y-108459580D02*
X150585714Y-108507200D01*
X150585714Y-108507200D02*
X150442857Y-108554819D01*
X150442857Y-108554819D02*
X150347619Y-108554819D01*
X150347619Y-108554819D02*
X150204762Y-108507200D01*
X150204762Y-108507200D02*
X150109524Y-108411961D01*
X150109524Y-108411961D02*
X150061905Y-108316723D01*
X150061905Y-108316723D02*
X150014286Y-108126247D01*
X150014286Y-108126247D02*
X150014286Y-107983390D01*
X150014286Y-107983390D02*
X150061905Y-107792914D01*
X150061905Y-107792914D02*
X150109524Y-107697676D01*
X150109524Y-107697676D02*
X150204762Y-107602438D01*
X150204762Y-107602438D02*
X150347619Y-107554819D01*
X150347619Y-107554819D02*
X150442857Y-107554819D01*
X150442857Y-107554819D02*
X150585714Y-107602438D01*
X150585714Y-107602438D02*
X150633333Y-107650057D01*
X151490476Y-107888152D02*
X151490476Y-108554819D01*
X151252381Y-107507200D02*
X151014286Y-108221485D01*
X151014286Y-108221485D02*
X151633333Y-108221485D01*
X121204761Y-78450057D02*
X121109523Y-78402438D01*
X121109523Y-78402438D02*
X121014285Y-78307200D01*
X121014285Y-78307200D02*
X120871428Y-78164342D01*
X120871428Y-78164342D02*
X120776190Y-78116723D01*
X120776190Y-78116723D02*
X120680952Y-78116723D01*
X120728571Y-78354819D02*
X120633333Y-78307200D01*
X120633333Y-78307200D02*
X120538095Y-78211961D01*
X120538095Y-78211961D02*
X120490476Y-78021485D01*
X120490476Y-78021485D02*
X120490476Y-77688152D01*
X120490476Y-77688152D02*
X120538095Y-77497676D01*
X120538095Y-77497676D02*
X120633333Y-77402438D01*
X120633333Y-77402438D02*
X120728571Y-77354819D01*
X120728571Y-77354819D02*
X120919047Y-77354819D01*
X120919047Y-77354819D02*
X121014285Y-77402438D01*
X121014285Y-77402438D02*
X121109523Y-77497676D01*
X121109523Y-77497676D02*
X121157142Y-77688152D01*
X121157142Y-77688152D02*
X121157142Y-78021485D01*
X121157142Y-78021485D02*
X121109523Y-78211961D01*
X121109523Y-78211961D02*
X121014285Y-78307200D01*
X121014285Y-78307200D02*
X120919047Y-78354819D01*
X120919047Y-78354819D02*
X120728571Y-78354819D01*
X122109523Y-78354819D02*
X121538095Y-78354819D01*
X121823809Y-78354819D02*
X121823809Y-77354819D01*
X121823809Y-77354819D02*
X121728571Y-77497676D01*
X121728571Y-77497676D02*
X121633333Y-77592914D01*
X121633333Y-77592914D02*
X121538095Y-77640533D01*
X151961905Y-67854819D02*
X151961905Y-66854819D01*
X151961905Y-66854819D02*
X152200000Y-66854819D01*
X152200000Y-66854819D02*
X152342857Y-66902438D01*
X152342857Y-66902438D02*
X152438095Y-66997676D01*
X152438095Y-66997676D02*
X152485714Y-67092914D01*
X152485714Y-67092914D02*
X152533333Y-67283390D01*
X152533333Y-67283390D02*
X152533333Y-67426247D01*
X152533333Y-67426247D02*
X152485714Y-67616723D01*
X152485714Y-67616723D02*
X152438095Y-67711961D01*
X152438095Y-67711961D02*
X152342857Y-67807200D01*
X152342857Y-67807200D02*
X152200000Y-67854819D01*
X152200000Y-67854819D02*
X151961905Y-67854819D01*
X153390476Y-67188152D02*
X153390476Y-67854819D01*
X153152381Y-66807200D02*
X152914286Y-67521485D01*
X152914286Y-67521485D02*
X153533333Y-67521485D01*
X145261905Y-67854819D02*
X145261905Y-66854819D01*
X145261905Y-66854819D02*
X145500000Y-66854819D01*
X145500000Y-66854819D02*
X145642857Y-66902438D01*
X145642857Y-66902438D02*
X145738095Y-66997676D01*
X145738095Y-66997676D02*
X145785714Y-67092914D01*
X145785714Y-67092914D02*
X145833333Y-67283390D01*
X145833333Y-67283390D02*
X145833333Y-67426247D01*
X145833333Y-67426247D02*
X145785714Y-67616723D01*
X145785714Y-67616723D02*
X145738095Y-67711961D01*
X145738095Y-67711961D02*
X145642857Y-67807200D01*
X145642857Y-67807200D02*
X145500000Y-67854819D01*
X145500000Y-67854819D02*
X145261905Y-67854819D01*
X146785714Y-67854819D02*
X146214286Y-67854819D01*
X146500000Y-67854819D02*
X146500000Y-66854819D01*
X146500000Y-66854819D02*
X146404762Y-66997676D01*
X146404762Y-66997676D02*
X146309524Y-67092914D01*
X146309524Y-67092914D02*
X146214286Y-67140533D01*
X126061905Y-95054819D02*
X126061905Y-94054819D01*
X126061905Y-94054819D02*
X126300000Y-94054819D01*
X126300000Y-94054819D02*
X126442857Y-94102438D01*
X126442857Y-94102438D02*
X126538095Y-94197676D01*
X126538095Y-94197676D02*
X126585714Y-94292914D01*
X126585714Y-94292914D02*
X126633333Y-94483390D01*
X126633333Y-94483390D02*
X126633333Y-94626247D01*
X126633333Y-94626247D02*
X126585714Y-94816723D01*
X126585714Y-94816723D02*
X126538095Y-94911961D01*
X126538095Y-94911961D02*
X126442857Y-95007200D01*
X126442857Y-95007200D02*
X126300000Y-95054819D01*
X126300000Y-95054819D02*
X126061905Y-95054819D01*
X127490476Y-94054819D02*
X127300000Y-94054819D01*
X127300000Y-94054819D02*
X127204762Y-94102438D01*
X127204762Y-94102438D02*
X127157143Y-94150057D01*
X127157143Y-94150057D02*
X127061905Y-94292914D01*
X127061905Y-94292914D02*
X127014286Y-94483390D01*
X127014286Y-94483390D02*
X127014286Y-94864342D01*
X127014286Y-94864342D02*
X127061905Y-94959580D01*
X127061905Y-94959580D02*
X127109524Y-95007200D01*
X127109524Y-95007200D02*
X127204762Y-95054819D01*
X127204762Y-95054819D02*
X127395238Y-95054819D01*
X127395238Y-95054819D02*
X127490476Y-95007200D01*
X127490476Y-95007200D02*
X127538095Y-94959580D01*
X127538095Y-94959580D02*
X127585714Y-94864342D01*
X127585714Y-94864342D02*
X127585714Y-94626247D01*
X127585714Y-94626247D02*
X127538095Y-94531009D01*
X127538095Y-94531009D02*
X127490476Y-94483390D01*
X127490476Y-94483390D02*
X127395238Y-94435771D01*
X127395238Y-94435771D02*
X127204762Y-94435771D01*
X127204762Y-94435771D02*
X127109524Y-94483390D01*
X127109524Y-94483390D02*
X127061905Y-94531009D01*
X127061905Y-94531009D02*
X127014286Y-94626247D01*
X150633333Y-106159580D02*
X150585714Y-106207200D01*
X150585714Y-106207200D02*
X150442857Y-106254819D01*
X150442857Y-106254819D02*
X150347619Y-106254819D01*
X150347619Y-106254819D02*
X150204762Y-106207200D01*
X150204762Y-106207200D02*
X150109524Y-106111961D01*
X150109524Y-106111961D02*
X150061905Y-106016723D01*
X150061905Y-106016723D02*
X150014286Y-105826247D01*
X150014286Y-105826247D02*
X150014286Y-105683390D01*
X150014286Y-105683390D02*
X150061905Y-105492914D01*
X150061905Y-105492914D02*
X150109524Y-105397676D01*
X150109524Y-105397676D02*
X150204762Y-105302438D01*
X150204762Y-105302438D02*
X150347619Y-105254819D01*
X150347619Y-105254819D02*
X150442857Y-105254819D01*
X150442857Y-105254819D02*
X150585714Y-105302438D01*
X150585714Y-105302438D02*
X150633333Y-105350057D01*
X151490476Y-105254819D02*
X151300000Y-105254819D01*
X151300000Y-105254819D02*
X151204762Y-105302438D01*
X151204762Y-105302438D02*
X151157143Y-105350057D01*
X151157143Y-105350057D02*
X151061905Y-105492914D01*
X151061905Y-105492914D02*
X151014286Y-105683390D01*
X151014286Y-105683390D02*
X151014286Y-106064342D01*
X151014286Y-106064342D02*
X151061905Y-106159580D01*
X151061905Y-106159580D02*
X151109524Y-106207200D01*
X151109524Y-106207200D02*
X151204762Y-106254819D01*
X151204762Y-106254819D02*
X151395238Y-106254819D01*
X151395238Y-106254819D02*
X151490476Y-106207200D01*
X151490476Y-106207200D02*
X151538095Y-106159580D01*
X151538095Y-106159580D02*
X151585714Y-106064342D01*
X151585714Y-106064342D02*
X151585714Y-105826247D01*
X151585714Y-105826247D02*
X151538095Y-105731009D01*
X151538095Y-105731009D02*
X151490476Y-105683390D01*
X151490476Y-105683390D02*
X151395238Y-105635771D01*
X151395238Y-105635771D02*
X151204762Y-105635771D01*
X151204762Y-105635771D02*
X151109524Y-105683390D01*
X151109524Y-105683390D02*
X151061905Y-105731009D01*
X151061905Y-105731009D02*
X151014286Y-105826247D01*
X123933333Y-109059580D02*
X123885714Y-109107200D01*
X123885714Y-109107200D02*
X123742857Y-109154819D01*
X123742857Y-109154819D02*
X123647619Y-109154819D01*
X123647619Y-109154819D02*
X123504762Y-109107200D01*
X123504762Y-109107200D02*
X123409524Y-109011961D01*
X123409524Y-109011961D02*
X123361905Y-108916723D01*
X123361905Y-108916723D02*
X123314286Y-108726247D01*
X123314286Y-108726247D02*
X123314286Y-108583390D01*
X123314286Y-108583390D02*
X123361905Y-108392914D01*
X123361905Y-108392914D02*
X123409524Y-108297676D01*
X123409524Y-108297676D02*
X123504762Y-108202438D01*
X123504762Y-108202438D02*
X123647619Y-108154819D01*
X123647619Y-108154819D02*
X123742857Y-108154819D01*
X123742857Y-108154819D02*
X123885714Y-108202438D01*
X123885714Y-108202438D02*
X123933333Y-108250057D01*
X124838095Y-108154819D02*
X124361905Y-108154819D01*
X124361905Y-108154819D02*
X124314286Y-108631009D01*
X124314286Y-108631009D02*
X124361905Y-108583390D01*
X124361905Y-108583390D02*
X124457143Y-108535771D01*
X124457143Y-108535771D02*
X124695238Y-108535771D01*
X124695238Y-108535771D02*
X124790476Y-108583390D01*
X124790476Y-108583390D02*
X124838095Y-108631009D01*
X124838095Y-108631009D02*
X124885714Y-108726247D01*
X124885714Y-108726247D02*
X124885714Y-108964342D01*
X124885714Y-108964342D02*
X124838095Y-109059580D01*
X124838095Y-109059580D02*
X124790476Y-109107200D01*
X124790476Y-109107200D02*
X124695238Y-109154819D01*
X124695238Y-109154819D02*
X124457143Y-109154819D01*
X124457143Y-109154819D02*
X124361905Y-109107200D01*
X124361905Y-109107200D02*
X124314286Y-109059580D01*
D11*
X147928571Y-67462180D02*
X147880952Y-67509800D01*
X147880952Y-67509800D02*
X147738095Y-67557419D01*
X147738095Y-67557419D02*
X147642857Y-67557419D01*
X147642857Y-67557419D02*
X147500000Y-67509800D01*
X147500000Y-67509800D02*
X147404762Y-67414561D01*
X147404762Y-67414561D02*
X147357143Y-67319323D01*
X147357143Y-67319323D02*
X147309524Y-67128847D01*
X147309524Y-67128847D02*
X147309524Y-66985990D01*
X147309524Y-66985990D02*
X147357143Y-66795514D01*
X147357143Y-66795514D02*
X147404762Y-66700276D01*
X147404762Y-66700276D02*
X147500000Y-66605038D01*
X147500000Y-66605038D02*
X147642857Y-66557419D01*
X147642857Y-66557419D02*
X147738095Y-66557419D01*
X147738095Y-66557419D02*
X147880952Y-66605038D01*
X147880952Y-66605038D02*
X147928571Y-66652657D01*
X148500000Y-67557419D02*
X148404762Y-67509800D01*
X148404762Y-67509800D02*
X148357143Y-67462180D01*
X148357143Y-67462180D02*
X148309524Y-67366942D01*
X148309524Y-67366942D02*
X148309524Y-67081228D01*
X148309524Y-67081228D02*
X148357143Y-66985990D01*
X148357143Y-66985990D02*
X148404762Y-66938371D01*
X148404762Y-66938371D02*
X148500000Y-66890752D01*
X148500000Y-66890752D02*
X148642857Y-66890752D01*
X148642857Y-66890752D02*
X148738095Y-66938371D01*
X148738095Y-66938371D02*
X148785714Y-66985990D01*
X148785714Y-66985990D02*
X148833333Y-67081228D01*
X148833333Y-67081228D02*
X148833333Y-67366942D01*
X148833333Y-67366942D02*
X148785714Y-67462180D01*
X148785714Y-67462180D02*
X148738095Y-67509800D01*
X148738095Y-67509800D02*
X148642857Y-67557419D01*
X148642857Y-67557419D02*
X148500000Y-67557419D01*
X149261905Y-66890752D02*
X149261905Y-67557419D01*
X149261905Y-66985990D02*
X149309524Y-66938371D01*
X149309524Y-66938371D02*
X149404762Y-66890752D01*
X149404762Y-66890752D02*
X149547619Y-66890752D01*
X149547619Y-66890752D02*
X149642857Y-66938371D01*
X149642857Y-66938371D02*
X149690476Y-67033609D01*
X149690476Y-67033609D02*
X149690476Y-67557419D01*
X150119048Y-66652657D02*
X150166667Y-66605038D01*
X150166667Y-66605038D02*
X150261905Y-66557419D01*
X150261905Y-66557419D02*
X150500000Y-66557419D01*
X150500000Y-66557419D02*
X150595238Y-66605038D01*
X150595238Y-66605038D02*
X150642857Y-66652657D01*
X150642857Y-66652657D02*
X150690476Y-66747895D01*
X150690476Y-66747895D02*
X150690476Y-66843133D01*
X150690476Y-66843133D02*
X150642857Y-66985990D01*
X150642857Y-66985990D02*
X150071429Y-67557419D01*
X150071429Y-67557419D02*
X150690476Y-67557419D01*
D12*
X146466666Y-93831009D02*
X146133333Y-93831009D01*
X146133333Y-94354819D02*
X146133333Y-93354819D01*
X146133333Y-93354819D02*
X146609523Y-93354819D01*
X147323809Y-93831009D02*
X147466666Y-93878628D01*
X147466666Y-93878628D02*
X147514285Y-93926247D01*
X147514285Y-93926247D02*
X147561904Y-94021485D01*
X147561904Y-94021485D02*
X147561904Y-94164342D01*
X147561904Y-94164342D02*
X147514285Y-94259580D01*
X147514285Y-94259580D02*
X147466666Y-94307200D01*
X147466666Y-94307200D02*
X147371428Y-94354819D01*
X147371428Y-94354819D02*
X146990476Y-94354819D01*
X146990476Y-94354819D02*
X146990476Y-93354819D01*
X146990476Y-93354819D02*
X147323809Y-93354819D01*
X147323809Y-93354819D02*
X147419047Y-93402438D01*
X147419047Y-93402438D02*
X147466666Y-93450057D01*
X147466666Y-93450057D02*
X147514285Y-93545295D01*
X147514285Y-93545295D02*
X147514285Y-93640533D01*
X147514285Y-93640533D02*
X147466666Y-93735771D01*
X147466666Y-93735771D02*
X147419047Y-93783390D01*
X147419047Y-93783390D02*
X147323809Y-93831009D01*
X147323809Y-93831009D02*
X146990476Y-93831009D01*
X147942857Y-93450057D02*
X147990476Y-93402438D01*
X147990476Y-93402438D02*
X148085714Y-93354819D01*
X148085714Y-93354819D02*
X148323809Y-93354819D01*
X148323809Y-93354819D02*
X148419047Y-93402438D01*
X148419047Y-93402438D02*
X148466666Y-93450057D01*
X148466666Y-93450057D02*
X148514285Y-93545295D01*
X148514285Y-93545295D02*
X148514285Y-93640533D01*
X148514285Y-93640533D02*
X148466666Y-93783390D01*
X148466666Y-93783390D02*
X147895238Y-94354819D01*
X147895238Y-94354819D02*
X148514285Y-94354819D01*
X123933333Y-106759580D02*
X123885714Y-106807200D01*
X123885714Y-106807200D02*
X123742857Y-106854819D01*
X123742857Y-106854819D02*
X123647619Y-106854819D01*
X123647619Y-106854819D02*
X123504762Y-106807200D01*
X123504762Y-106807200D02*
X123409524Y-106711961D01*
X123409524Y-106711961D02*
X123361905Y-106616723D01*
X123361905Y-106616723D02*
X123314286Y-106426247D01*
X123314286Y-106426247D02*
X123314286Y-106283390D01*
X123314286Y-106283390D02*
X123361905Y-106092914D01*
X123361905Y-106092914D02*
X123409524Y-105997676D01*
X123409524Y-105997676D02*
X123504762Y-105902438D01*
X123504762Y-105902438D02*
X123647619Y-105854819D01*
X123647619Y-105854819D02*
X123742857Y-105854819D01*
X123742857Y-105854819D02*
X123885714Y-105902438D01*
X123885714Y-105902438D02*
X123933333Y-105950057D01*
X124266667Y-105854819D02*
X124885714Y-105854819D01*
X124885714Y-105854819D02*
X124552381Y-106235771D01*
X124552381Y-106235771D02*
X124695238Y-106235771D01*
X124695238Y-106235771D02*
X124790476Y-106283390D01*
X124790476Y-106283390D02*
X124838095Y-106331009D01*
X124838095Y-106331009D02*
X124885714Y-106426247D01*
X124885714Y-106426247D02*
X124885714Y-106664342D01*
X124885714Y-106664342D02*
X124838095Y-106759580D01*
X124838095Y-106759580D02*
X124790476Y-106807200D01*
X124790476Y-106807200D02*
X124695238Y-106854819D01*
X124695238Y-106854819D02*
X124409524Y-106854819D01*
X124409524Y-106854819D02*
X124314286Y-106807200D01*
X124314286Y-106807200D02*
X124266667Y-106759580D01*
X136433333Y-92159580D02*
X136385714Y-92207200D01*
X136385714Y-92207200D02*
X136242857Y-92254819D01*
X136242857Y-92254819D02*
X136147619Y-92254819D01*
X136147619Y-92254819D02*
X136004762Y-92207200D01*
X136004762Y-92207200D02*
X135909524Y-92111961D01*
X135909524Y-92111961D02*
X135861905Y-92016723D01*
X135861905Y-92016723D02*
X135814286Y-91826247D01*
X135814286Y-91826247D02*
X135814286Y-91683390D01*
X135814286Y-91683390D02*
X135861905Y-91492914D01*
X135861905Y-91492914D02*
X135909524Y-91397676D01*
X135909524Y-91397676D02*
X136004762Y-91302438D01*
X136004762Y-91302438D02*
X136147619Y-91254819D01*
X136147619Y-91254819D02*
X136242857Y-91254819D01*
X136242857Y-91254819D02*
X136385714Y-91302438D01*
X136385714Y-91302438D02*
X136433333Y-91350057D01*
X136814286Y-91350057D02*
X136861905Y-91302438D01*
X136861905Y-91302438D02*
X136957143Y-91254819D01*
X136957143Y-91254819D02*
X137195238Y-91254819D01*
X137195238Y-91254819D02*
X137290476Y-91302438D01*
X137290476Y-91302438D02*
X137338095Y-91350057D01*
X137338095Y-91350057D02*
X137385714Y-91445295D01*
X137385714Y-91445295D02*
X137385714Y-91540533D01*
X137385714Y-91540533D02*
X137338095Y-91683390D01*
X137338095Y-91683390D02*
X136766667Y-92254819D01*
X136766667Y-92254819D02*
X137385714Y-92254819D01*
D11*
X133928571Y-67462180D02*
X133880952Y-67509800D01*
X133880952Y-67509800D02*
X133738095Y-67557419D01*
X133738095Y-67557419D02*
X133642857Y-67557419D01*
X133642857Y-67557419D02*
X133500000Y-67509800D01*
X133500000Y-67509800D02*
X133404762Y-67414561D01*
X133404762Y-67414561D02*
X133357143Y-67319323D01*
X133357143Y-67319323D02*
X133309524Y-67128847D01*
X133309524Y-67128847D02*
X133309524Y-66985990D01*
X133309524Y-66985990D02*
X133357143Y-66795514D01*
X133357143Y-66795514D02*
X133404762Y-66700276D01*
X133404762Y-66700276D02*
X133500000Y-66605038D01*
X133500000Y-66605038D02*
X133642857Y-66557419D01*
X133642857Y-66557419D02*
X133738095Y-66557419D01*
X133738095Y-66557419D02*
X133880952Y-66605038D01*
X133880952Y-66605038D02*
X133928571Y-66652657D01*
X134500000Y-67557419D02*
X134404762Y-67509800D01*
X134404762Y-67509800D02*
X134357143Y-67462180D01*
X134357143Y-67462180D02*
X134309524Y-67366942D01*
X134309524Y-67366942D02*
X134309524Y-67081228D01*
X134309524Y-67081228D02*
X134357143Y-66985990D01*
X134357143Y-66985990D02*
X134404762Y-66938371D01*
X134404762Y-66938371D02*
X134500000Y-66890752D01*
X134500000Y-66890752D02*
X134642857Y-66890752D01*
X134642857Y-66890752D02*
X134738095Y-66938371D01*
X134738095Y-66938371D02*
X134785714Y-66985990D01*
X134785714Y-66985990D02*
X134833333Y-67081228D01*
X134833333Y-67081228D02*
X134833333Y-67366942D01*
X134833333Y-67366942D02*
X134785714Y-67462180D01*
X134785714Y-67462180D02*
X134738095Y-67509800D01*
X134738095Y-67509800D02*
X134642857Y-67557419D01*
X134642857Y-67557419D02*
X134500000Y-67557419D01*
X135261905Y-66890752D02*
X135261905Y-67557419D01*
X135261905Y-66985990D02*
X135309524Y-66938371D01*
X135309524Y-66938371D02*
X135404762Y-66890752D01*
X135404762Y-66890752D02*
X135547619Y-66890752D01*
X135547619Y-66890752D02*
X135642857Y-66938371D01*
X135642857Y-66938371D02*
X135690476Y-67033609D01*
X135690476Y-67033609D02*
X135690476Y-67557419D01*
X136071429Y-66557419D02*
X136690476Y-66557419D01*
X136690476Y-66557419D02*
X136357143Y-66938371D01*
X136357143Y-66938371D02*
X136500000Y-66938371D01*
X136500000Y-66938371D02*
X136595238Y-66985990D01*
X136595238Y-66985990D02*
X136642857Y-67033609D01*
X136642857Y-67033609D02*
X136690476Y-67128847D01*
X136690476Y-67128847D02*
X136690476Y-67366942D01*
X136690476Y-67366942D02*
X136642857Y-67462180D01*
X136642857Y-67462180D02*
X136595238Y-67509800D01*
X136595238Y-67509800D02*
X136500000Y-67557419D01*
X136500000Y-67557419D02*
X136214286Y-67557419D01*
X136214286Y-67557419D02*
X136119048Y-67509800D01*
X136119048Y-67509800D02*
X136071429Y-67462180D01*
D12*
X130504761Y-75950057D02*
X130409523Y-75902438D01*
X130409523Y-75902438D02*
X130314285Y-75807200D01*
X130314285Y-75807200D02*
X130171428Y-75664342D01*
X130171428Y-75664342D02*
X130076190Y-75616723D01*
X130076190Y-75616723D02*
X129980952Y-75616723D01*
X130028571Y-75854819D02*
X129933333Y-75807200D01*
X129933333Y-75807200D02*
X129838095Y-75711961D01*
X129838095Y-75711961D02*
X129790476Y-75521485D01*
X129790476Y-75521485D02*
X129790476Y-75188152D01*
X129790476Y-75188152D02*
X129838095Y-74997676D01*
X129838095Y-74997676D02*
X129933333Y-74902438D01*
X129933333Y-74902438D02*
X130028571Y-74854819D01*
X130028571Y-74854819D02*
X130219047Y-74854819D01*
X130219047Y-74854819D02*
X130314285Y-74902438D01*
X130314285Y-74902438D02*
X130409523Y-74997676D01*
X130409523Y-74997676D02*
X130457142Y-75188152D01*
X130457142Y-75188152D02*
X130457142Y-75521485D01*
X130457142Y-75521485D02*
X130409523Y-75711961D01*
X130409523Y-75711961D02*
X130314285Y-75807200D01*
X130314285Y-75807200D02*
X130219047Y-75854819D01*
X130219047Y-75854819D02*
X130028571Y-75854819D01*
X130838095Y-74950057D02*
X130885714Y-74902438D01*
X130885714Y-74902438D02*
X130980952Y-74854819D01*
X130980952Y-74854819D02*
X131219047Y-74854819D01*
X131219047Y-74854819D02*
X131314285Y-74902438D01*
X131314285Y-74902438D02*
X131361904Y-74950057D01*
X131361904Y-74950057D02*
X131409523Y-75045295D01*
X131409523Y-75045295D02*
X131409523Y-75140533D01*
X131409523Y-75140533D02*
X131361904Y-75283390D01*
X131361904Y-75283390D02*
X130790476Y-75854819D01*
X130790476Y-75854819D02*
X131409523Y-75854819D01*
D11*
X126962180Y-86071428D02*
X127009800Y-86119047D01*
X127009800Y-86119047D02*
X127057419Y-86261904D01*
X127057419Y-86261904D02*
X127057419Y-86357142D01*
X127057419Y-86357142D02*
X127009800Y-86499999D01*
X127009800Y-86499999D02*
X126914561Y-86595237D01*
X126914561Y-86595237D02*
X126819323Y-86642856D01*
X126819323Y-86642856D02*
X126628847Y-86690475D01*
X126628847Y-86690475D02*
X126485990Y-86690475D01*
X126485990Y-86690475D02*
X126295514Y-86642856D01*
X126295514Y-86642856D02*
X126200276Y-86595237D01*
X126200276Y-86595237D02*
X126105038Y-86499999D01*
X126105038Y-86499999D02*
X126057419Y-86357142D01*
X126057419Y-86357142D02*
X126057419Y-86261904D01*
X126057419Y-86261904D02*
X126105038Y-86119047D01*
X126105038Y-86119047D02*
X126152657Y-86071428D01*
X127057419Y-85499999D02*
X127009800Y-85595237D01*
X127009800Y-85595237D02*
X126962180Y-85642856D01*
X126962180Y-85642856D02*
X126866942Y-85690475D01*
X126866942Y-85690475D02*
X126581228Y-85690475D01*
X126581228Y-85690475D02*
X126485990Y-85642856D01*
X126485990Y-85642856D02*
X126438371Y-85595237D01*
X126438371Y-85595237D02*
X126390752Y-85499999D01*
X126390752Y-85499999D02*
X126390752Y-85357142D01*
X126390752Y-85357142D02*
X126438371Y-85261904D01*
X126438371Y-85261904D02*
X126485990Y-85214285D01*
X126485990Y-85214285D02*
X126581228Y-85166666D01*
X126581228Y-85166666D02*
X126866942Y-85166666D01*
X126866942Y-85166666D02*
X126962180Y-85214285D01*
X126962180Y-85214285D02*
X127009800Y-85261904D01*
X127009800Y-85261904D02*
X127057419Y-85357142D01*
X127057419Y-85357142D02*
X127057419Y-85499999D01*
X126390752Y-84738094D02*
X127057419Y-84738094D01*
X126485990Y-84738094D02*
X126438371Y-84690475D01*
X126438371Y-84690475D02*
X126390752Y-84595237D01*
X126390752Y-84595237D02*
X126390752Y-84452380D01*
X126390752Y-84452380D02*
X126438371Y-84357142D01*
X126438371Y-84357142D02*
X126533609Y-84309523D01*
X126533609Y-84309523D02*
X127057419Y-84309523D01*
X126390752Y-83404761D02*
X127057419Y-83404761D01*
X126009800Y-83642856D02*
X126724085Y-83880951D01*
X126724085Y-83880951D02*
X126724085Y-83261904D01*
D12*
X129733333Y-115359580D02*
X129685714Y-115407200D01*
X129685714Y-115407200D02*
X129542857Y-115454819D01*
X129542857Y-115454819D02*
X129447619Y-115454819D01*
X129447619Y-115454819D02*
X129304762Y-115407200D01*
X129304762Y-115407200D02*
X129209524Y-115311961D01*
X129209524Y-115311961D02*
X129161905Y-115216723D01*
X129161905Y-115216723D02*
X129114286Y-115026247D01*
X129114286Y-115026247D02*
X129114286Y-114883390D01*
X129114286Y-114883390D02*
X129161905Y-114692914D01*
X129161905Y-114692914D02*
X129209524Y-114597676D01*
X129209524Y-114597676D02*
X129304762Y-114502438D01*
X129304762Y-114502438D02*
X129447619Y-114454819D01*
X129447619Y-114454819D02*
X129542857Y-114454819D01*
X129542857Y-114454819D02*
X129685714Y-114502438D01*
X129685714Y-114502438D02*
X129733333Y-114550057D01*
X130209524Y-115454819D02*
X130400000Y-115454819D01*
X130400000Y-115454819D02*
X130495238Y-115407200D01*
X130495238Y-115407200D02*
X130542857Y-115359580D01*
X130542857Y-115359580D02*
X130638095Y-115216723D01*
X130638095Y-115216723D02*
X130685714Y-115026247D01*
X130685714Y-115026247D02*
X130685714Y-114645295D01*
X130685714Y-114645295D02*
X130638095Y-114550057D01*
X130638095Y-114550057D02*
X130590476Y-114502438D01*
X130590476Y-114502438D02*
X130495238Y-114454819D01*
X130495238Y-114454819D02*
X130304762Y-114454819D01*
X130304762Y-114454819D02*
X130209524Y-114502438D01*
X130209524Y-114502438D02*
X130161905Y-114550057D01*
X130161905Y-114550057D02*
X130114286Y-114645295D01*
X130114286Y-114645295D02*
X130114286Y-114883390D01*
X130114286Y-114883390D02*
X130161905Y-114978628D01*
X130161905Y-114978628D02*
X130209524Y-115026247D01*
X130209524Y-115026247D02*
X130304762Y-115073866D01*
X130304762Y-115073866D02*
X130495238Y-115073866D01*
X130495238Y-115073866D02*
X130590476Y-115026247D01*
X130590476Y-115026247D02*
X130638095Y-114978628D01*
X130638095Y-114978628D02*
X130685714Y-114883390D01*
X127033333Y-77104819D02*
X126700000Y-76628628D01*
X126461905Y-77104819D02*
X126461905Y-76104819D01*
X126461905Y-76104819D02*
X126842857Y-76104819D01*
X126842857Y-76104819D02*
X126938095Y-76152438D01*
X126938095Y-76152438D02*
X126985714Y-76200057D01*
X126985714Y-76200057D02*
X127033333Y-76295295D01*
X127033333Y-76295295D02*
X127033333Y-76438152D01*
X127033333Y-76438152D02*
X126985714Y-76533390D01*
X126985714Y-76533390D02*
X126938095Y-76581009D01*
X126938095Y-76581009D02*
X126842857Y-76628628D01*
X126842857Y-76628628D02*
X126461905Y-76628628D01*
X127985714Y-77104819D02*
X127414286Y-77104819D01*
X127700000Y-77104819D02*
X127700000Y-76104819D01*
X127700000Y-76104819D02*
X127604762Y-76247676D01*
X127604762Y-76247676D02*
X127509524Y-76342914D01*
X127509524Y-76342914D02*
X127414286Y-76390533D01*
X134861905Y-93554819D02*
X134861905Y-92554819D01*
X134861905Y-92554819D02*
X135100000Y-92554819D01*
X135100000Y-92554819D02*
X135242857Y-92602438D01*
X135242857Y-92602438D02*
X135338095Y-92697676D01*
X135338095Y-92697676D02*
X135385714Y-92792914D01*
X135385714Y-92792914D02*
X135433333Y-92983390D01*
X135433333Y-92983390D02*
X135433333Y-93126247D01*
X135433333Y-93126247D02*
X135385714Y-93316723D01*
X135385714Y-93316723D02*
X135338095Y-93411961D01*
X135338095Y-93411961D02*
X135242857Y-93507200D01*
X135242857Y-93507200D02*
X135100000Y-93554819D01*
X135100000Y-93554819D02*
X134861905Y-93554819D01*
X136338095Y-92554819D02*
X135861905Y-92554819D01*
X135861905Y-92554819D02*
X135814286Y-93031009D01*
X135814286Y-93031009D02*
X135861905Y-92983390D01*
X135861905Y-92983390D02*
X135957143Y-92935771D01*
X135957143Y-92935771D02*
X136195238Y-92935771D01*
X136195238Y-92935771D02*
X136290476Y-92983390D01*
X136290476Y-92983390D02*
X136338095Y-93031009D01*
X136338095Y-93031009D02*
X136385714Y-93126247D01*
X136385714Y-93126247D02*
X136385714Y-93364342D01*
X136385714Y-93364342D02*
X136338095Y-93459580D01*
X136338095Y-93459580D02*
X136290476Y-93507200D01*
X136290476Y-93507200D02*
X136195238Y-93554819D01*
X136195238Y-93554819D02*
X135957143Y-93554819D01*
X135957143Y-93554819D02*
X135861905Y-93507200D01*
X135861905Y-93507200D02*
X135814286Y-93459580D01*
D11*
X127462180Y-69271428D02*
X127509800Y-69319047D01*
X127509800Y-69319047D02*
X127557419Y-69461904D01*
X127557419Y-69461904D02*
X127557419Y-69557142D01*
X127557419Y-69557142D02*
X127509800Y-69699999D01*
X127509800Y-69699999D02*
X127414561Y-69795237D01*
X127414561Y-69795237D02*
X127319323Y-69842856D01*
X127319323Y-69842856D02*
X127128847Y-69890475D01*
X127128847Y-69890475D02*
X126985990Y-69890475D01*
X126985990Y-69890475D02*
X126795514Y-69842856D01*
X126795514Y-69842856D02*
X126700276Y-69795237D01*
X126700276Y-69795237D02*
X126605038Y-69699999D01*
X126605038Y-69699999D02*
X126557419Y-69557142D01*
X126557419Y-69557142D02*
X126557419Y-69461904D01*
X126557419Y-69461904D02*
X126605038Y-69319047D01*
X126605038Y-69319047D02*
X126652657Y-69271428D01*
X127557419Y-68699999D02*
X127509800Y-68795237D01*
X127509800Y-68795237D02*
X127462180Y-68842856D01*
X127462180Y-68842856D02*
X127366942Y-68890475D01*
X127366942Y-68890475D02*
X127081228Y-68890475D01*
X127081228Y-68890475D02*
X126985990Y-68842856D01*
X126985990Y-68842856D02*
X126938371Y-68795237D01*
X126938371Y-68795237D02*
X126890752Y-68699999D01*
X126890752Y-68699999D02*
X126890752Y-68557142D01*
X126890752Y-68557142D02*
X126938371Y-68461904D01*
X126938371Y-68461904D02*
X126985990Y-68414285D01*
X126985990Y-68414285D02*
X127081228Y-68366666D01*
X127081228Y-68366666D02*
X127366942Y-68366666D01*
X127366942Y-68366666D02*
X127462180Y-68414285D01*
X127462180Y-68414285D02*
X127509800Y-68461904D01*
X127509800Y-68461904D02*
X127557419Y-68557142D01*
X127557419Y-68557142D02*
X127557419Y-68699999D01*
X126890752Y-67938094D02*
X127557419Y-67938094D01*
X126985990Y-67938094D02*
X126938371Y-67890475D01*
X126938371Y-67890475D02*
X126890752Y-67795237D01*
X126890752Y-67795237D02*
X126890752Y-67652380D01*
X126890752Y-67652380D02*
X126938371Y-67557142D01*
X126938371Y-67557142D02*
X127033609Y-67509523D01*
X127033609Y-67509523D02*
X127557419Y-67509523D01*
X127557419Y-66509523D02*
X127557419Y-67080951D01*
X127557419Y-66795237D02*
X126557419Y-66795237D01*
X126557419Y-66795237D02*
X126700276Y-66890475D01*
X126700276Y-66890475D02*
X126795514Y-66985713D01*
X126795514Y-66985713D02*
X126843133Y-67080951D01*
D12*
X151961905Y-88854819D02*
X151961905Y-87854819D01*
X151961905Y-87854819D02*
X152200000Y-87854819D01*
X152200000Y-87854819D02*
X152342857Y-87902438D01*
X152342857Y-87902438D02*
X152438095Y-87997676D01*
X152438095Y-87997676D02*
X152485714Y-88092914D01*
X152485714Y-88092914D02*
X152533333Y-88283390D01*
X152533333Y-88283390D02*
X152533333Y-88426247D01*
X152533333Y-88426247D02*
X152485714Y-88616723D01*
X152485714Y-88616723D02*
X152438095Y-88711961D01*
X152438095Y-88711961D02*
X152342857Y-88807200D01*
X152342857Y-88807200D02*
X152200000Y-88854819D01*
X152200000Y-88854819D02*
X151961905Y-88854819D01*
X152866667Y-87854819D02*
X153485714Y-87854819D01*
X153485714Y-87854819D02*
X153152381Y-88235771D01*
X153152381Y-88235771D02*
X153295238Y-88235771D01*
X153295238Y-88235771D02*
X153390476Y-88283390D01*
X153390476Y-88283390D02*
X153438095Y-88331009D01*
X153438095Y-88331009D02*
X153485714Y-88426247D01*
X153485714Y-88426247D02*
X153485714Y-88664342D01*
X153485714Y-88664342D02*
X153438095Y-88759580D01*
X153438095Y-88759580D02*
X153390476Y-88807200D01*
X153390476Y-88807200D02*
X153295238Y-88854819D01*
X153295238Y-88854819D02*
X153009524Y-88854819D01*
X153009524Y-88854819D02*
X152914286Y-88807200D01*
X152914286Y-88807200D02*
X152866667Y-88759580D01*
D13*
%TO.C,C7*%
X127788748Y-110090000D02*
X129211252Y-110090000D01*
X127788748Y-111910000D02*
X129211252Y-111910000D01*
%TO.C,R3*%
X123497936Y-73890000D02*
X124952064Y-73890000D01*
X123497936Y-75710000D02*
X124952064Y-75710000D01*
%TO.C,C10*%
X153188748Y-98890000D02*
X154611252Y-98890000D01*
X153188748Y-100710000D02*
X154611252Y-100710000D01*
%TO.C,C8*%
X153188748Y-102590000D02*
X154611252Y-102590000D01*
X153188748Y-104410000D02*
X154611252Y-104410000D01*
%TO.C,R2*%
X125220000Y-79446359D02*
X125220000Y-79753641D01*
X125980000Y-79446359D02*
X125980000Y-79753641D01*
%TO.C,D2*%
X142750000Y-78000000D02*
X142750000Y-86400000D01*
X142750000Y-78000000D02*
X149250000Y-78000000D01*
X149250000Y-78000000D02*
X149250000Y-86400000D01*
%TO.C,C1*%
X141490000Y-90738748D02*
X141490000Y-93061252D01*
X144910000Y-90738748D02*
X144910000Y-93061252D01*
%TO.C,FB1*%
X124690000Y-102064758D02*
X124690000Y-103735242D01*
X126510000Y-102064758D02*
X126510000Y-103735242D01*
%TO.C,C4*%
X153188748Y-107190000D02*
X154611252Y-107190000D01*
X153188748Y-109010000D02*
X154611252Y-109010000D01*
%TO.C,Q1*%
X123600000Y-76340000D02*
X122950000Y-76340000D01*
X123600000Y-76340000D02*
X124250000Y-76340000D01*
X123600000Y-79460000D02*
X122950000Y-79460000D01*
X123600000Y-79460000D02*
X124250000Y-79460000D01*
X122437500Y-76390000D02*
X122197500Y-76060000D01*
X122677500Y-76060000D01*
X122437500Y-76390000D01*
G36*
X122437500Y-76390000D02*
G01*
X122197500Y-76060000D01*
X122677500Y-76060000D01*
X122437500Y-76390000D01*
G37*
%TO.C,D4*%
X149450000Y-68200000D02*
X149450000Y-76600000D01*
X149450000Y-68200000D02*
X155950000Y-68200000D01*
X155950000Y-68200000D02*
X155950000Y-76600000D01*
%TO.C,D1*%
X142750000Y-77800000D02*
X142750000Y-69400000D01*
X149250000Y-77800000D02*
X142750000Y-77800000D01*
X149250000Y-77800000D02*
X149250000Y-69400000D01*
%TO.C,D6*%
X127850000Y-91200000D02*
X127850000Y-96600000D01*
X131150000Y-91200000D02*
X127850000Y-91200000D01*
X131150000Y-91200000D02*
X131150000Y-96600000D01*
%TO.C,C6*%
X153188748Y-104890000D02*
X154611252Y-104890000D01*
X153188748Y-106710000D02*
X154611252Y-106710000D01*
%TO.C,C5*%
X126388748Y-107790000D02*
X127811252Y-107790000D01*
X126388748Y-109610000D02*
X127811252Y-109610000D01*
D11*
%TO.C,Con2*%
X144050000Y-51400000D02*
X153950000Y-51400000D01*
X144050000Y-66400000D02*
X144050000Y-51400000D01*
X146000000Y-66400000D02*
X144050000Y-66400000D01*
X147050000Y-66400000D02*
X150950000Y-66400000D01*
X153950000Y-51400000D02*
X153950000Y-66400000D01*
X153950000Y-66400000D02*
X152050000Y-66400000D01*
X147750000Y-57100000D02*
G75*
G02*
X145250000Y-57100000I-1250000J0D01*
G01*
X145250000Y-57100000D02*
G75*
G02*
X147750000Y-57100000I1250000J0D01*
G01*
X152750000Y-57100000D02*
G75*
G02*
X150250000Y-57100000I-1250000J0D01*
G01*
X150250000Y-57100000D02*
G75*
G02*
X152750000Y-57100000I1250000J0D01*
G01*
D13*
%TO.C,FB2*%
X146664758Y-94890000D02*
X148335242Y-94890000D01*
X146664758Y-96710000D02*
X148335242Y-96710000D01*
%TO.C,C3*%
X126388748Y-105490000D02*
X127811252Y-105490000D01*
X126388748Y-107310000D02*
X127811252Y-107310000D01*
%TO.C,C2*%
X137590000Y-90738748D02*
X137590000Y-93061252D01*
X141010000Y-90738748D02*
X141010000Y-93061252D01*
D11*
%TO.C,Con3*%
X130050000Y-51400000D02*
X139950000Y-51400000D01*
X130050000Y-66400000D02*
X130050000Y-51400000D01*
X132000000Y-66400000D02*
X130050000Y-66400000D01*
X133050000Y-66400000D02*
X136950000Y-66400000D01*
X139950000Y-51400000D02*
X139950000Y-66400000D01*
X139950000Y-66400000D02*
X138050000Y-66400000D01*
X133750000Y-57100000D02*
G75*
G02*
X131250000Y-57100000I-1250000J0D01*
G01*
X131250000Y-57100000D02*
G75*
G02*
X133750000Y-57100000I1250000J0D01*
G01*
X138750000Y-57100000D02*
G75*
G02*
X136250000Y-57100000I-1250000J0D01*
G01*
X136250000Y-57100000D02*
G75*
G02*
X138750000Y-57100000I1250000J0D01*
G01*
D13*
%TO.C,Q2*%
X129800000Y-76175000D02*
X131610000Y-76175000D01*
X129800000Y-77540000D02*
X129800000Y-76175000D01*
X140200000Y-76175000D02*
X138390000Y-76175000D01*
X140200000Y-77540000D02*
X140200000Y-76175000D01*
X138820000Y-73690000D02*
X138350000Y-73350000D01*
X138820000Y-73010000D01*
X138820000Y-73690000D01*
G36*
X138820000Y-73690000D02*
G01*
X138350000Y-73350000D01*
X138820000Y-73010000D01*
X138820000Y-73690000D01*
G37*
D11*
%TO.C,Con4*%
X113750000Y-80050000D02*
X124750000Y-80050000D01*
X113750000Y-89950000D02*
X113750000Y-80050000D01*
X124750000Y-80050000D02*
X124750000Y-81750000D01*
X124750000Y-86750000D02*
X124750000Y-83250000D01*
X124750000Y-88250000D02*
X124750000Y-89950000D01*
X124750000Y-89950000D02*
X113750000Y-89950000D01*
X116250000Y-82500000D02*
G75*
G02*
X114650000Y-82500000I-800000J0D01*
G01*
X114650000Y-82500000D02*
G75*
G02*
X116250000Y-82500000I800000J0D01*
G01*
X116250000Y-85000000D02*
G75*
G02*
X114650000Y-85000000I-800000J0D01*
G01*
X114650000Y-85000000D02*
G75*
G02*
X116250000Y-85000000I800000J0D01*
G01*
X116250000Y-87500000D02*
G75*
G02*
X114650000Y-87500000I-800000J0D01*
G01*
X114650000Y-87500000D02*
G75*
G02*
X116250000Y-87500000I800000J0D01*
G01*
D13*
%TO.C,C9*%
X129238748Y-112390000D02*
X130661252Y-112390000D01*
X129238748Y-114210000D02*
X130661252Y-114210000D01*
%TO.C,R1*%
X125653641Y-76220000D02*
X125346359Y-76220000D01*
X125653641Y-76980000D02*
X125346359Y-76980000D01*
%TO.C,D5*%
X131350000Y-89600000D02*
X131350000Y-95000000D01*
X134650000Y-89600000D02*
X131350000Y-89600000D01*
X134650000Y-89600000D02*
X134650000Y-95000000D01*
D11*
%TO.C,Con1*%
X111400000Y-63200000D02*
X126400000Y-63200000D01*
X111400000Y-73100000D02*
X111400000Y-63200000D01*
X126400000Y-63200000D02*
X126400000Y-65100000D01*
X126400000Y-70100000D02*
X126400000Y-66200000D01*
X126400000Y-71150000D02*
X126400000Y-73100000D01*
X126400000Y-73100000D02*
X111400000Y-73100000D01*
X118350000Y-65650000D02*
G75*
G02*
X115850000Y-65650000I-1250000J0D01*
G01*
X115850000Y-65650000D02*
G75*
G02*
X118350000Y-65650000I1250000J0D01*
G01*
X118350000Y-70650000D02*
G75*
G02*
X115850000Y-70650000I-1250000J0D01*
G01*
X115850000Y-70650000D02*
G75*
G02*
X118350000Y-70650000I1250000J0D01*
G01*
D13*
%TO.C,D3*%
X149450000Y-87600000D02*
X149450000Y-79200000D01*
X155950000Y-87600000D02*
X149450000Y-87600000D01*
X155950000Y-87600000D02*
X155950000Y-79200000D01*
%TD*%
M02*
