%TF.GenerationSoftware,KiCad,Pcbnew,9.0.2*%
%TF.CreationDate,2025-11-13T09:21:06+01:00*%
%TF.ProjectId,Platine_Grinder_Triac_smd_v2.1,506c6174-696e-4655-9f47-72696e646572,rev?*%
%TF.SameCoordinates,Original*%
%TF.FileFunction,Legend,Bot*%
%TF.FilePolarity,Positive*%
%FSLAX46Y46*%
G04 Gerber Fmt 4.6, Leading zero omitted, Abs format (unit mm)*
G04 Created by KiCad (PCBNEW 9.0.2) date 2025-11-13 09:21:06*
%MOMM*%
%LPD*%
G01*
G04 APERTURE LIST*
%ADD10C,0.150000*%
G04 APERTURE END LIST*
D10*
X125061904Y-61254819D02*
X124490476Y-61254819D01*
X124776190Y-62254819D02*
X124776190Y-61254819D01*
X124157142Y-62254819D02*
X124157142Y-61254819D01*
X124157142Y-61254819D02*
X123776190Y-61254819D01*
X123776190Y-61254819D02*
X123680952Y-61302438D01*
X123680952Y-61302438D02*
X123633333Y-61350057D01*
X123633333Y-61350057D02*
X123585714Y-61445295D01*
X123585714Y-61445295D02*
X123585714Y-61588152D01*
X123585714Y-61588152D02*
X123633333Y-61683390D01*
X123633333Y-61683390D02*
X123680952Y-61731009D01*
X123680952Y-61731009D02*
X123776190Y-61778628D01*
X123776190Y-61778628D02*
X124157142Y-61778628D01*
X123204761Y-61350057D02*
X123157142Y-61302438D01*
X123157142Y-61302438D02*
X123061904Y-61254819D01*
X123061904Y-61254819D02*
X122823809Y-61254819D01*
X122823809Y-61254819D02*
X122728571Y-61302438D01*
X122728571Y-61302438D02*
X122680952Y-61350057D01*
X122680952Y-61350057D02*
X122633333Y-61445295D01*
X122633333Y-61445295D02*
X122633333Y-61540533D01*
X122633333Y-61540533D02*
X122680952Y-61683390D01*
X122680952Y-61683390D02*
X123252380Y-62254819D01*
X123252380Y-62254819D02*
X122633333Y-62254819D01*
X143261904Y-79154819D02*
X142690476Y-79154819D01*
X142976190Y-80154819D02*
X142976190Y-79154819D01*
X142357142Y-80154819D02*
X142357142Y-79154819D01*
X142357142Y-79154819D02*
X141976190Y-79154819D01*
X141976190Y-79154819D02*
X141880952Y-79202438D01*
X141880952Y-79202438D02*
X141833333Y-79250057D01*
X141833333Y-79250057D02*
X141785714Y-79345295D01*
X141785714Y-79345295D02*
X141785714Y-79488152D01*
X141785714Y-79488152D02*
X141833333Y-79583390D01*
X141833333Y-79583390D02*
X141880952Y-79631009D01*
X141880952Y-79631009D02*
X141976190Y-79678628D01*
X141976190Y-79678628D02*
X142357142Y-79678628D01*
X141309523Y-80154819D02*
X141119047Y-80154819D01*
X141119047Y-80154819D02*
X141023809Y-80107200D01*
X141023809Y-80107200D02*
X140976190Y-80059580D01*
X140976190Y-80059580D02*
X140880952Y-79916723D01*
X140880952Y-79916723D02*
X140833333Y-79726247D01*
X140833333Y-79726247D02*
X140833333Y-79345295D01*
X140833333Y-79345295D02*
X140880952Y-79250057D01*
X140880952Y-79250057D02*
X140928571Y-79202438D01*
X140928571Y-79202438D02*
X141023809Y-79154819D01*
X141023809Y-79154819D02*
X141214285Y-79154819D01*
X141214285Y-79154819D02*
X141309523Y-79202438D01*
X141309523Y-79202438D02*
X141357142Y-79250057D01*
X141357142Y-79250057D02*
X141404761Y-79345295D01*
X141404761Y-79345295D02*
X141404761Y-79583390D01*
X141404761Y-79583390D02*
X141357142Y-79678628D01*
X141357142Y-79678628D02*
X141309523Y-79726247D01*
X141309523Y-79726247D02*
X141214285Y-79773866D01*
X141214285Y-79773866D02*
X141023809Y-79773866D01*
X141023809Y-79773866D02*
X140928571Y-79726247D01*
X140928571Y-79726247D02*
X140880952Y-79678628D01*
X140880952Y-79678628D02*
X140833333Y-79583390D01*
X126761904Y-75954819D02*
X126190476Y-75954819D01*
X126476190Y-76954819D02*
X126476190Y-75954819D01*
X125857142Y-76954819D02*
X125857142Y-75954819D01*
X125857142Y-75954819D02*
X125476190Y-75954819D01*
X125476190Y-75954819D02*
X125380952Y-76002438D01*
X125380952Y-76002438D02*
X125333333Y-76050057D01*
X125333333Y-76050057D02*
X125285714Y-76145295D01*
X125285714Y-76145295D02*
X125285714Y-76288152D01*
X125285714Y-76288152D02*
X125333333Y-76383390D01*
X125333333Y-76383390D02*
X125380952Y-76431009D01*
X125380952Y-76431009D02*
X125476190Y-76478628D01*
X125476190Y-76478628D02*
X125857142Y-76478628D01*
X124714285Y-76383390D02*
X124809523Y-76335771D01*
X124809523Y-76335771D02*
X124857142Y-76288152D01*
X124857142Y-76288152D02*
X124904761Y-76192914D01*
X124904761Y-76192914D02*
X124904761Y-76145295D01*
X124904761Y-76145295D02*
X124857142Y-76050057D01*
X124857142Y-76050057D02*
X124809523Y-76002438D01*
X124809523Y-76002438D02*
X124714285Y-75954819D01*
X124714285Y-75954819D02*
X124523809Y-75954819D01*
X124523809Y-75954819D02*
X124428571Y-76002438D01*
X124428571Y-76002438D02*
X124380952Y-76050057D01*
X124380952Y-76050057D02*
X124333333Y-76145295D01*
X124333333Y-76145295D02*
X124333333Y-76192914D01*
X124333333Y-76192914D02*
X124380952Y-76288152D01*
X124380952Y-76288152D02*
X124428571Y-76335771D01*
X124428571Y-76335771D02*
X124523809Y-76383390D01*
X124523809Y-76383390D02*
X124714285Y-76383390D01*
X124714285Y-76383390D02*
X124809523Y-76431009D01*
X124809523Y-76431009D02*
X124857142Y-76478628D01*
X124857142Y-76478628D02*
X124904761Y-76573866D01*
X124904761Y-76573866D02*
X124904761Y-76764342D01*
X124904761Y-76764342D02*
X124857142Y-76859580D01*
X124857142Y-76859580D02*
X124809523Y-76907200D01*
X124809523Y-76907200D02*
X124714285Y-76954819D01*
X124714285Y-76954819D02*
X124523809Y-76954819D01*
X124523809Y-76954819D02*
X124428571Y-76907200D01*
X124428571Y-76907200D02*
X124380952Y-76859580D01*
X124380952Y-76859580D02*
X124333333Y-76764342D01*
X124333333Y-76764342D02*
X124333333Y-76573866D01*
X124333333Y-76573866D02*
X124380952Y-76478628D01*
X124380952Y-76478628D02*
X124428571Y-76431009D01*
X124428571Y-76431009D02*
X124523809Y-76383390D01*
X123861904Y-76054819D02*
X123290476Y-76054819D01*
X123576190Y-77054819D02*
X123576190Y-76054819D01*
X122957142Y-77054819D02*
X122957142Y-76054819D01*
X122957142Y-76054819D02*
X122576190Y-76054819D01*
X122576190Y-76054819D02*
X122480952Y-76102438D01*
X122480952Y-76102438D02*
X122433333Y-76150057D01*
X122433333Y-76150057D02*
X122385714Y-76245295D01*
X122385714Y-76245295D02*
X122385714Y-76388152D01*
X122385714Y-76388152D02*
X122433333Y-76483390D01*
X122433333Y-76483390D02*
X122480952Y-76531009D01*
X122480952Y-76531009D02*
X122576190Y-76578628D01*
X122576190Y-76578628D02*
X122957142Y-76578628D01*
X122052380Y-76054819D02*
X121385714Y-76054819D01*
X121385714Y-76054819D02*
X121814285Y-77054819D01*
X147738094Y-84354819D02*
X147166666Y-84354819D01*
X147452380Y-85354819D02*
X147452380Y-84354819D01*
X146833332Y-85354819D02*
X146833332Y-84354819D01*
X146833332Y-84354819D02*
X146452380Y-84354819D01*
X146452380Y-84354819D02*
X146357142Y-84402438D01*
X146357142Y-84402438D02*
X146309523Y-84450057D01*
X146309523Y-84450057D02*
X146261904Y-84545295D01*
X146261904Y-84545295D02*
X146261904Y-84688152D01*
X146261904Y-84688152D02*
X146309523Y-84783390D01*
X146309523Y-84783390D02*
X146357142Y-84831009D01*
X146357142Y-84831009D02*
X146452380Y-84878628D01*
X146452380Y-84878628D02*
X146833332Y-84878628D01*
X145309523Y-85354819D02*
X145880951Y-85354819D01*
X145595237Y-85354819D02*
X145595237Y-84354819D01*
X145595237Y-84354819D02*
X145690475Y-84497676D01*
X145690475Y-84497676D02*
X145785713Y-84592914D01*
X145785713Y-84592914D02*
X145880951Y-84640533D01*
X144357142Y-85354819D02*
X144928570Y-85354819D01*
X144642856Y-85354819D02*
X144642856Y-84354819D01*
X144642856Y-84354819D02*
X144738094Y-84497676D01*
X144738094Y-84497676D02*
X144833332Y-84592914D01*
X144833332Y-84592914D02*
X144928570Y-84640533D01*
X124561904Y-78654819D02*
X123990476Y-78654819D01*
X124276190Y-79654819D02*
X124276190Y-78654819D01*
X123657142Y-79654819D02*
X123657142Y-78654819D01*
X123657142Y-78654819D02*
X123276190Y-78654819D01*
X123276190Y-78654819D02*
X123180952Y-78702438D01*
X123180952Y-78702438D02*
X123133333Y-78750057D01*
X123133333Y-78750057D02*
X123085714Y-78845295D01*
X123085714Y-78845295D02*
X123085714Y-78988152D01*
X123085714Y-78988152D02*
X123133333Y-79083390D01*
X123133333Y-79083390D02*
X123180952Y-79131009D01*
X123180952Y-79131009D02*
X123276190Y-79178628D01*
X123276190Y-79178628D02*
X123657142Y-79178628D01*
X122228571Y-78654819D02*
X122419047Y-78654819D01*
X122419047Y-78654819D02*
X122514285Y-78702438D01*
X122514285Y-78702438D02*
X122561904Y-78750057D01*
X122561904Y-78750057D02*
X122657142Y-78892914D01*
X122657142Y-78892914D02*
X122704761Y-79083390D01*
X122704761Y-79083390D02*
X122704761Y-79464342D01*
X122704761Y-79464342D02*
X122657142Y-79559580D01*
X122657142Y-79559580D02*
X122609523Y-79607200D01*
X122609523Y-79607200D02*
X122514285Y-79654819D01*
X122514285Y-79654819D02*
X122323809Y-79654819D01*
X122323809Y-79654819D02*
X122228571Y-79607200D01*
X122228571Y-79607200D02*
X122180952Y-79559580D01*
X122180952Y-79559580D02*
X122133333Y-79464342D01*
X122133333Y-79464342D02*
X122133333Y-79226247D01*
X122133333Y-79226247D02*
X122180952Y-79131009D01*
X122180952Y-79131009D02*
X122228571Y-79083390D01*
X122228571Y-79083390D02*
X122323809Y-79035771D01*
X122323809Y-79035771D02*
X122514285Y-79035771D01*
X122514285Y-79035771D02*
X122609523Y-79083390D01*
X122609523Y-79083390D02*
X122657142Y-79131009D01*
X122657142Y-79131009D02*
X122704761Y-79226247D01*
X126961904Y-77454819D02*
X126390476Y-77454819D01*
X126676190Y-78454819D02*
X126676190Y-77454819D01*
X126057142Y-78454819D02*
X126057142Y-77454819D01*
X126057142Y-77454819D02*
X125676190Y-77454819D01*
X125676190Y-77454819D02*
X125580952Y-77502438D01*
X125580952Y-77502438D02*
X125533333Y-77550057D01*
X125533333Y-77550057D02*
X125485714Y-77645295D01*
X125485714Y-77645295D02*
X125485714Y-77788152D01*
X125485714Y-77788152D02*
X125533333Y-77883390D01*
X125533333Y-77883390D02*
X125580952Y-77931009D01*
X125580952Y-77931009D02*
X125676190Y-77978628D01*
X125676190Y-77978628D02*
X126057142Y-77978628D01*
X124580952Y-77454819D02*
X125057142Y-77454819D01*
X125057142Y-77454819D02*
X125104761Y-77931009D01*
X125104761Y-77931009D02*
X125057142Y-77883390D01*
X125057142Y-77883390D02*
X124961904Y-77835771D01*
X124961904Y-77835771D02*
X124723809Y-77835771D01*
X124723809Y-77835771D02*
X124628571Y-77883390D01*
X124628571Y-77883390D02*
X124580952Y-77931009D01*
X124580952Y-77931009D02*
X124533333Y-78026247D01*
X124533333Y-78026247D02*
X124533333Y-78264342D01*
X124533333Y-78264342D02*
X124580952Y-78359580D01*
X124580952Y-78359580D02*
X124628571Y-78407200D01*
X124628571Y-78407200D02*
X124723809Y-78454819D01*
X124723809Y-78454819D02*
X124961904Y-78454819D01*
X124961904Y-78454819D02*
X125057142Y-78407200D01*
X125057142Y-78407200D02*
X125104761Y-78359580D01*
X156661904Y-63154819D02*
X156090476Y-63154819D01*
X156376190Y-64154819D02*
X156376190Y-63154819D01*
X155757142Y-64154819D02*
X155757142Y-63154819D01*
X155757142Y-63154819D02*
X155376190Y-63154819D01*
X155376190Y-63154819D02*
X155280952Y-63202438D01*
X155280952Y-63202438D02*
X155233333Y-63250057D01*
X155233333Y-63250057D02*
X155185714Y-63345295D01*
X155185714Y-63345295D02*
X155185714Y-63488152D01*
X155185714Y-63488152D02*
X155233333Y-63583390D01*
X155233333Y-63583390D02*
X155280952Y-63631009D01*
X155280952Y-63631009D02*
X155376190Y-63678628D01*
X155376190Y-63678628D02*
X155757142Y-63678628D01*
X154852380Y-63154819D02*
X154233333Y-63154819D01*
X154233333Y-63154819D02*
X154566666Y-63535771D01*
X154566666Y-63535771D02*
X154423809Y-63535771D01*
X154423809Y-63535771D02*
X154328571Y-63583390D01*
X154328571Y-63583390D02*
X154280952Y-63631009D01*
X154280952Y-63631009D02*
X154233333Y-63726247D01*
X154233333Y-63726247D02*
X154233333Y-63964342D01*
X154233333Y-63964342D02*
X154280952Y-64059580D01*
X154280952Y-64059580D02*
X154328571Y-64107200D01*
X154328571Y-64107200D02*
X154423809Y-64154819D01*
X154423809Y-64154819D02*
X154709523Y-64154819D01*
X154709523Y-64154819D02*
X154804761Y-64107200D01*
X154804761Y-64107200D02*
X154852380Y-64059580D01*
X154438094Y-83354819D02*
X153866666Y-83354819D01*
X154152380Y-84354819D02*
X154152380Y-83354819D01*
X153533332Y-84354819D02*
X153533332Y-83354819D01*
X153533332Y-83354819D02*
X153152380Y-83354819D01*
X153152380Y-83354819D02*
X153057142Y-83402438D01*
X153057142Y-83402438D02*
X153009523Y-83450057D01*
X153009523Y-83450057D02*
X152961904Y-83545295D01*
X152961904Y-83545295D02*
X152961904Y-83688152D01*
X152961904Y-83688152D02*
X153009523Y-83783390D01*
X153009523Y-83783390D02*
X153057142Y-83831009D01*
X153057142Y-83831009D02*
X153152380Y-83878628D01*
X153152380Y-83878628D02*
X153533332Y-83878628D01*
X152009523Y-84354819D02*
X152580951Y-84354819D01*
X152295237Y-84354819D02*
X152295237Y-83354819D01*
X152295237Y-83354819D02*
X152390475Y-83497676D01*
X152390475Y-83497676D02*
X152485713Y-83592914D01*
X152485713Y-83592914D02*
X152580951Y-83640533D01*
X151390475Y-83354819D02*
X151295237Y-83354819D01*
X151295237Y-83354819D02*
X151199999Y-83402438D01*
X151199999Y-83402438D02*
X151152380Y-83450057D01*
X151152380Y-83450057D02*
X151104761Y-83545295D01*
X151104761Y-83545295D02*
X151057142Y-83735771D01*
X151057142Y-83735771D02*
X151057142Y-83973866D01*
X151057142Y-83973866D02*
X151104761Y-84164342D01*
X151104761Y-84164342D02*
X151152380Y-84259580D01*
X151152380Y-84259580D02*
X151199999Y-84307200D01*
X151199999Y-84307200D02*
X151295237Y-84354819D01*
X151295237Y-84354819D02*
X151390475Y-84354819D01*
X151390475Y-84354819D02*
X151485713Y-84307200D01*
X151485713Y-84307200D02*
X151533332Y-84259580D01*
X151533332Y-84259580D02*
X151580951Y-84164342D01*
X151580951Y-84164342D02*
X151628570Y-83973866D01*
X151628570Y-83973866D02*
X151628570Y-83735771D01*
X151628570Y-83735771D02*
X151580951Y-83545295D01*
X151580951Y-83545295D02*
X151533332Y-83450057D01*
X151533332Y-83450057D02*
X151485713Y-83402438D01*
X151485713Y-83402438D02*
X151390475Y-83354819D01*
X151638094Y-105454819D02*
X151066666Y-105454819D01*
X151352380Y-106454819D02*
X151352380Y-105454819D01*
X150733332Y-106454819D02*
X150733332Y-105454819D01*
X150733332Y-105454819D02*
X150352380Y-105454819D01*
X150352380Y-105454819D02*
X150257142Y-105502438D01*
X150257142Y-105502438D02*
X150209523Y-105550057D01*
X150209523Y-105550057D02*
X150161904Y-105645295D01*
X150161904Y-105645295D02*
X150161904Y-105788152D01*
X150161904Y-105788152D02*
X150209523Y-105883390D01*
X150209523Y-105883390D02*
X150257142Y-105931009D01*
X150257142Y-105931009D02*
X150352380Y-105978628D01*
X150352380Y-105978628D02*
X150733332Y-105978628D01*
X149209523Y-106454819D02*
X149780951Y-106454819D01*
X149495237Y-106454819D02*
X149495237Y-105454819D01*
X149495237Y-105454819D02*
X149590475Y-105597676D01*
X149590475Y-105597676D02*
X149685713Y-105692914D01*
X149685713Y-105692914D02*
X149780951Y-105740533D01*
X148352380Y-105788152D02*
X148352380Y-106454819D01*
X148590475Y-105407200D02*
X148828570Y-106121485D01*
X148828570Y-106121485D02*
X148209523Y-106121485D01*
X152138094Y-96254819D02*
X151566666Y-96254819D01*
X151852380Y-97254819D02*
X151852380Y-96254819D01*
X151233332Y-97254819D02*
X151233332Y-96254819D01*
X151233332Y-96254819D02*
X150852380Y-96254819D01*
X150852380Y-96254819D02*
X150757142Y-96302438D01*
X150757142Y-96302438D02*
X150709523Y-96350057D01*
X150709523Y-96350057D02*
X150661904Y-96445295D01*
X150661904Y-96445295D02*
X150661904Y-96588152D01*
X150661904Y-96588152D02*
X150709523Y-96683390D01*
X150709523Y-96683390D02*
X150757142Y-96731009D01*
X150757142Y-96731009D02*
X150852380Y-96778628D01*
X150852380Y-96778628D02*
X151233332Y-96778628D01*
X149709523Y-97254819D02*
X150280951Y-97254819D01*
X149995237Y-97254819D02*
X149995237Y-96254819D01*
X149995237Y-96254819D02*
X150090475Y-96397676D01*
X150090475Y-96397676D02*
X150185713Y-96492914D01*
X150185713Y-96492914D02*
X150280951Y-96540533D01*
X149376189Y-96254819D02*
X148757142Y-96254819D01*
X148757142Y-96254819D02*
X149090475Y-96635771D01*
X149090475Y-96635771D02*
X148947618Y-96635771D01*
X148947618Y-96635771D02*
X148852380Y-96683390D01*
X148852380Y-96683390D02*
X148804761Y-96731009D01*
X148804761Y-96731009D02*
X148757142Y-96826247D01*
X148757142Y-96826247D02*
X148757142Y-97064342D01*
X148757142Y-97064342D02*
X148804761Y-97159580D01*
X148804761Y-97159580D02*
X148852380Y-97207200D01*
X148852380Y-97207200D02*
X148947618Y-97254819D01*
X148947618Y-97254819D02*
X149233332Y-97254819D01*
X149233332Y-97254819D02*
X149328570Y-97207200D01*
X149328570Y-97207200D02*
X149376189Y-97159580D01*
X122561904Y-92554819D02*
X121990476Y-92554819D01*
X122276190Y-93554819D02*
X122276190Y-92554819D01*
X121657142Y-93554819D02*
X121657142Y-92554819D01*
X121657142Y-92554819D02*
X121276190Y-92554819D01*
X121276190Y-92554819D02*
X121180952Y-92602438D01*
X121180952Y-92602438D02*
X121133333Y-92650057D01*
X121133333Y-92650057D02*
X121085714Y-92745295D01*
X121085714Y-92745295D02*
X121085714Y-92888152D01*
X121085714Y-92888152D02*
X121133333Y-92983390D01*
X121133333Y-92983390D02*
X121180952Y-93031009D01*
X121180952Y-93031009D02*
X121276190Y-93078628D01*
X121276190Y-93078628D02*
X121657142Y-93078628D01*
X120228571Y-92888152D02*
X120228571Y-93554819D01*
X120466666Y-92507200D02*
X120704761Y-93221485D01*
X120704761Y-93221485D02*
X120085714Y-93221485D01*
X130161904Y-69654819D02*
X129590476Y-69654819D01*
X129876190Y-70654819D02*
X129876190Y-69654819D01*
X129257142Y-70654819D02*
X129257142Y-69654819D01*
X129257142Y-69654819D02*
X128876190Y-69654819D01*
X128876190Y-69654819D02*
X128780952Y-69702438D01*
X128780952Y-69702438D02*
X128733333Y-69750057D01*
X128733333Y-69750057D02*
X128685714Y-69845295D01*
X128685714Y-69845295D02*
X128685714Y-69988152D01*
X128685714Y-69988152D02*
X128733333Y-70083390D01*
X128733333Y-70083390D02*
X128780952Y-70131009D01*
X128780952Y-70131009D02*
X128876190Y-70178628D01*
X128876190Y-70178628D02*
X129257142Y-70178628D01*
X127733333Y-70654819D02*
X128304761Y-70654819D01*
X128019047Y-70654819D02*
X128019047Y-69654819D01*
X128019047Y-69654819D02*
X128114285Y-69797676D01*
X128114285Y-69797676D02*
X128209523Y-69892914D01*
X128209523Y-69892914D02*
X128304761Y-69940533D01*
X131338094Y-120154819D02*
X130766666Y-120154819D01*
X131052380Y-121154819D02*
X131052380Y-120154819D01*
X130433332Y-121154819D02*
X130433332Y-120154819D01*
X130433332Y-120154819D02*
X130052380Y-120154819D01*
X130052380Y-120154819D02*
X129957142Y-120202438D01*
X129957142Y-120202438D02*
X129909523Y-120250057D01*
X129909523Y-120250057D02*
X129861904Y-120345295D01*
X129861904Y-120345295D02*
X129861904Y-120488152D01*
X129861904Y-120488152D02*
X129909523Y-120583390D01*
X129909523Y-120583390D02*
X129957142Y-120631009D01*
X129957142Y-120631009D02*
X130052380Y-120678628D01*
X130052380Y-120678628D02*
X130433332Y-120678628D01*
X128909523Y-121154819D02*
X129480951Y-121154819D01*
X129195237Y-121154819D02*
X129195237Y-120154819D01*
X129195237Y-120154819D02*
X129290475Y-120297676D01*
X129290475Y-120297676D02*
X129385713Y-120392914D01*
X129385713Y-120392914D02*
X129480951Y-120440533D01*
X128528570Y-120250057D02*
X128480951Y-120202438D01*
X128480951Y-120202438D02*
X128385713Y-120154819D01*
X128385713Y-120154819D02*
X128147618Y-120154819D01*
X128147618Y-120154819D02*
X128052380Y-120202438D01*
X128052380Y-120202438D02*
X128004761Y-120250057D01*
X128004761Y-120250057D02*
X127957142Y-120345295D01*
X127957142Y-120345295D02*
X127957142Y-120440533D01*
X127957142Y-120440533D02*
X128004761Y-120583390D01*
X128004761Y-120583390D02*
X128576189Y-121154819D01*
X128576189Y-121154819D02*
X127957142Y-121154819D01*
M02*
