%FSTAX23Y23*%
%MOIN*%
%SFA1B1*%

%IPPOS*%
%ADD10C,0.005905*%
%ADD11C,0.010000*%
%ADD12C,0.019685*%
%ADD13C,0.007874*%
%ADD14C,0.004724*%
%LN1438-1d70059_a-1*%
%LPD*%
G36*
X00193Y00741D02*
X00154D01*
X00174Y00721*
X00193Y00741*
G37*
G36*
X00287Y00636D02*
Y00676D01*
X00267Y00656*
X00287Y00636*
G37*
G36*
X00595Y00363D02*
X0062Y00387D01*
X00571*
X00595Y00363*
G37*
G36*
X0099Y00783D02*
X01015Y00807D01*
X00966*
X0099Y00783*
G37*
G36*
X01753Y00389D02*
X01764Y00378D01*
Y004*
X01753Y00389*
G37*
G54D10*
X00724Y0082D02*
D01*
D01*
G75*
G03X00744Y0084I0J00019D01*
G74*G01*
X00705D02*
D01*
D01*
G75*
G03X00724Y0082I00019J0D01*
G74*G01*
X00705Y0084D02*
D01*
D01*
G75*
G03X00685Y00859I-00019J0D01*
G74*G01*
D01*
D01*
G75*
G03X00665Y0084I0J-00019D01*
G74*G01*
X00724Y0082D02*
D01*
X00685Y00859D02*
D01*
X00539Y00918D02*
X0087D01*
Y00761D02*
Y00918D01*
X00539Y00761D02*
X0087D01*
X00539D02*
Y00918D01*
X01084Y0038D02*
X01116D01*
X0044Y0007D02*
X0046D01*
X0045*
Y0013*
X0044Y0012*
X0052Y0007D02*
Y0013D01*
X0049Y001*
X0053*
X0055Y0012D02*
X0056Y0013D01*
X0058*
X0059Y0012*
Y0011*
X0058Y001*
X0057*
X0058*
X0059Y0009*
Y0008*
X0058Y0007*
X0056*
X0055Y0008*
X0061Y0012D02*
X0062Y0013D01*
X0064*
X0065Y0012*
Y0011*
X0064Y001*
X0065Y0009*
Y0008*
X0064Y0007*
X0062*
X0061Y0008*
Y0009*
X0062Y001*
X0061Y0011*
Y0012*
X0062Y001D02*
X0064D01*
X0067D02*
X0071D01*
X0073Y0007D02*
X0075D01*
X0074*
Y0013*
X0073Y0012*
X0078Y0013D02*
Y0007D01*
X0081*
X0082Y0008*
Y0012*
X0081Y0013*
X0078*
X0084D02*
X0088D01*
Y0012*
X0084Y0008*
Y0007*
X009Y0012D02*
X0091Y0013D01*
X0093*
X0094Y0012*
Y0008*
X0093Y0007*
X0091*
X009Y0008*
Y0012*
X0096D02*
X0097Y0013D01*
X0099*
X01Y0012*
Y0008*
X0099Y0007*
X0097*
X0096Y0008*
Y0012*
X0106Y0013D02*
X0102D01*
Y001*
X0104Y0011*
X0105*
X0106Y001*
Y0008*
X0105Y0007*
X0103*
X0102Y0008*
X0108D02*
X0109Y0007D01*
X0111*
X0112Y0008*
Y0012*
X0111Y0013*
X0109*
X0108Y0012*
Y0011*
X0109Y001*
X0112*
X0114Y0006D02*
X0118D01*
X012Y0007D02*
Y0011D01*
X0122Y0013*
X0124Y0011*
Y0007*
Y001*
X012*
X0003Y00901D02*
Y00948D01*
X00054*
X00062Y00941*
Y00925*
X00054Y00917*
X0003*
X00086Y00901D02*
X00101D01*
X00109Y00909*
Y00925*
X00101Y00933*
X00086*
X00078Y00925*
Y00909*
X00086Y00901*
X00125Y00933D02*
Y00909D01*
X00133Y00901*
X00141Y00909*
X00148Y00901*
X00156Y00909*
Y00933*
X00196Y00901D02*
X0018D01*
X00172Y00909*
Y00925*
X0018Y00933*
X00196*
X00204Y00925*
Y00917*
X00172*
X00219Y00933D02*
Y00901D01*
Y00917*
X00227Y00925*
X00235Y00933*
X00243*
X00314Y00948D02*
X0033D01*
X00322*
Y00901*
X00314*
X0033*
X00353D02*
Y00933D01*
X00377*
X00385Y00925*
Y00901*
X004Y00885D02*
Y00933D01*
X00424*
X00432Y00925*
Y00909*
X00424Y00901*
X004*
X00448Y00933D02*
Y00909D01*
X00455Y00901*
X00479*
Y00933*
X00503Y00941D02*
Y00933D01*
X00495*
X00511*
X00503*
Y00909*
X00511Y00901*
X0214Y00101D02*
Y00148D01*
X02164*
X02172Y00141*
Y00125*
X02164Y00117*
X0214*
X02196Y00101D02*
X02211D01*
X02219Y00109*
Y00125*
X02211Y00133*
X02196*
X02188Y00125*
Y00109*
X02196Y00101*
X02235Y00133D02*
Y00109D01*
X02243Y00101*
X02251Y00109*
X02258Y00101*
X02266Y00109*
Y00133*
X02306Y00101D02*
X0229D01*
X02282Y00109*
Y00125*
X0229Y00133*
X02306*
X02314Y00125*
Y00117*
X02282*
X02329Y00133D02*
Y00101D01*
Y00117*
X02337Y00125*
X02345Y00133*
X02353*
X02447Y00148D02*
X02432D01*
X02424Y00141*
Y00109*
X02432Y00101*
X02447*
X02455Y00109*
Y00141*
X02447Y00148*
X02471Y00133D02*
Y00109D01*
X02479Y00101*
X02502*
Y00133*
X02526Y00141D02*
Y00133D01*
X02518*
X02534*
X02526*
Y00109*
X02534Y00101*
X02558Y00085D02*
Y00133D01*
X02581*
X02589Y00125*
Y00109*
X02581Y00101*
X02558*
X02605Y00133D02*
Y00109D01*
X02613Y00101*
X02636*
Y00133*
X0266Y00141D02*
Y00133D01*
X02652*
X02668*
X0266*
Y00109*
X02668Y00101*
X0027Y00181D02*
X0023D01*
X0027Y00221*
Y00231*
X0026Y00241*
X0024*
X0023Y00231*
X0033Y00241D02*
X0029D01*
Y00211*
X0031Y00221*
X0032*
X0033Y00211*
Y00191*
X0032Y00181*
X003*
X0029Y00191*
X0035Y00241D02*
Y00181D01*
Y00201*
X0039Y00241*
X0036Y00211*
X0039Y00181*
X0045D02*
X0041D01*
X0045Y00221*
Y00231*
X0044Y00241*
X0042*
X0041Y00231*
X0047D02*
X0048Y00241D01*
X005*
X0051Y00231*
Y00191*
X005Y00181*
X0048*
X0047Y00191*
Y00231*
X0053Y00191D02*
X0054Y00181D01*
X0056*
X0057Y00191*
Y00231*
X0056Y00241*
X0054*
X0053Y00231*
Y00221*
X0054Y00211*
X0057*
X0063Y00241D02*
X0061Y00231D01*
X0059Y00211*
Y00191*
X006Y00181*
X0062*
X0063Y00191*
Y00201*
X0062Y00211*
X0059*
X0043Y00315D02*
Y00355D01*
X00457Y00315*
Y00355*
X0042Y00785D02*
Y00745D01*
X00447*
X0094Y0029D02*
Y00316D01*
X00927Y00303D02*
X00953D01*
X00062Y0084D02*
X00054Y00848D01*
X00039*
X00031Y0084*
Y00809*
X00039Y00801*
X00054*
X00062Y00809*
X00102Y00848D02*
X00086D01*
X00078Y0084*
Y00809*
X00086Y00801*
X00102*
X0011Y00809*
Y0084*
X00102Y00848*
X00125Y00801D02*
Y00848D01*
X00157Y00801*
Y00848*
X00172Y00801D02*
X00188D01*
X0018*
Y00848*
X00172Y0084*
X01136Y00316D02*
X01162D01*
X01149*
Y00276*
X01175Y00263D02*
Y00303D01*
X01195*
X01201Y00296*
Y00283*
X01195Y00276*
X01175*
X01214D02*
X01227D01*
X01221*
Y00316*
X01214Y00309*
X01267Y00276D02*
Y00316D01*
X01247Y00296*
X01273*
X01156Y00491D02*
X01182D01*
X01169*
Y00451*
X01195Y00438D02*
Y00478D01*
X01215*
X01221Y00471*
Y00458*
X01215Y00451*
X01195*
X01234D02*
X01247D01*
X01241*
Y00491*
X01234Y00484*
X01267D02*
X01274Y00491D01*
X01287*
X01293Y00484*
Y00478*
X01287Y00471*
X0128*
X01287*
X01293Y00465*
Y00458*
X01287Y00451*
X01274*
X01267Y00458*
X01761Y00511D02*
X01787D01*
X01774*
Y00471*
X018Y00458D02*
Y00498D01*
X0182*
X01826Y00491*
Y00478*
X0182Y00471*
X018*
X01839D02*
X01852D01*
X01846*
Y00511*
X01839Y00504*
X01872D02*
X01879Y00511D01*
X01892*
X01898Y00504*
Y00478*
X01892Y00471*
X01879*
X01872Y00478*
Y00504*
X01642Y00671D02*
X01668D01*
X01655*
Y00631*
X01681Y00618D02*
Y00658D01*
X01701*
X01708Y00651*
Y00638*
X01701Y00631*
X01681*
X01721Y00638D02*
X01727Y00631D01*
X0174*
X01747Y00638*
Y00664*
X0174Y00671*
X01727*
X01721Y00664*
Y00658*
X01727Y00651*
X01747*
X01882Y00866D02*
X01908D01*
X01895*
Y00826*
X01921Y00813D02*
Y00853D01*
X01941*
X01948Y00846*
Y00833*
X01941Y00826*
X01921*
X01961Y00859D02*
X01967Y00866D01*
X0198*
X01987Y00859*
Y00853*
X0198Y00846*
X01987Y0084*
Y00833*
X0198Y00826*
X01967*
X01961Y00833*
Y0084*
X01967Y00846*
X01961Y00853*
Y00859*
X01967Y00846D02*
X0198D01*
X01747Y00606D02*
X01773D01*
X0176*
Y00566*
X01786Y00553D02*
Y00593D01*
X01806*
X01813Y00586*
Y00573*
X01806Y00566*
X01786*
X01826Y00606D02*
X01852D01*
Y00599*
X01826Y00573*
Y00566*
X01587Y01056D02*
X01613D01*
X016*
Y01016*
X01626Y01003D02*
Y01043D01*
X01646*
X01653Y01036*
Y01023*
X01646Y01016*
X01626*
X01685D02*
Y01056D01*
X01666Y01036*
X01692*
X00812Y01051D02*
X00838D01*
X00825*
Y01011*
X00851Y00998D02*
Y01038D01*
X00871*
X00878Y01031*
Y01018*
X00871Y01011*
X00851*
X00891Y01044D02*
X00897Y01051D01*
X0091*
X00917Y01044*
Y01038*
X0091Y01031*
X00904*
X0091*
X00917Y01025*
Y01018*
X0091Y01011*
X00897*
X00891Y01018*
X01877Y0062D02*
Y00659D01*
X01896*
X01903Y00653*
Y0064*
X01896Y00633*
X01877*
X0189D02*
X01903Y0062D01*
X01942Y00659D02*
X01929Y00653D01*
X01916Y0064*
Y00627*
X01923Y0062*
X01936*
X01942Y00627*
Y00633*
X01936Y0064*
X01916*
X01592Y00732D02*
Y00772D01*
X01611*
X01618Y00765*
Y00752*
X01611Y00745*
X01592*
X01605D02*
X01618Y00732D01*
X01657Y00772D02*
X01631D01*
Y00752*
X01644Y00758*
X01651*
X01657Y00752*
Y00739*
X01651Y00732*
X01637*
X01631Y00739*
X02037Y00815D02*
Y00854D01*
X02056*
X02063Y00848*
Y00835*
X02056Y00828*
X02037*
X0205D02*
X02063Y00815D01*
X02096D02*
Y00854D01*
X02076Y00835*
X02102*
X01592Y0089D02*
Y00929D01*
X01611*
X01618Y00923*
Y0091*
X01611Y00903*
X01592*
X01605D02*
X01618Y0089D01*
X01631Y00923D02*
X01638Y00929D01*
X01651*
X01657Y00923*
Y00916*
X01651Y0091*
X01644*
X01651*
X01657Y00903*
Y00896*
X01651Y0089*
X01638*
X01631Y00896*
X01032Y00595D02*
Y00634D01*
X01051*
X01058Y00628*
Y00615*
X01051Y00608*
X01032*
X01045D02*
X01058Y00595D01*
X01097D02*
X01071D01*
X01097Y00621*
Y00628*
X01091Y00634*
X01078*
X01071Y00628*
X01243Y01025D02*
Y01064D01*
X01263*
X0127Y01058*
Y01045*
X01263Y01038*
X01243*
X01256D02*
X0127Y01025D01*
X01283D02*
X01296D01*
X01289*
Y01064*
X01283Y01058*
X02017Y00651D02*
Y00678D01*
X0201Y00684*
X01997*
X01991Y00678*
Y00651*
X01997Y00645*
X0201*
X02004Y00658D02*
X02017Y00645D01*
X0201D02*
X02017Y00651D01*
X0203Y00645D02*
X02043D01*
X02037*
Y00684*
X0203Y00678*
X02039Y00384D02*
X02025D01*
X02019Y00378*
Y00351*
X02025Y00345*
X02039*
X02045Y00351*
Y00378*
X02039Y00384*
X02058Y00345D02*
Y00384D01*
X02078*
X02085Y00378*
Y00365*
X02078Y00358*
X02058*
X02098Y00384D02*
X02124D01*
X02111*
Y00345*
X02137D02*
X0215D01*
X02144*
Y00384*
X02137Y00378*
X02177Y008D02*
Y00839D01*
X02203Y008*
Y00839*
X02216Y0082D02*
X02243D01*
X02282Y00833D02*
X02275Y00839D01*
X02262*
X02256Y00833*
Y00806*
X02262Y008*
X02275*
X02282Y00806*
X02302Y008D02*
X02315D01*
X02321Y00806*
Y0082*
X02315Y00826*
X02302*
X02295Y0082*
Y00806*
X02302Y008*
X02334D02*
Y00826D01*
X02354*
X02361Y0082*
Y008*
X02374D02*
X02387D01*
X0238*
Y00839*
X02374Y00833*
X02406Y0082D02*
X02433D01*
X02472Y008D02*
X02446D01*
X02472Y00826*
Y00833*
X02466Y00839*
X02452*
X02446Y00833*
X02188Y01044D02*
Y01005D01*
X02215*
X02228Y01025D02*
X02254D01*
X02293Y01038D02*
X02287Y01044D01*
X02274*
X02267Y01038*
Y01011*
X02274Y01005*
X02287*
X02293Y01011*
X02313Y01005D02*
X02326D01*
X02333Y01011*
Y01025*
X02326Y01031*
X02313*
X02307Y01025*
Y01011*
X02313Y01005*
X02346D02*
Y01031D01*
X02366*
X02372Y01025*
Y01005*
X02385D02*
X02398D01*
X02392*
Y01044*
X02385Y01038*
X02418Y01025D02*
X02444D01*
X02457Y01005D02*
X02471D01*
X02464*
Y01044*
X02457Y01038*
X0065Y00984D02*
X00623D01*
Y00965*
X00636*
X00623*
Y00945*
X00663D02*
X00676D01*
X00669*
Y00984*
X00663Y00978*
X00716Y00616D02*
X0069D01*
Y00577*
X00716*
X0069Y00596D02*
X00703D01*
X00755Y00609D02*
X00749Y00616D01*
X00735*
X00729Y00609*
Y00583*
X00735Y00577*
X00749*
X00755Y00583*
X00768Y00577D02*
X00781D01*
X00775*
Y00616*
X00768Y00609*
X00562Y00543D02*
Y00504D01*
X00581*
X00588Y0051*
Y00536*
X00581Y00543*
X00562*
X00601D02*
X00627D01*
Y00536*
X00601Y0051*
Y00504*
X00627*
X0064D02*
X00653D01*
X00647*
Y00543*
X0064Y00536*
X00957Y00963D02*
Y00924D01*
X00976*
X00983Y0093*
Y00956*
X00976Y00963*
X00957*
X00996Y00924D02*
X01009D01*
X01002*
Y00963*
X00996Y00956*
X02199Y00418D02*
X02193Y00424D01*
X0218*
X02173Y00418*
Y00391*
X0218Y00385*
X02193*
X02199Y00391*
X02232Y00424D02*
X02219D01*
X02212Y00418*
Y00391*
X02219Y00385*
X02232*
X02239Y00391*
Y00418*
X02232Y00424*
X02252Y00385D02*
Y00424D01*
X02278Y00385*
Y00424*
X02311Y00385D02*
Y00424D01*
X02291Y00405*
X02317*
X0233D02*
X02357D01*
X02396Y00385D02*
X0237D01*
X02396Y00411*
Y00418*
X02389Y00424*
X02376*
X0237Y00418*
X02216Y00618D02*
X02209Y00624D01*
X02196*
X0219Y00618*
Y00591*
X02196Y00585*
X02209*
X02216Y00591*
X02249Y00624D02*
X02235D01*
X02229Y00618*
Y00591*
X02235Y00585*
X02249*
X02255Y00591*
Y00618*
X02249Y00624*
X02268Y00585D02*
Y00624D01*
X02295Y00585*
Y00624*
X02327Y00585D02*
Y00624D01*
X02308Y00605*
X02334*
X02347D02*
X02373D01*
X02386Y00585D02*
X02399D01*
X02393*
Y00624*
X02386Y00618*
X01175Y00389D02*
X01168Y00395D01*
X01155*
X01148Y00389*
Y00362*
X01155Y00356*
X01168*
X01175Y00362*
X01188Y00356D02*
X01201D01*
X01194*
Y00395*
X01188Y00389*
G54D11*
X01693Y00355D02*
D01*
D01*
G75*
G03X01682I-00005J0D01*
G74*G01*
D01*
G75*
G03X01693I00005J0D01*
G74*G01*
X02033Y00792D02*
X02066D01*
X02033Y00707D02*
X02066D01*
X01758Y00792D02*
X01791D01*
X01758Y00707D02*
X01791D01*
X01758Y00952D02*
X01791D01*
X01758Y00867D02*
X01791D01*
X00371Y00363D02*
Y00756D01*
X00036Y00363D02*
X00371D01*
X00036Y00466D02*
X00055D01*
Y00654*
X00036D02*
X00055D01*
X00057Y00756D02*
X00371D01*
X00036Y00735D02*
X00057Y00756D01*
X00036Y00363D02*
Y00735D01*
X01135Y00692D02*
X01474D01*
X01135Y00527D02*
Y00692D01*
X01474Y00527D02*
Y00692D01*
X01135Y00527D02*
X01474D01*
X01135Y00817D02*
X01474D01*
Y00982*
X01135Y00817D02*
Y00982D01*
X01474*
X02125Y00549D02*
Y00585D01*
X02004Y00548D02*
Y00585D01*
X02031*
X02098D02*
X02125D01*
X0174Y00267D02*
X01919D01*
X01754Y00412D02*
X01919D01*
X0174Y00315D02*
Y00365D01*
X01919Y00314D02*
Y00364D01*
X02856Y00226D02*
Y01013D01*
X02521D02*
X02856D01*
X02521Y00226D02*
X02856D01*
X02825Y00324D02*
Y00911D01*
X02856*
X02521Y00226D02*
Y01013D01*
X02825Y00324D02*
X02856D01*
G54D12*
X01024Y00376D02*
D01*
D01*
G75*
G03X00693I-00165J0D01*
G74*G01*
X00749Y00477D02*
X00804D01*
X00915D02*
X0097D01*
X00726Y00445D02*
X00793D01*
X00926D02*
X00993D01*
X00714Y00414D02*
X00806D01*
X00912D02*
X01005D01*
X00797Y00512D02*
X00922D01*
X00708Y00376D02*
X01007D01*
G54D13*
X01017Y00375D02*
D01*
D01*
G75*
G03X00702I-00157J0D01*
G74*G01*
D01*
G75*
G03X01017I00157J0D01*
G74*G01*
X02885Y00927D02*
X02905Y00946D01*
Y00907D02*
Y00946D01*
X02885Y00927D02*
X02905Y00907D01*
X01941Y00549D02*
Y0056D01*
X01968Y00549D02*
Y0056D01*
X00954Y00701D02*
X01025D01*
X00954Y00693D02*
Y00705D01*
Y00693D02*
X01025D01*
Y00705*
X00954Y00894D02*
X01025D01*
X00954Y00705D02*
Y00894D01*
Y00705D02*
X01025D01*
Y00894*
X00954Y00713D02*
X01025D01*
X00559Y00281D02*
X0063D01*
Y00285D02*
Y00474D01*
X00559Y00285D02*
X0063D01*
X00559D02*
Y00474D01*
X0063*
Y00273D02*
Y00285D01*
X00559Y00273D02*
X0063D01*
X00559D02*
Y00285D01*
Y00289D02*
X0063D01*
G54D14*
X02716Y01087D02*
X02709Y01094D01*
X02696*
X0269Y01087*
Y01061*
X02696Y01055*
X02709*
X02716Y01061*
X02749Y01094D02*
X02735D01*
X02729Y01087*
Y01061*
X02735Y01055*
X02749*
X02755Y01061*
Y01087*
X02749Y01094*
X02768Y01055D02*
Y01094D01*
X02794Y01055*
Y01094*
X02834Y01055D02*
X02808D01*
X02834Y01081*
Y01087*
X02827Y01094*
X02814*
X02808Y01087*
M02*