%FSTAX23Y23*%
%MOIN*%
%SFA1B1*%

%IPPOS*%
%ADD40C,0.059055*%
%ADD41C,0.031496*%
%ADD49O,0.149606X0.094488*%
%ADD50O,0.055118X0.070866*%
%ADD51R,0.149606X0.078740*%
%ADD52O,0.149606X0.078740*%
%ADD53O,0.125984X0.098425*%
%ADD54O,0.078740X0.059055*%
%ADD55C,0.019685*%
%ADD56C,0.059055*%
%LN1438-1d70059_a-1*%
%LPD*%
G54D40*
X0065Y003D02*
X0086D01*
X00805Y0084D02*
X0085D01*
X00516Y00756D02*
X00606Y00846D01*
X0032Y00756D02*
X00516D01*
X00476Y003D02*
X0065D01*
X00613Y00396D02*
X00937Y0072D01*
X00559Y00342D02*
X00613Y00396D01*
Y00336D02*
X0065Y003D01*
X00613Y00336D02*
Y00396D01*
X00321Y00454D02*
X00433Y00342D01*
X00476Y003*
X00937Y0072D02*
X02305D01*
X00433Y00342D02*
X00559D01*
X00222Y00658D02*
X0032Y00756D01*
X00195Y00658D02*
X00222D01*
X00195Y00461D02*
X00201Y00454D01*
X00321*
X0244Y00917D02*
X02657D01*
X02307D02*
X0244D01*
X02305Y0092D02*
X02307Y00917D01*
X0093Y0092D02*
X02305D01*
X02445Y00719D02*
X02659D01*
X02305Y00315D02*
X02609D01*
X02305Y00719D02*
X02445D01*
X0085Y0084D02*
X0093Y0092D01*
X02609Y00315D02*
X02619Y00324D01*
X0266*
X02659Y00719D02*
X0266Y00718D01*
X02305Y0072D02*
X02305Y00719D01*
X02657Y00917D02*
X0266Y00915D01*
G54D41*
X019Y00585D02*
X01919D01*
X01275D02*
X019D01*
X00996Y00306D02*
X01275Y00585D01*
X0086Y00306D02*
X00996D01*
X02445Y00515D02*
X02654D01*
X0231D02*
X02445D01*
X02305Y0051D02*
X0231Y00515D01*
X02654D02*
X0266Y00521D01*
G54D49*
X00175Y00658D03*
Y00461D03*
G54D50*
X00805Y0084D03*
X00605D03*
G54D51*
X0266Y00915D03*
G54D52*
X0266Y00521D03*
Y00324D03*
Y00718D03*
G54D53*
X02305Y0051D03*
Y0092D03*
Y0072D03*
Y00315D03*
G54D54*
X0086Y00443D03*
Y00306D03*
G54D55*
X01919Y00585D03*
X019D03*
G54D56*
X02445Y0051D03*
X0043Y00338D03*
X02445Y00324D03*
X0244Y00917D03*
X02445Y00719D03*
X00435Y00757D03*
M02*