%FSTAX23Y23*%
%MOIN*%
%SFA1B1*%

%IPPOS*%
%ADD10C,0.005905*%
%LN1438-1d70059_a-1*%
%LPD*%
G54D10*
X02555Y00436D02*
X02528D01*
X02541*
Y00397*
X02515Y00383D02*
Y00423D01*
X02495*
X02489Y00416*
Y00403*
X02495Y00397*
X02515*
X02476D02*
X02463D01*
X02469*
Y00436*
X02476Y00429*
X02417Y00397D02*
X02443D01*
X02417Y00423*
Y00429*
X02423Y00436*
X02436*
X02443Y00429*
X02537Y00621D02*
X02511D01*
X02524*
Y00581*
X02497Y00568D02*
Y00608D01*
X02478*
X02471Y00601*
Y00588*
X02478Y00581*
X02497*
X02458D02*
X02445D01*
X02452*
Y00621*
X02458Y00614*
X02425Y00581D02*
X02412D01*
X02419*
Y00621*
X02425Y00614*
X00507Y0045D02*
X0048D01*
X00493*
Y00411*
X00467Y00397D02*
Y00437D01*
X00447*
X00441Y0043*
Y00417*
X00447Y00411*
X00467*
X00402Y0045D02*
X00415Y00443D01*
X00428Y0043*
Y00417*
X00421Y00411*
X00408*
X00402Y00417*
Y00424*
X00408Y0043*
X00428*
X00512Y00869D02*
X00485D01*
X00498*
Y0083*
X00472Y00816D02*
Y00856D01*
X00452*
X00446Y00849*
Y00836*
X00452Y0083*
X00472*
X00407Y00869D02*
X00433D01*
Y00849*
X0042Y00856*
X00413*
X00407Y00849*
Y00836*
X00413Y0083*
X00426*
X00433Y00836*
X02522Y00831D02*
X02495D01*
X02508*
Y00792*
X02482Y00778D02*
Y00818D01*
X02462*
X02456Y00811*
Y00798*
X02462Y00792*
X02482*
X02417D02*
X02443D01*
X02417Y00818*
Y00824*
X02423Y00831*
X02436*
X02443Y00824*
X02504Y01029D02*
X02477D01*
X0249*
Y0099*
X02464Y00976D02*
Y01016D01*
X02444*
X02438Y01009*
Y00996*
X02444Y0099*
X02464*
X02425D02*
X02412D01*
X02418*
Y01029*
X02425Y01022*
M02*