%FSTAX23Y23*%
%MOIN*%
%SFA1B1*%

%IPPOS*%
%ADD24R,0.063000X0.100000*%
%ADD25C,0.047370*%
%ADD26R,0.130047X0.149732*%
%ADD27R,0.048000X0.055000*%
%ADD28R,0.047370X0.039496*%
%ADD29R,0.042252X0.043000*%
%ADD30R,0.042252X0.038000*%
%ADD31R,0.063118X0.055244*%
%ADD32R,0.056000X0.044000*%
%ADD33O,0.157606X0.102488*%
%ADD34O,0.063118X0.078866*%
%ADD35R,0.157606X0.086740*%
%ADD36O,0.157606X0.086740*%
%ADD37O,0.133984X0.106425*%
%ADD38O,0.086740X0.067055*%
%ADD39C,0.027685*%
%LN1438-1d70059_a-1*%
%LPD*%
G54D24*
X01994Y0075D03*
X02104D03*
X01719D03*
X01829D03*
X0172Y0091D03*
X0183D03*
G54D25*
X01515Y01025D03*
X01065Y0101D03*
X0191Y0076D03*
X01645Y00585D03*
X01719Y00517D03*
X011Y00477D03*
Y0027D03*
X01955Y00465D03*
G54D26*
X01401Y0061D03*
X01208D03*
Y009D03*
X01401D03*
G54D27*
X02065Y00596D03*
X02102Y00513D03*
X02027D03*
G54D28*
X01702Y0029D03*
Y0039D03*
X01957D03*
Y0029D03*
G54D29*
X011Y0041D03*
Y0035D03*
G54D30*
X01955Y00525D03*
Y00585D03*
G54D31*
X0099Y00856D03*
Y00743D03*
G54D32*
X00595Y00315D03*
Y00444D03*
G54D33*
X00175Y00658D03*
Y00461D03*
G54D34*
X00805Y0084D03*
X00605D03*
G54D35*
X0266Y00915D03*
G54D36*
X0266Y00521D03*
Y00324D03*
Y00718D03*
G54D37*
X02305Y0051D03*
Y0092D03*
Y0072D03*
Y00315D03*
G54D38*
X0086Y00443D03*
Y00306D03*
G54D39*
X01919Y00585D03*
X019D03*
M02*