%FSTAX23Y23*%
%MOIN*%
%SFA1B1*%

%IPPOS*%
%ADD58C,0.005000*%
%ADD59C,0.006665*%
%LN1438-1d70059_a-1*%
%LPD*%
G54D58*
X00155Y00638D02*
Y00678D01*
X00195*
Y00638*
X00155*
Y00441D02*
Y00481D01*
X00195*
Y00441*
X00155*
X00805Y0082D02*
X00785Y0086D01*
X00825*
X00805Y0082*
X00605D02*
X00585Y0086D01*
X00625*
X00605Y0082*
X0264Y00895D02*
Y00935D01*
X0268*
Y00895*
X0264*
Y00501D02*
Y00541D01*
X0268*
Y00501*
X0264*
Y00304D02*
Y00344D01*
X0268*
Y00304*
X0264*
Y00698D02*
Y00738D01*
X0268*
Y00698*
X0264*
X02305Y0049D02*
X02315Y005D01*
X02325*
X02315Y0051*
X02325Y0052*
X02315*
X02305Y0053*
X02295Y0052*
X02285*
X02295Y0051*
X02285Y005*
X02295*
X02305Y0049*
Y009D02*
X02315Y0091D01*
X02325*
X02315Y0092*
X02325Y0093*
X02315*
X02305Y0094*
X02295Y0093*
X02285*
X02295Y0092*
X02285Y0091*
X02295*
X02305Y009*
Y007D02*
X02315Y0071D01*
X02325*
X02315Y0072*
X02325Y0073*
X02315*
X02305Y0074*
X02295Y0073*
X02285*
X02295Y0072*
X02285Y0071*
X02295*
X02305Y007*
Y00295D02*
X02315Y00305D01*
X02325*
X02315Y00315*
X02325Y00325*
X02315*
X02305Y00335*
X02295Y00325*
X02285*
X02295Y00315*
X02285Y00305*
X02295*
X02305Y00295*
X0086Y00423D02*
X0084Y00463D01*
X0088*
X0086Y00423*
Y00286D02*
X0084Y00326D01*
X0088*
X0086Y00286*
G54D59*
X01939Y00585D02*
D01*
D01*
G75*
G03X01899I-00020J0D01*
G74*G01*
D01*
G75*
G03X01939I00020J0D01*
G74*G01*
X0192D02*
D01*
D01*
G75*
G03X0188I-00020J0D01*
G74*G01*
D01*
G75*
G03X0192I00020J0D01*
G74*G01*
M02*