%FSTAX23Y23*%
%MOIN*%
%SFA1B1*%

%IPPOS*%
%ADD58C,0.005000*%
%LN1438-1d70059_a-1*%
%LPD*%
G54D58*
X00142Y00658D02*
X00207D01*
X00175Y00625D02*
Y0069D01*
X00142Y00461D02*
X00207D01*
X00175Y00429D02*
Y00494D01*
X00789Y0084D02*
X0082D01*
X00805Y00824D02*
Y00855D01*
X00589Y0084D02*
X0062D01*
X00605Y00824D02*
Y00855D01*
X02627Y00915D02*
X02692D01*
X0266Y00882D02*
Y00947D01*
X02627Y00521D02*
X02692D01*
X0266Y00489D02*
Y00554D01*
X02627Y00324D02*
X02692D01*
X0266Y00292D02*
Y00357D01*
X02627Y00718D02*
X02692D01*
X0266Y00685D02*
Y0075D01*
X02275Y0051D02*
X02334D01*
X02305Y0048D02*
Y00539D01*
X02275Y0092D02*
X02334D01*
X02305Y0089D02*
Y00949D01*
X02275Y0072D02*
X02334D01*
X02305Y0069D02*
Y00749D01*
X02275Y00315D02*
X02334D01*
X02305Y00285D02*
Y00344D01*
X00844Y00443D02*
X00875D01*
X0086Y00428D02*
Y00459D01*
X00844Y00306D02*
X00875D01*
X0086Y0029D02*
Y00321D01*
X01913Y00585D02*
X01925D01*
X01919Y00579D02*
Y0059D01*
X01894Y00585D02*
X01905D01*
X019Y00579D02*
Y0059D01*
M02*