%FSTAX23Y23*%
%MOIN*%
%SFA1B1*%

%IPPOS*%
%ADD12C,0.019685*%
%ADD15R,0.055000X0.092000*%
%ADD16C,0.039370*%
%ADD17R,0.122047X0.141732*%
%ADD18R,0.040000X0.047000*%
%ADD19R,0.039370X0.031496*%
%ADD20R,0.034252X0.035000*%
%ADD21R,0.034252X0.030000*%
%ADD22R,0.055118X0.047244*%
%ADD23R,0.048000X0.036000*%
%ADD40C,0.059055*%
%ADD41C,0.031496*%
%ADD42R,0.664999X0.127323*%
%ADD43R,0.939998X0.125000*%
%ADD44R,0.079212X0.434409*%
%ADD45R,0.231535X0.135000*%
%ADD46R,0.259999X0.095000*%
%ADD47R,0.349999X0.319999*%
%ADD48R,0.250000X0.729999*%
%ADD49O,0.149606X0.094488*%
%ADD50O,0.055118X0.070866*%
%ADD51R,0.149606X0.078740*%
%ADD52O,0.149606X0.078740*%
%ADD53O,0.125984X0.098425*%
%ADD54O,0.078740X0.059055*%
%ADD55C,0.019685*%
%LN1438-1d70059_a-1*%
%LPD*%
G36*
X01272Y0068D02*
X01275D01*
Y00415*
X01455Y00235*
X01875*
X01975Y00335*
X02616*
X02663Y00288*
X0251Y00135*
X01415*
X01135Y00414*
X00545*
X00525Y00435*
Y0058*
X0054Y00595*
X01038*
X01135Y00692*
X0126*
X01272Y0068*
G37*
G54D12*
X01669Y00894D02*
X01699D01*
X01715Y0091*
X01645Y0087D02*
X01669Y00894D01*
X01719Y00407D02*
Y0076D01*
X01702Y0039D02*
X01705D01*
X01955Y00585D02*
X02054D01*
X01919D02*
X01955D01*
X019D02*
X01919D01*
X02105Y00756D02*
Y0076D01*
X01645Y00585D02*
Y0087D01*
Y00301D02*
X01656Y0029D01*
X01702*
X01645Y00301D02*
Y00569D01*
X0191Y0076D02*
X01994D01*
X0183D02*
X0191D01*
X01711Y00399D02*
X01719Y00407D01*
X01705Y0039D02*
X01711Y00395D01*
Y00399*
X02102Y0051D02*
X02112Y005D01*
X02102Y0051D02*
Y00513D01*
X01956Y00391D02*
Y00523D01*
X01955Y00525D02*
X01956Y00523D01*
Y00391D02*
X01957Y0039D01*
X02027Y00513D02*
Y00514D01*
X01955Y00525D02*
X02017D01*
X02027Y00514*
X02065Y00596D02*
Y006D01*
X02054Y00585D02*
X02065Y00595D01*
Y00596*
G54D15*
X01994Y0075D03*
X02104D03*
X01719D03*
X01829D03*
X0172Y0091D03*
X0183D03*
G54D16*
X01515Y01025D03*
X01065Y0101D03*
X0191Y0076D03*
X01645Y00585D03*
X01719Y00517D03*
X011Y00477D03*
Y0027D03*
X01955Y00465D03*
G54D17*
X01401Y0061D03*
X01208D03*
Y009D03*
X01401D03*
G54D18*
X02065Y00596D03*
X02102Y00513D03*
X02027D03*
G54D19*
X01702Y0029D03*
Y0039D03*
X01957D03*
Y0029D03*
G54D20*
X011Y0041D03*
Y0035D03*
G54D21*
X01955Y00525D03*
Y00585D03*
G54D22*
X0099Y00856D03*
Y00743D03*
G54D23*
X00595Y00315D03*
Y00444D03*
G54D40*
X02255Y00745D02*
X02592D01*
X02134Y0072D02*
X02166D01*
X0228*
X02104Y00735D02*
X02106Y00733D01*
X02104Y00735D02*
Y0075D01*
X02106Y00733D02*
X02121D01*
X02134Y0072*
X01832Y00895D02*
X01842D01*
X0183Y00893D02*
X01832Y00895D01*
X0183Y0089D02*
Y00893D01*
X01842Y00895D02*
X01866Y0092D01*
X02305*
X00595Y00315D02*
X01085D01*
X0081Y00745D02*
X00835Y0072D01*
X00806Y00748D02*
X0081Y00745D01*
Y008*
Y00713D02*
Y00745D01*
X00835Y0072D02*
X0084D01*
X00805Y0084D02*
X00806Y00838D01*
Y00748D02*
Y00838D01*
X00594Y00834D02*
X00603D01*
X0038Y00756D02*
X00516D01*
X00594Y00834*
X0032Y00756D02*
X0038D01*
X00195Y00658D02*
X00222D01*
X0032Y00756*
X01033Y009D02*
X01208D01*
X0099Y00856D02*
X01033Y009D01*
X01406Y00685D02*
X01408Y00687D01*
Y00917*
X011Y0027D02*
Y0033D01*
X00484Y00315D02*
X00595D01*
X0031Y00454D02*
X00345D01*
X00201D02*
X0031D01*
Y0045D02*
X00444Y00315D01*
X0031Y0045D02*
Y00454D01*
X00444Y00315D02*
X00484D01*
X00195Y00461D02*
X00201Y00454D01*
X00345D02*
X00484Y00315D01*
X0228Y0072D02*
X02305D01*
X02141Y00745D02*
X02166Y0072D01*
X02618Y00719D02*
X02619Y00718D01*
X02592Y00745D02*
X02618Y00719D01*
X02659*
X02305D02*
X02618D01*
X02619Y00718D02*
X0266D01*
X01862Y00195D02*
X01975Y00307D01*
X02297*
X02609Y0029D02*
X02625D01*
X02305D02*
X02609D01*
X02297Y00307D02*
X02305Y00315D01*
X02634Y00324D02*
X0266D01*
X02619D02*
X02634D01*
X02625Y00315D02*
X02634Y00324D01*
X02625Y0029D02*
Y00315D01*
X01088Y0049D02*
X01111Y00512D01*
X01043Y00444D02*
X01088Y0049D01*
X0118Y00527D02*
Y00572D01*
Y00476D02*
Y00527D01*
X01134Y0049D02*
X01148Y00475D01*
X01111Y00512D02*
X01134Y0049D01*
X01111D02*
Y00512D01*
Y00444D02*
Y0049D01*
X01085Y00444D02*
X01111D01*
X01134Y0049D02*
X01143D01*
X01111D02*
X01134D01*
X01088D02*
X01111D01*
X00624D02*
X01088D01*
X00595Y00444D02*
X01043D01*
X01143Y0049D02*
X0118Y00527D01*
X00595Y00444D02*
Y0046D01*
X00624Y0049*
X01076Y00306D02*
X01085Y00315D01*
X011Y0033*
X02105Y00756D02*
X02107Y00754D01*
X02132D02*
X02141Y00745D01*
X02255D02*
X0228Y0072D01*
X02107Y00754D02*
X02132D01*
X02141Y00745D02*
X02255D01*
X02305Y0072D02*
X02305Y00719D01*
X01435Y00195D02*
X01862D01*
X01208Y00421D02*
Y006D01*
X0118Y00572D02*
Y00581D01*
X01208Y0061*
X01148Y00444D02*
X0118Y00476D01*
X01148Y00444D02*
Y00475D01*
X01208Y00421D02*
X01435Y00195D01*
X0118Y00572D02*
X01208Y006D01*
X01177Y00568D02*
X0118Y00572D01*
X01148Y00444D02*
X01185D01*
X01111D02*
X01148D01*
X01185D02*
X01208Y00421D01*
Y006D02*
Y0061D01*
X01111Y00441D02*
Y00444D01*
X0086Y00306D02*
X01063D01*
X02609Y00315D02*
X02619Y00324D01*
X02305Y00315D02*
X02609D01*
X02307Y00917D02*
X02657D01*
X0266Y00915*
X02305Y0092D02*
X02307Y00917D01*
X02659Y00719D02*
X0266Y00718D01*
X01111Y00512D02*
X01167Y00568D01*
X011Y0043D02*
X01111Y00441D01*
X01043Y00444D02*
X01085D01*
X011Y0043*
X01063Y00306D02*
X011Y0027D01*
X01063Y00306D02*
X01076D01*
X00595Y00315D02*
X00604Y00306D01*
X0086*
X01167Y00568D02*
X01177D01*
X01408Y00917D02*
X01411Y0092D01*
X00866Y00743D02*
X0099D01*
X0081Y008D02*
X00866Y00743D01*
G54D41*
X02106Y00517D02*
X02655D01*
X0266Y00521*
X02102Y00513D02*
X02106Y00517D01*
G54D42*
X02407Y00728D03*
G54D43*
X0227Y00922D03*
G54D44*
X01714Y00582D03*
G54D45*
X01915Y00732D03*
G54D46*
X0091Y00727D03*
G54D47*
X011Y0098D03*
G54D48*
X0146Y0078D03*
G54D49*
X00175Y00658D03*
Y00461D03*
G54D50*
X00805Y0084D03*
X00605D03*
G54D51*
X0266Y00915D03*
G54D52*
X0266Y00521D03*
Y00324D03*
Y00718D03*
G54D53*
X02305Y0051D03*
Y0092D03*
Y0072D03*
Y00315D03*
G54D54*
X0086Y00443D03*
Y00306D03*
G54D55*
X01919Y00585D03*
X019D03*
M02*